<svg class="logo" viewBox="0 0 500 500" xmlns="http://www.w3.org/2000/svg"><defs><linearGradient id="linearGradient" gradientTransform="rotate(90)"><stop offset="15%" stop-color="#FAFBFC"/><stop offset="80%" stop-color="#FAFBFC" stop-opacity="0"/></linearGradient><style>@keyframes line{to{transform:rotateZ(360deg)}}</style></defs><path d="M250 450c-110.457 0-200-89.544-200-200 0-110.457 89.543-200 200-200" style="transform-origin:250px 250px;animation:line 3s infinite linear" fill="none" stroke="url(#linearGradient)" stroke-linecap="round" stroke-width="15"/><path d="M223.665 253.229l-3.711-7.393-22.353-44.52-13.618-.012-20.362-.013-.019-.026-13.602-.013 34.021 67.751 34.025 67.745 6.8-13.557 16.959-33.848-17.001-33.845zm78.84-51.903l-.012.013 33.918.025h-33.957l-20.343 40.594v-.004l-6.812-13.557-13.582-27.055-40.818-.038h-6.77l.019.025 20.401 40.625 13.583 27.043 3.415 6.806 6.806 13.556 16.998 33.845 6.805 13.544 23.759-47.402 10.16-20.288L350 201.364z" fill="#fafbfc"/></svg>