<svg
  class="logo"
  viewBox="0 0 500 500"
  xmlns="http://www.w3.org/2000/svg"
>
  <defs>
    <linearGradient id="linearGradient" gradientTransform="rotate(90)">
      <stop offset="15%" stop-color="#FAFBFC" />
      <stop offset="80%" stop-color="#FAFBFC" stop-opacity="0" />
    </linearGradient>
    <style>
      @keyframes line {
        to {
          transform: rotateZ(360deg);
        }
      }
    </style>
  </defs>
  <path
    fill="rgba(209, 209, 204, .5)"
    d="M250,56c26.195,0,51.601,5.127,75.509,15.24c23.1,9.771,43.849,23.76,61.669,41.581
s31.811,38.569,41.581,61.669C438.873,198.399,444,223.805,444,250s-5.127,51.601-15.24,75.509
c-9.771,23.1-23.76,43.849-41.581,61.669s-38.569,31.811-61.669,41.581C301.601,438.873,276.195,444,250,444
s-51.601-5.127-75.509-15.24c-23.1-9.771-43.849-23.76-61.669-41.581s-31.811-38.569-41.581-61.669
C61.127,301.601,56,276.195,56,250s5.127-51.601,15.24-75.509c9.771-23.1,23.76-43.849,41.581-61.669s38.569-31.811,61.669-41.581
C198.399,61.127,223.805,56,250,56 M250,43C135.677,43,43,135.677,43,250s92.677,207,207,207s207-92.677,207-207S364.323,43,250,43
L250,43z"
  />
  <path
    d="M250 450c-110.457 0-200-89.544-200-200 0-110.457 89.543-200 200-200"
    style="
      transform-origin: 250px 250px;
      animation: line 3s infinite linear;
    "
    fill="none"
    stroke="url(#linearGradient)"
    stroke-linecap="round"
    stroke-width="14"
  />
  <path
    d="M223.665 253.229l-3.711-7.393-22.353-44.52-13.618-.012-20.362-.013-.019-.026-13.602-.013 34.021 67.751 34.025 67.745 6.8-13.557 16.959-33.848-17.001-33.845zm78.84-51.903l-.012.013 33.918.025h-33.957l-20.343 40.594v-.004l-6.812-13.557-13.582-27.055-40.818-.038h-6.77l.019.025 20.401 40.625 13.583 27.043 3.415 6.806 6.806 13.556 16.998 33.845 6.805 13.544 23.759-47.402 10.16-20.288L350 201.364z"
    fill="darkblue"
  />
</svg>