<?xml version="1.0" encoding="utf-8"?>
<!-- Generator: Adobe Illustrator 22.0.1, SVG Export Plug-In . SVG Version: 6.00 Build 0)  -->
<svg version="1.1" id="레이어_1" xmlns="http://www.w3.org/2000/svg" xmlns:xlink="http://www.w3.org/1999/xlink" x="0px"
	 y="0px" viewBox="0 0 32 32" style="enable-background:new 0 0 32 32;" xml:space="preserve">
<style type="text/css">
	.st0{fill:#033490;}
</style>
<g>
	<polygon class="st0" points="12.5,14 12.1,14.8 7.7,6 7.7,6 7.7,6 2.2,6 2.2,6 0,6 5.5,17 11.1,28 12.2,25.8 14.9,20.3 14.9,20.3 
		15.3,19.5 14.7,18.4 	"/>
	<polygon class="st0" points="24.3,6 24.3,6 29.8,6 24.3,6 21,12.6 19.9,10.4 17.7,6 17.7,6 17.7,6 17.7,6 17.7,6 9.9,6 9.9,6 
		9.9,6 9.9,6 9.9,6 13.3,12.6 15.5,17 16,18.1 17.1,20.3 19.9,25.8 21,28 24.8,20.3 26.5,17 32,6 	"/>
</g>
</svg>
