<?xml version="1.0" encoding="utf-8"?>
<!-- Generator: Adobe Illustrator 16.0.0, SVG Export Plug-In . SVG Version: 6.00 Build 0)  -->
<!DOCTYPE svg PUBLIC "-//W3C//DTD SVG 1.1//EN" "http://www.w3.org/Graphics/SVG/1.1/DTD/svg11.dtd">
<svg version="1.1" id="moon" xmlns="http://www.w3.org/2000/svg" xmlns:xlink="http://www.w3.org/1999/xlink" x="0px" y="0px"
	 width="841.89px" height="595.281px" viewBox="0 0 841.89 595.281" enable-background="new 0 0 841.89 595.281"
	 xml:space="preserve">
<g>
	<polyline fill="#F24125" points="516.12,400.662 604.657,462.114 567.345,515.868 525.184,486.604 562.497,432.85 	"/>
	<path fill="#FCBC1D" d="M490.038,461.698c-22.185,18.756-48.067,33.144-76.258,41.929c-26.236,8.18-54.458,11.516-83.518,9.064
		c-15.726-1.325-30.928-4.281-45.438-8.7c-41.833-12.694-77.998-37.439-104.86-69.923c-12.983-15.686-23.802-33.195-32.013-52.017
		c-14.108-32.259-20.615-68.382-17.449-105.919c0.308-3.656,0.704-7.278,1.187-10.868c9.094-67.824,48.726-124.791,103.681-158.088
		c38.197-23.135,83.799-34.843,131.69-30.804c2.392,0.202,4.767,0.44,7.137,0.718c48.809,5.7,92.189,27.191,125.429,58.875
		c42.546,40.554,68.488,97.837,67.971,160.152c-0.045,5.571-0.299,11.176-0.775,16.814c-4.142,49.106-24.186,93.048-54.633,127.202
		C505.318,447.844,497.912,455.047,490.038,461.698z"/>
	<path opacity="0.25" enable-background="new    " d="M140.798,295.809c11.166-24.759,26.775-46.952,45.721-65.646
		c43.961-43.405,105.911-68.04,172.29-62.441c58.862,4.964,110.322,32.789,146.362,73.993c19.859,22.701,35.05,49.463,44.223,78.705
		c3.819,12.192,6.582,24.821,8.219,37.76c4.387-14.476,7.343-29.617,8.666-45.294c2.461-29.2-0.929-57.529-9.177-83.861
		c-9.173-29.242-24.364-56.004-44.222-78.706c-36.041-41.202-87.502-69.027-146.362-73.992
		c-66.38-5.598-128.329,19.036-172.292,62.441c-18.946,18.694-34.556,40.889-45.721,65.647c-9.96,22.067-16.397,46.18-18.548,71.673
		c-1.322,15.669-0.948,31.089,0.951,46.091C133.655,313.112,136.962,304.308,140.798,295.809z"/>
	<g>
		<path opacity="0.25" enable-background="new    " d="M391.292,401.247c15.44-1.841,29.457,3.961,35.608,13.675
			c1.664,2.643,2.756,5.574,3.137,8.729c1.752,14.726-12.749,28.541-32.396,30.883c-19.635,2.334-36.979-7.683-38.731-22.408
			c-0.57-4.709,0.542-9.349,2.947-13.519C366.973,409.732,377.943,402.847,391.292,401.247z"/>
		<path fill="#FCBC1D" d="M391.292,401.247c15.44-1.841,29.457,3.961,35.608,13.675c-5.118,8.871-16.091,15.779-29.438,17.357
			c-15.441,1.841-29.453-3.962-35.604-13.674C366.973,409.732,377.943,402.847,391.292,401.247z"/>
		<path fill="#333333" d="M352.441,427.444c0.348-4.127,1.649-8.215,3.858-12.045c1.772-3.068,5.695-4.119,8.764-2.35
			c3.07,1.771,4.12,5.695,2.35,8.762c-1.78,3.084-2.52,6.383-2.135,9.54c0.601,5.078,3.977,9.628,9.501,12.822
			c6.121,3.538,13.973,4.957,22.103,3.988c15.824-1.886,28.094-12.768,26.783-23.756c-0.254-2.113-0.994-4.159-2.196-6.069
			c-5.007-7.906-16.833-12.221-29.417-10.718c-3.519,0.419-6.71-2.095-7.129-5.613c-0.421-3.528,2.093-6.709,5.61-7.129
			c17.661-2.104,34.062,4.414,41.786,16.612c2.227,3.54,3.599,7.366,4.086,11.389c2.167,18.215-14.886,35.27-38.005,38.025
			c-10.87,1.29-21.537-0.705-30.043-5.622c-9.109-5.269-14.728-13.226-15.818-22.398
			C352.322,431.074,352.288,429.253,352.441,427.444z"/>
	</g>
	<g>
		<path fill="#FFFFFF" d="M433.578,458.349c0.179-2.1,1.385-4.068,3.383-5.131c13.266-7.051,25.688-15.703,36.921-25.719
			c2.646-2.357,6.7-2.126,9.059,0.521c2.354,2.64,2.125,6.697-0.519,9.056c-12,10.697-25.27,19.938-39.439,27.47
			c-3.128,1.662-7.013,0.475-8.675-2.654C433.708,460.765,433.479,459.536,433.578,458.349z"/>
		<path fill="#FFFFFF" d="M191.468,407.192c0.145-1.707,0.967-3.352,2.417-4.498c2.783-2.194,6.817-1.718,9.012,1.062
			c31.967,40.519,79.701,66.239,130.96,70.562c11.166,0.943,22.438,0.885,33.503-0.169c3.528-0.336,6.66,2.254,6.997,5.779
			c0.342,3.515-2.251,6.655-5.778,6.994c-11.828,1.125-23.874,1.188-35.8,0.182c-54.783-4.621-105.796-32.103-139.955-75.4
			C191.774,410.375,191.336,408.756,191.468,407.192z"/>
		<path fill="#FFFFFF" d="M172.689,378.529c0.177-2.093,1.375-4.056,3.365-5.123c3.123-1.67,7.012-0.496,8.682,2.629
			c1.846,3.443,3.818,6.87,5.87,10.184c1.867,3.015,0.936,6.968-2.078,8.833c-3.013,1.864-6.969,0.933-8.832-2.08
			c-2.192-3.54-4.302-7.202-6.271-10.88C172.82,380.958,172.589,379.723,172.689,378.529z"/>
	</g>
	<path fill="#333333" d="M124.107,275.593C134.55,151.775,243.78,59.536,367.597,69.979
		c123.819,10.441,216.059,119.672,205.617,243.49C562.771,437.287,453.54,529.525,329.722,519.084
		C205.903,508.641,113.665,399.412,124.107,275.593z M560.429,312.391c9.847-116.769-77.141-219.78-193.91-229.627
		c-116.769-9.849-219.78,77.139-229.627,193.908c-9.848,116.77,77.139,219.779,193.907,229.627
		C447.57,516.147,550.58,429.16,560.429,312.391z"/>
	<path opacity="0.25" enable-background="new    " d="M337.25,330.281c-22.872-1.929-39.858-22.044-37.93-44.915
		c0.377-4.487,1.458-8.749,3.13-12.689c4.011,17.025,18.584,30.318,36.969,31.871c18.385,1.549,34.98-9.115,41.784-25.229
		c0.987,4.164,1.339,8.546,0.961,13.034C380.236,315.224,360.122,332.209,337.25,330.281z"/>
	<g>
		<path fill="#FCBC1D" d="M250.266,188.19c-2.895-2.626-5.124-5.802-6.512-9.498c-6.048-16.103,6.485-35.698,27.974-43.762
			c21.486-8.063,43.818-1.544,49.863,14.558c0.914,2.434,1.397,4.946,1.493,7.491c0.548,14.261-11.225,29.415-29.48,36.27
			C277.037,199.461,259.988,197.019,250.266,188.19z"/>
		<path opacity="0.25" enable-background="new    " d="M250.266,188.19c-0.56-14.275,11.224-29.427,29.467-36.271
			c16.567-6.212,33.627-3.77,43.351,5.059c0.548,14.261-11.224,29.414-29.48,36.27C277.037,199.461,259.988,197.019,250.266,188.19z
			"/>
		<path fill="#333333" d="M235.911,167.517c0.486-5.76,2.535-11.599,6.098-17.173c6.026-9.425,15.78-17.031,27.466-21.417
			c11.685-4.384,24.034-5.074,34.773-1.939c11.404,3.329,19.694,10.517,23.343,20.243c3.65,9.724,2.136,20.591-4.261,30.603
			c-6.026,9.425-15.78,17.031-27.464,21.416c-3.318,1.245-7.017-0.435-8.261-3.753c-1.246-3.318,0.437-7.016,3.752-8.259
			c9.104-3.417,16.62-9.21,21.163-16.315c4.168-6.522,5.256-13.335,3.061-19.184c-2.197-5.85-7.497-10.266-14.926-12.434
			c-8.095-2.363-17.567-1.781-26.671,1.635c-9.107,3.417-16.623,9.211-21.163,16.315c-4.172,6.521-5.256,13.334-3.063,19.184
			c2.196,5.849,7.498,10.264,14.926,12.433c3.401,0.993,5.353,4.553,4.363,7.956c-0.993,3.4-4.556,5.354-7.958,4.361
			c-11.403-3.328-19.693-10.517-23.344-20.242C236.129,176.638,235.525,172.102,235.911,167.517z"/>
	</g>
	<path fill="#333333" d="M292.933,284.83c2.223-26.364,25.479-46.002,51.843-43.779c3.531,0.297,6.152,3.402,5.854,6.931
		c-0.298,3.53-3.402,6.151-6.932,5.854c-19.314-1.63-36.352,12.76-37.98,32.072c-1.629,19.313,12.76,36.353,32.072,37.981
		c19.312,1.63,36.354-12.76,37.982-32.073c0.536-6.362-0.66-12.734-3.458-18.426c-1.562-3.18-0.252-7.023,2.928-8.586
		c3.18-1.563,7.023-0.253,8.586,2.927c3.825,7.781,5.46,16.483,4.729,25.163c-2.224,26.366-25.482,46.003-51.845,43.781
		C310.347,334.451,290.709,311.194,292.933,284.83z"/>
	<path fill="#333333" d="M445.779,295.148c0.488-5.779,3.174-11.37,7.944-15.398c2.708-2.287,6.756-1.944,9.04,0.762
		c2.285,2.708,1.943,6.754-0.762,9.041c-4.134,3.49-4.658,9.694-1.167,13.83c3.491,4.135,9.694,4.657,13.831,1.167
		c4.132-3.49,4.657-9.696,1.166-13.83c-2.285-2.708-1.944-6.755,0.762-9.041c2.708-2.286,6.755-1.944,9.041,0.763
		c8.056,9.541,6.847,23.856-2.691,31.91c-9.541,8.056-23.855,6.849-31.912-2.689C447.003,306.892,445.292,300.926,445.779,295.148z"
		/>
	<path fill="#333333" d="M208.452,355.462c0.487-5.779,3.174-11.371,7.943-15.397c2.708-2.286,6.753-1.944,9.04,0.761
		c2.286,2.708,1.947,6.754-0.762,9.04c-4.134,3.493-4.658,9.7-1.167,13.832c3.491,4.132,9.696,4.655,13.832,1.164
		c4.135-3.49,4.653-9.696,1.167-13.829c-2.286-2.706-1.945-6.754,0.762-9.04c2.706-2.285,6.754-1.943,9.041,0.764
		c8.054,9.539,6.845,23.855-2.691,31.91c-9.542,8.055-23.858,6.848-31.912-2.69C209.677,367.207,207.964,361.243,208.452,355.462z"
		/>
	<polygon fill="#F2F2F2" points="511.081,214.018 498.534,199.143 540.01,164.117 541.748,188.108 	"/>
	<path fill="#F2F2F2" d="M498.534,199.143l-34.23-40.535l41.478-35.026l47.884-40.435c2.259-1.908,4.599-3.694,7.018-5.344
		c16.874-11.543,37.368-16.832,57.895-14.74c-0.798,11.752-3.957,23.113-9.18,33.423c-3.908,7.731-8.979,14.874-15.059,21.173
		c-2.032,2.107-4.185,4.115-6.445,6.023l-47.883,40.434L498.534,199.143z"/>
	<polygon opacity="0.25" enable-background="new    " points="594.338,117.66 464.303,158.608 560.682,77.803 	"/>
	<polygon fill="#F2F2F2" points="464.303,158.608 451.74,143.746 482.419,117.838 505.781,123.582 	"/>
	<polygon opacity="0.25" enable-background="new    " points="464.303,158.608 451.74,143.746 482.419,117.838 505.781,123.582 	"/>
	<path fill="#333333" d="M445.349,143.207c0.143-1.695,0.954-3.265,2.253-4.363l30.68-25.907c1.569-1.323,3.676-1.818,5.671-1.328
		l23.36,5.743c2.344,0.577,4.165,2.418,4.715,4.767s-0.265,4.808-2.107,6.364l-41.478,35.026c-2.707,2.285-6.753,1.945-9.038-0.761
		l-12.562-14.862C445.744,146.585,445.207,144.903,445.349,143.207C445.349,143.209,445.349,143.208,445.349,143.207z
		 M484.063,124.848l-23.279,19.658l4.28,5.063l26.958-22.765L484.063,124.848z"/>
	<path fill="#333333" d="M492.14,198.604c0.139-1.636,0.899-3.22,2.253-4.363l41.479-35.025c1.844-1.558,4.405-1.948,6.629-1.011
		c2.225,0.937,3.734,3.042,3.909,5.449l1.736,23.992c0.149,2.049-0.69,4.04-2.257,5.362l-30.667,25.909
		c-1.301,1.098-2.982,1.634-4.681,1.491c-1.696-0.143-3.265-0.954-4.363-2.255l-12.548-14.875
		C492.489,201.927,492.003,200.239,492.14,198.604z M534.523,177.148l-26.951,22.76l4.274,5.066l23.268-19.658L534.523,177.148z"/>
	
		<rect x="475.004" y="152.347" transform="matrix(-0.764 0.6452 -0.6452 -0.764 964.6403 4.9305)" fill="#333333" width="12.829" height="53.056"/>
	<g id="XMLID_43_">
		<g>
			<path fill="#F24125" d="M594.338,117.66l-33.656-39.857c16.874-11.543,37.368-16.832,57.895-14.74
				c-0.798,11.752-3.957,23.113-9.18,33.424C605.489,104.218,600.418,111.361,594.338,117.66z"/>
		</g>
		<g>
			<path fill="#333333" d="M501.643,118.68l47.883-40.435c2.439-2.061,4.979-3.991,7.54-5.741
				c18.178-12.435,40.256-18.056,62.162-15.824c3.44,0.351,5.984,3.366,5.751,6.815c-0.862,12.593-4.172,24.66-9.857,35.888
				c-4.214,8.335-9.654,15.982-16.167,22.73c-2.15,2.229-4.479,4.405-6.921,6.468l-47.884,40.435l-8.277-9.802l47.882-40.435
				c2.109-1.781,4.114-3.656,5.966-5.575c5.621-5.825,10.316-12.423,13.953-19.615c3.93-7.761,6.549-15.991,7.813-24.541
				c-16.737-0.354-33.278,4.538-47.183,14.047c-2.208,1.507-4.394,3.173-6.501,4.952l-47.882,40.435L501.643,118.68z"/>
			
				<rect x="571.095" y="71.649" transform="matrix(-0.764 0.6452 -0.6452 -0.764 1081.7998 -200.1953)" fill="#333333" width="12.83" height="52.165"/>
		</g>
	</g>
	<path fill="#333333" d="M509.726,400.116c0.091-1.081,0.458-2.154,1.123-3.112c2.02-2.911,6.018-3.632,8.928-1.612l46.286,32.127
		c0.03,0.022,0.061,0.043,0.09,0.063c0.03,0.021,0.059,0.042,0.089,0.063l42.072,29.199c2.911,2.021,3.633,6.017,1.611,8.929
		l-37.311,53.756c-0.971,1.395-2.455,2.352-4.131,2.652c-1.676,0.305-3.401-0.072-4.796-1.04l-42.163-29.264
		c-2.908-2.022-3.633-6.018-1.611-8.929l33.651-48.483l-41.105-28.532C510.508,404.574,509.539,402.326,509.726,400.116z
		 M564.108,441.779l-29.994,43.212l31.62,21.949l29.994-43.215L564.108,441.779z"/>
	<g>
		<path fill="#20505B" d="M665.571,327.796l-0.041,0.034c-6.069-5.609-9.57-13.862-8.822-22.735s5.583-16.421,12.504-20.937
			l0.023,0.041c2.535-1.667,5.371-2.933,8.371-3.698c10.524,4.672,17.441,15.621,16.421,27.741
			c-1.021,12.12-9.678,21.769-20.846,24.586C670.35,331.573,667.791,329.864,665.571,327.796z"/>
		<path fill="#1AA5E2" d="M682.155,335.13c-3.184-0.269-6.209-1.064-8.974-2.302c11.168-2.817,19.824-12.466,20.846-24.586
			c1.021-12.12-5.896-23.068-16.421-27.741c2.921-0.745,6.021-1.025,9.219-0.754c15.291,1.289,26.646,14.723,25.356,30.027
			C710.891,325.064,697.443,336.42,682.155,335.13z"/>
		<path fill="#1AA5E2" d="M669.211,284.159c-6.921,4.515-11.756,12.063-12.504,20.937s2.753,17.126,8.822,22.735
			c-16.29,19.704-73.608,6.219-73.608,6.219c-0.326-2.693-0.589-5.381-0.775-8.074l0.002-0.014
			c-0.284-3.809-0.427-7.605-0.452-11.421c-0.011-4.455,0.132-8.91,0.468-13.337c0.045-0.537,0.091-1.087,0.138-1.624
			c0.046-0.55,0.09-1.087,0.136-1.624c0.413-4.433,1.015-8.837,1.772-13.228c0.665-3.755,1.442-7.488,2.361-11.196
			c0.632-2.625,1.343-5.243,2.114-7.831C597.685,265.701,656.454,262.005,669.211,284.159z"/>
		<path fill="#333333" d="M660.668,331.935l2.924-2.469l2.428-2.153l-0.498,0.442l3.961-5.046l0.434,0.416l0.023-0.025
			c1.734,1.615,3.7,2.915,5.842,3.866c2.184,0.977,4.502,1.569,6.91,1.772c11.745,0.991,22.106-7.759,23.097-19.503
			c0.99-11.744-7.759-22.105-19.504-23.095c-2.405-0.203-4.794-0.008-7.095,0.577c-2.284,0.583-4.448,1.539-6.433,2.843
			l-7.047-10.723c3.175-2.086,6.645-3.618,10.311-4.552c3.69-0.941,7.505-1.254,11.344-0.931
			c18.793,1.585,32.793,18.164,31.208,36.959c-1.585,18.793-18.165,32.794-36.958,31.209c-3.851-0.324-7.57-1.28-11.053-2.837
			c-3.401-1.509-6.532-3.574-9.294-6.129c-0.194-0.172-0.378-0.358-0.545-0.545l0.006-0.005
			C660.709,331.981,660.689,331.958,660.668,331.935z M670.322,323.496l-0.009,0.009L670.322,323.496z"/>
		<path fill="#333333" d="M675.003,286.365l5.205-11.727c13.312,5.911,21.435,19.631,20.211,34.143
			c-1.226,14.54-11.543,26.703-25.671,30.268l-3.137-12.442c8.817-2.225,15.257-9.82,16.022-18.903
			C688.4,298.635,683.322,290.058,675.003,286.365z"/>
		<path fill="#333333" d="M584.909,299.041l0.138-1.624c0.414-4.46,1.031-9.078,1.84-13.777c0.714-4.025,1.537-7.936,2.455-11.65
			c0.637-2.63,1.377-5.376,2.196-8.121c0.769-2.576,3.062-4.4,5.745-4.57c6.423-0.403,63.157-3.227,77.488,21.659
			c1.699,2.951,0.796,6.715-2.053,8.576c-5.557,3.623-9.061,9.493-9.62,16.103c-0.557,6.611,1.916,12.984,6.784,17.487
			c2.503,2.314,2.755,6.175,0.588,8.796c-18.296,22.136-73.756,9.85-80.019,8.377c-2.621-0.618-4.576-2.804-4.9-5.475
			c-0.354-2.935-0.619-5.684-0.806-8.408c-0.003-0.042-0.005-0.081-0.008-0.124c-0.276-3.779-0.432-7.718-0.459-11.705
			c-0.011-4.797,0.152-9.453,0.485-13.865l0.143-1.679H584.909z M602.604,271.897c-0.28,1.056-0.549,2.104-0.798,3.138
			c-0.857,3.471-1.622,7.096-2.279,10.809c-0.75,4.345-1.323,8.629-1.701,12.705l-0.27,3.192c-0.305,4.028-0.457,8.349-0.446,12.784
			c0.025,3.725,0.173,7.419,0.436,10.958c0.005,0.063,0.009,0.128,0.012,0.191c0.071,1.02,0.153,2.045,0.25,3.089
			c18.635,3.755,46.068,5.754,58.633-1.604c-4.615-6.508-6.814-14.444-6.127-22.604c0.689-8.161,4.186-15.616,9.828-21.259
			C648.985,273.937,621.604,271.315,602.604,271.897z"/>
		<path fill="#333333" d="M548.504,274.793c0.209-2.472,1.848-4.702,4.348-5.543c21.368-7.195,43.266-2.179,44.189-1.962
			c3.448,0.812,5.591,4.264,4.772,7.714c-0.811,3.447-4.261,5.584-7.706,4.776c-0.377-0.086-19.434-4.337-37.161,1.631
			c-3.358,1.13-6.997-0.675-8.128-4.033C548.532,276.518,548.433,275.641,548.504,274.793z"/>
		<path fill="#333333" d="M544.958,316.834c0.071-0.846,0.314-1.696,0.744-2.493c1.677-3.12,5.566-4.289,8.688-2.615
			c16.56,8.897,36.17,7.844,36.367,7.832c3.53-0.211,6.573,2.479,6.787,6.012c0.218,3.541-2.461,6.572-5.991,6.794
			c-0.945,0.059-23.377,1.338-43.236-9.334C545.994,321.782,544.751,319.306,544.958,316.834z"/>
		<path fill="#333333" d="M621.9,242.23c0.036-0.424,0.115-0.849,0.239-1.273c0.997-3.4,4.562-5.348,7.961-4.35
			c43.144,12.658,42.607,42.513,42.564,43.778c-0.135,3.563-3.094,6.311-6.636,6.188c-3.518-0.123-6.276-3.055-6.191-6.566
			c0.007-1.027-0.333-21.402-33.35-31.089C623.513,248.046,621.65,245.205,621.9,242.23z"/>
		<path fill="#333333" d="M611.714,363.009c0.251-2.978,2.562-5.463,5.643-5.826c34.318-4.049,37.952-24.221,38.09-25.078
			c0.472-3.511,3.694-5.935,7.207-5.464c3.512,0.471,5.962,3.688,5.499,7.252c-0.17,1.253-4.638,30.765-49.292,36.029
			c-3.52,0.415-6.708-2.1-7.122-5.618C611.684,363.867,611.677,363.431,611.714,363.009z"/>
		<path fill="#FFFFFF" d="M669.044,316.289c0.036-0.422,0.111-0.84,0.234-1.242c0.11-0.402,0.273-0.787,0.458-1.159
			c0.199-0.382,0.423-0.736,0.681-1.063c0.261-0.325,0.557-0.634,0.876-0.904c1.289-1.089,2.995-1.627,4.683-1.484
			c0.409,0.034,0.827,0.108,1.242,0.233c0.391,0.109,0.789,0.272,1.16,0.458c0.369,0.198,0.724,0.421,1.05,0.681
			c0.339,0.26,0.634,0.556,0.903,0.874c0.27,0.319,0.511,0.675,0.724,1.04c0.202,0.364,0.362,0.752,0.482,1.16
			c0.133,0.398,0.229,0.806,0.27,1.221c0.247,2.119-0.63,4.261-2.236,5.618c-0.319,0.269-0.662,0.511-1.04,0.725
			c-0.364,0.188-0.752,0.361-1.15,0.494c-0.396,0.122-0.816,0.216-1.219,0.258c-0.429,0.055-0.854,0.058-1.264,0.022
			c-0.422-0.035-0.84-0.107-1.241-0.232c-0.403-0.113-0.788-0.273-1.159-0.459c-0.384-0.199-0.735-0.436-1.063-0.682
			c-0.324-0.271-0.634-0.568-0.902-0.888c-0.271-0.317-0.512-0.661-0.712-1.038c-0.2-0.366-0.361-0.755-0.495-1.15
			c-0.121-0.396-0.214-0.815-0.258-1.219C669.013,317.123,669.01,316.699,669.044,316.289z"/>
		<path fill="#FFFFFF" d="M600.599,318.675c0.018-0.2,0.043-0.401,0.081-0.605c0.628-3.486,3.964-5.806,7.45-5.177
			c21.147,3.811,35.433,1.866,35.575,1.848c3.507-0.498,6.754,1.943,7.25,5.452c0.497,3.507-1.944,6.754-5.452,7.251
			c-0.664,0.092-16.491,2.246-39.646-1.924C602.572,324.93,600.325,321.936,600.599,318.675z"/>
	</g>
	<g>
		<path fill="#FCBC1D" d="M603,563.427c0.297-3.53,3.4-6.15,6.93-5.853l27.404,2.311c3.529,0.297,6.15,3.399,5.854,6.931
			c-0.299,3.533-3.402,6.152-6.932,5.854l-27.404-2.312C605.323,570.061,602.702,566.958,603,563.427z"/>
		<path fill="#FCBC1D" d="M615.545,578.284l2.311-27.403c0.298-3.529,3.402-6.148,6.934-5.853c3.528,0.298,6.149,3.399,5.852,6.932
			l-2.311,27.402c-0.298,3.533-3.401,6.152-6.933,5.854C617.869,584.917,615.248,581.815,615.545,578.284z"/>
	</g>
	<g>
		<path fill="#FCBC1D" d="M253.728,33.104c0.298-3.53,3.402-6.15,6.93-5.853l27.403,2.311c3.531,0.299,6.152,3.402,5.854,6.932
			c-0.298,3.53-3.402,6.15-6.933,5.853l-27.402-2.311C256.051,39.738,253.43,36.634,253.728,33.104z"/>
		<path fill="#FCBC1D" d="M266.273,47.96l2.312-27.401c0.298-3.53,3.402-6.151,6.931-5.854c3.53,0.298,6.151,3.401,5.854,6.932
			l-2.311,27.401c-0.298,3.53-3.402,6.151-6.933,5.854C268.597,54.594,265.976,51.491,266.273,47.96z"/>
	</g>
</g>
</svg>
