<?xml version="1.0" encoding="utf-8"?>
<!-- Generator: Adobe Illustrator 16.0.0, SVG Export Plug-In . SVG Version: 6.00 Build 0)  -->
<!DOCTYPE svg PUBLIC "-//W3C//DTD SVG 1.1//EN" "http://www.w3.org/Graphics/SVG/1.1/DTD/svg11.dtd">
<svg version="1.1" id="icon_javascript" xmlns="http://www.w3.org/2000/svg" xmlns:xlink="http://www.w3.org/1999/xlink" viewBox="0 0 612 792" enable-background="new 0 0 612 792" xml:space="preserve">
<path fill="#2DE0C7" d="M511.528,171.062c0,40.939-33.184,74.124-74.123,74.124c-40.935,0-74.123-33.184-74.123-74.124
	c0-40.935,33.188-74.123,74.123-74.123C478.344,96.938,511.528,130.127,511.528,171.062z"/>
<path fill="#00C2CC" d="M511.524,171.062c0,40.939-33.185,74.119-74.124,74.119c-5.822,0-11.472-0.668-16.902-1.938
	c32.787-7.658,57.207-37.064,57.207-72.181c0-35.122-24.42-64.523-57.207-72.186c5.431-1.27,11.08-1.938,16.902-1.938
	C478.339,96.938,511.524,130.122,511.524,171.062z"/>
<path fill="#E667F9" d="M553.583,393.983c0,132.993-107.802,240.808-240.795,240.808c-73.979,0-140.159-33.361-184.33-85.856
	c-26.521-31.521-45.108-69.949-52.678-112.182c-1.088-6.084-1.956-12.252-2.567-18.481c-0.813-7.984-1.219-16.085-1.219-24.289
	c0-13.387,1.088-26.512,3.188-39.287c0.98-5.953,2.167-11.822,3.586-17.622c25.56-105.51,120.634-183.887,234.02-183.887
	c33.698,0,65.78,6.92,94.896,19.415c8.736,3.75,17.211,8.008,25.387,12.728c18.173,10.506,34.847,23.309,49.619,38.021
	c4.697,4.674,9.203,9.539,13.509,14.596c26.772,31.438,45.613,69.856,53.392,112.135
	C552.21,364.314,553.583,378.995,553.583,393.983z"/>
<path fill="#D82FEA" d="M496.199,237.948c-1.448,1.35-3.362,2.237-5.486,2.391c-0.131,0.014-17.164,1.448-44.923,12.957
	c-25.685,10.65-66.05,32.334-112.536,75.188c-1.724,1.587-3.899,2.376-6.075,2.376c-2.414,0-4.828-0.966-6.598-2.89
	c-3.348-3.637-3.119-9.315,0.514-12.663c78.615-72.471,141.406-88.523,161.596-91.955
	C487.388,228.026,491.894,232.891,496.199,237.948z"/>
<path fill="#D82FEA" d="M285.68,373.214c-2.125,0-4.254-0.747-5.963-2.27c-3.698-3.292-4.024-8.96-0.733-12.658
	c5.809-6.513,11.734-12.91,17.617-19.008c3.437-3.563,9.114-3.665,12.677-0.224c3.563,3.437,3.665,9.114,0.224,12.677
	c-5.72,5.925-11.481,12.145-17.126,18.485C290.601,372.201,288.145,373.214,285.68,373.214z"/>
<path fill="#D82FEA" d="M553.583,393.987c0,132.988-107.802,240.804-240.795,240.804c-7.073,0-14.091-0.308-21.011-0.905
	c123.126-10.664,219.746-113.998,219.746-239.898c0-14.993-1.378-29.668-3.992-43.904
	c-19.392-105.286-107.279-186.59-215.754-195.984c6.92-0.598,13.938-0.911,21.011-0.911c118,0,216.175,84.881,236.803,196.895
	C552.21,364.319,553.583,378.995,553.583,393.987z"/>
<path fill="#D82FEA" d="M192.758,428.255c-28.954,8.376-57.053,10.734-79.479,10.734c-15.945,0-29.024-1.195-37.499-2.236
	c-1.088-6.084-1.956-12.252-2.567-18.481c6.98,1.004,21.492,2.689,40.15,2.689c21.123,0,47.551-2.162,74.408-9.932
	c4.758-1.363,9.73,1.373,11.103,6.131C200.252,421.919,197.511,426.882,192.758,428.255z"/>
<path fill="#2DE0C7" d="M553.583,393.987c0,22.328-3.035,43.938-8.722,64.449c-28.174,101.699-121.408,176.354-232.073,176.354
	c-7.073,0-14.091-0.299-21.011-0.905c-17.192-1.485-33.852-4.781-49.82-9.693c-44.814-13.76-84.045-40.258-113.499-75.258
	c54.341-72.246,135.323-133.339,252.179-135.407c53.774-0.957,96.629-15.301,130.373-35.261
	c14.483-8.559,27.301-18.154,38.581-28.183C552.21,364.319,553.583,378.995,553.583,393.987z"/>
<path fill="#00C2CC" d="M553.583,393.987c0,22.328-3.035,43.938-8.722,64.449c-28.174,101.699-121.408,176.354-232.073,176.354
	c-7.073,0-14.091-0.299-21.011-0.905c123.126-10.664,219.746-113.998,219.746-239.898c0-5.286-0.169-10.52-0.514-15.721
	c14.483-8.559,27.301-18.154,38.581-28.183C552.21,364.319,553.583,378.995,553.583,393.987z"/>
<path fill="#7E18EA" d="M544.862,458.437c-2.442,8.797-5.37,17.401-8.75,25.76c-2.405,5.953-5.048,11.785-7.915,17.486
	c-39.506,78.928-121.132,133.108-215.408,133.108c-7.073,0-14.091-0.299-21.011-0.905c-17.192-1.485-33.852-4.781-49.82-9.698
	c24.813-10.622,51.684-29.341,70.831-62.319c35.79-61.656,104.949-97.814,189.947-103.217
	C516.389,457.769,530.457,457.693,544.862,458.437z"/>
<path fill="#5100CB" d="M544.862,458.437c-28.174,101.699-121.408,176.354-232.073,176.354c-7.073,0-14.091-0.299-21.011-0.905
	c101.219-8.765,184.517-80.161,210.958-175.234C516.389,457.769,530.457,457.693,544.862,458.437z"/>
<path fill="#C5EE09" d="M569.827,182.847c-7.686,18.49-21.44,41.892-40.879,69.552c-39.482,56.18-98.407,124.313-165.919,191.825
	c-67.512,67.525-135.645,126.441-191.839,165.934c-27.655,19.438-51.048,33.184-69.542,40.869
	c-11.557,4.805-21.203,7.204-29.057,7.204c-7.434,0-13.256-2.147-17.57-6.467c-16.748-16.743-0.649-58.22,49.209-126.819
	c1.134-1.569,2.689-2.657,4.397-3.218c3.073,4.903,6.313,9.67,9.708,14.321c-53,73.035-54.532,99.141-50.647,103.034
	c3.586,3.577,27.292,2.713,93.202-43.591c55.367-38.918,122.65-97.134,189.457-163.94
	c66.802-66.802,125.026-134.099,163.935-189.466c46.318-65.896,47.178-89.611,43.605-93.188
	c-3.922-3.922-30.074-2.316-103.049,50.633c-4.958-3.633-10.053-7.074-15.287-10.3c0.584-0.896,1.341-1.7,2.246-2.367
	c69.734-50.983,111.86-67.549,128.763-50.646C579.427,145.087,579.189,160.336,569.827,182.847z"/>
<path fill="#EDFF85" d="M570.561,651.764c-4.319,4.319-10.137,6.467-17.575,6.467c-7.854,0-17.5-2.399-29.042-7.204
	c-18.504-7.686-41.896-21.432-69.558-40.869c-56.193-39.492-124.312-98.408-191.838-165.934
	c-67.507-67.512-126.437-135.645-165.919-191.825c-19.434-27.66-33.193-51.062-40.879-69.552c-9.362-22.51-9.6-37.76-0.729-46.631
	c16.683-16.697,58.02-0.719,126.32,48.863c1.732,1.27,2.881,3.026,3.395,4.949c-4.781,3.002-9.455,6.182-13.998,9.516
	c-73.06-53.023-99.15-54.541-103.05-50.647c-3.571,3.577-2.698,27.292,43.606,93.188c38.908,55.367,97.133,122.664,163.939,189.466
	c66.802,66.807,134.09,125.022,189.457,163.94c65.905,46.304,89.61,47.168,93.196,43.591c3.923-3.917,2.321-30.074-50.655-103.049
	c3.632-4.944,7.073-10.053,10.313-15.272c0.896,0.561,1.709,1.312,2.377,2.231C570.906,592.74,587.472,634.853,570.561,651.764z"/>
<path fill="#9BF2E5" d="M120.946,426.34c0,22.837-18.513,41.351-41.35,41.351c-22.842,0-41.355-18.514-41.355-41.351
	c0-22.836,18.514-41.35,41.355-41.35C102.433,384.99,120.946,403.504,120.946,426.34z"/>
<g>
	<path fill="#2DE0C7" d="M120.942,426.345c0,22.828-18.514,41.346-41.346,41.346c-4.291,0-8.438-0.658-12.336-1.867
		c16.809-5.258,29-20.951,29-39.479c0-18.541-12.191-34.234-29-39.497c3.898-1.205,8.045-1.863,12.336-1.863
		C102.428,384.985,120.942,403.498,120.942,426.345z"/>
	<path fill="#2DE0C7" d="M202.223,113.402c-0.015,0-0.028,0-0.042,0c-4.954-0.023-8.946-4.058-8.923-9.007l0.014-3.128
		c0.023-4.949,4.029-8.923,9.007-8.923c4.949,0.023,8.946,4.058,8.923,9.007l-0.014,3.128
		C211.159,109.415,207.154,113.402,202.223,113.402z"/>
	<path fill="#2DE0C7" d="M202.124,145.241c-0.019,0-0.032,0-0.047,0c-4.949-0.023-8.945-4.058-8.923-9.007l0.02-3.128
		c0.022-4.954,4.015-8.965,9.007-8.923c4.949,0.023,8.945,4.058,8.923,9.011l-0.02,3.128
		C211.061,141.258,207.055,145.241,202.124,145.241z"/>
	<path fill="#2DE0C7" d="M219.662,127.815c-0.015,0-0.028,0-0.042,0l-3.129-0.019c-4.949-0.023-8.946-4.053-8.923-9.002
		c0.023-4.94,4.034-8.928,8.965-8.928h0.042l3.129,0.019c4.949,0.023,8.945,4.053,8.923,9.007
		C228.604,123.828,224.593,127.815,219.662,127.815z"/>
	<path fill="#2DE0C7" d="M187.823,127.718c-0.014,0-0.027,0-0.042,0l-3.128-0.019c-4.954-0.023-8.946-4.058-8.923-9.007
		c0.023-4.935,4.034-8.922,8.965-8.922h0.042l3.133,0.019c4.949,0.023,8.941,4.058,8.918,9.007
		C196.764,123.73,192.753,127.718,187.823,127.718z"/>
	<path fill="#2DE0C7" d="M26.493,497.27c-0.02,0-0.033,0-0.047,0c-4.949-0.027-8.946-4.062-8.923-9.011l0.019-3.129
		c0.023-4.936,4.034-8.918,8.965-8.918h0.042c4.954,0.023,8.946,4.058,8.923,9.007l-0.019,3.128
		C35.43,493.282,31.419,497.27,26.493,497.27z"/>
	<path fill="#2DE0C7" d="M26.395,529.109c-0.014,0-0.028,0-0.042,0c-4.954-0.023-8.946-4.058-8.923-9.007l0.014-3.129
		c0.023-4.939,4.03-8.923,8.961-8.923h0.047c4.949,0.023,8.941,4.053,8.922,9.007l-0.014,3.129
		C35.331,525.121,31.325,529.109,26.395,529.109z"/>
	<path fill="#2DE0C7" d="M43.933,511.679c-0.015,0-0.028,0-0.043,0l-3.128-0.014c-4.949-0.023-8.946-4.058-8.923-9.007
		s4.048-8.96,9.007-8.923l3.129,0.014c4.949,0.023,8.945,4.058,8.923,9.007C52.874,507.691,48.864,511.679,43.933,511.679z"/>
	<path fill="#2DE0C7" d="M12.093,511.581c-0.014,0-0.028,0-0.042,0l-3.128-0.014c-4.954-0.023-8.946-4.058-8.923-9.012
		c0.023-4.936,4.034-8.918,8.965-8.918h0.042l3.128,0.014c4.954,0.023,8.946,4.058,8.923,9.012
		C21.034,507.598,17.024,511.581,12.093,511.581z"/>
	<path fill="#2DE0C7" d="M585.595,514.751c-0.014,0-0.027,0-0.042,0c-4.954-0.023-8.946-4.058-8.928-9.007l0.02-3.128
		c0.023-4.949,4.011-8.918,9.007-8.923c4.949,0.023,8.941,4.058,8.923,9.007l-0.02,3.128
		C594.536,510.764,590.526,514.751,585.595,514.751z"/>
	<path fill="#2DE0C7" d="M585.497,546.591c-0.019,0-0.033,0-0.047,0c-4.949-0.023-8.946-4.058-8.923-9.007l0.019-3.129
		c0.023-4.954,4.091-8.988,9.007-8.923c4.954,0.023,8.946,4.058,8.923,9.012l-0.019,3.128
		C594.434,542.607,590.423,546.591,585.497,546.591z"/>
	<path fill="#2DE0C7" d="M603.034,529.165c-0.014,0-0.027,0-0.042,0l-3.128-0.014c-4.949-0.028-8.946-4.058-8.923-9.007
		c0.023-4.94,4.034-8.923,8.965-8.923h0.042l3.128,0.014c4.949,0.023,8.946,4.053,8.923,9.007
		C611.976,525.178,607.965,529.165,603.034,529.165z"/>
	<path fill="#2DE0C7" d="M571.196,529.067c-0.014,0-0.028,0-0.042,0l-3.129-0.02c-4.953-0.022-8.945-4.057-8.923-9.007
		c0.023-4.935,4.035-8.923,8.965-8.923h0.043l3.128,0.02c4.954,0.023,8.946,4.057,8.923,9.007
		C580.137,525.079,576.126,529.067,571.196,529.067z"/>
</g>
<path fill="#00C2CC" d="M170.687,658.235c-0.014,0-0.028,0-0.042,0h-0.126c-4.954-0.023-8.946-4.058-8.923-9.007
	c0.023-4.936,4.029-8.923,8.965-8.923h0.042h0.126c4.949,0.023,8.946,4.053,8.923,9.007
	C179.628,654.248,175.617,658.235,170.687,658.235z"/>
<path fill="#00C2CC" d="M213.372,674.773h-0.126c-4.949,0-8.965-4.016-8.965-8.965s4.016-8.965,8.965-8.965h0.126
	c4.949,0,8.965,4.016,8.965,8.965S218.322,674.773,213.372,674.773z"/>
<path fill="#00C2CC" d="M332.534,129.095c-0.014,0-0.023,0-0.037,0h-0.131c-4.949-0.023-8.946-4.058-8.923-9.007
	c0.023-4.954,4.063-8.979,9.007-8.923h0.126c4.954,0.023,8.946,4.053,8.923,9.007C341.476,125.107,337.47,129.095,332.534,129.095z"
	/>
<path fill="#00C2CC" d="M549.035,110.273c-0.014,0-0.028,0-0.042,0h-0.126c-4.949-0.023-8.946-4.058-8.923-9.007
	c0.023-4.935,4.034-8.923,8.965-8.923h0.042h0.126c4.954,0.023,8.946,4.058,8.923,9.007
	C557.977,106.291,553.966,110.273,549.035,110.273z"/>
<path fill="#00C2CC" d="M571.261,123.516c-0.015,0-0.028,0-0.042,0h-0.126c-4.954-0.023-8.946-4.058-8.923-9.007
	c0.023-4.94,4.029-8.922,8.96-8.922h0.047h0.126c4.949,0.023,8.946,4.053,8.923,9.007
	C580.202,119.528,576.192,123.516,571.261,123.516z"/>
<path fill="#00C2CC" d="M46.277,364.6c-0.015,0-0.028,0-0.042,0h-0.126c-4.954-0.023-8.946-4.058-8.923-9.007
	c0.023-4.94,4.029-8.923,8.965-8.923h0.042h0.126c4.949,0.019,8.946,4.053,8.923,9.007C55.218,360.612,51.207,364.6,46.277,364.6z"
	/>
<path fill="#7E18EA" d="M293.655,264.17c0-18.103-23.149-32.773-51.697-32.773c-28.552,0-51.697,14.67-51.697,32.773
	c0,18.098,23.146,32.769,51.697,32.769C270.505,296.938,293.655,282.268,293.655,264.17z"/>
<path fill="#5100CB" d="M190.26,264.175c0-18.112,23.141-32.778,51.697-32.778c28.174,0,51.1,14.283,51.688,32.073
	c-9.432-7.952-24.434-13.088-41.336-13.088c-28.543,0-51.697,14.666-51.697,32.773c0,0.229,0,0.467,0.014,0.696
	C194.121,278.374,190.26,271.562,190.26,264.175z"/>
<path fill="#D82FEA" d="M433.072,185.331c-1.326,1.172-2.998,1.961-4.889,2.176c-58.963,6.751-101.326,38.726-101.741,39.048
	c-1.63,1.247-3.554,1.844-5.454,1.844c-2.689,0-5.355-1.195-7.12-3.502c-3.003-3.922-2.274-9.539,1.648-12.565
	c1.686-1.289,38.096-28.902,92.169-39.73C416.421,176.352,424.896,180.61,433.072,185.331z"/>
<path fill="#D82FEA" d="M137.928,355.271c-0.322,4.73-4.268,8.353-8.941,8.353c-0.206,0-0.406-0.014-0.612-0.023
	c-25.914-1.755-46.603-7.064-53.191-8.904c0.98-5.953,2.167-11.822,3.586-17.622c1.556,0.458,6.766,1.915,14.489,3.553
	c9.202,1.933,21.968,4.123,36.326,5.089C134.519,346.054,138.264,350.321,137.928,355.271z"/>
<path fill="#5100CB" d="M536.112,484.196c-2.405,5.953-5.048,11.785-7.915,17.486c-13.76,0.92-53.359,4.184-71.527,12.289
	c-1.186,0.537-2.428,0.789-3.646,0.789c-3.432,0-6.705-1.984-8.189-5.323c-2.017-4.529,0.014-9.823,4.543-11.846
	c25.148-11.211,80.445-13.993,82.775-14.114C533.553,483.416,534.902,483.669,536.112,484.196z"/>
</svg>
