<?xml version="1.0" encoding="utf-8"?>
<!-- Generator: Adobe Illustrator 16.0.0, SVG Export Plug-In . SVG Version: 6.00 Build 0)  -->
<!DOCTYPE svg PUBLIC "-//W3C//DTD SVG 1.1//EN" "http://www.w3.org/Graphics/SVG/1.1/DTD/svg11.dtd">
<svg version="1.1" id="icon_design" xmlns="http://www.w3.org/2000/svg" xmlns:xlink="http://www.w3.org/1999/xlink" viewBox="0 0 612 792" enable-background="new 0 0 612 792" xml:space="preserve">
<path fill="#FFC269" d="M493.547,336.776c0,66.275-26.129,126.451-68.646,170.785c-44.913,46.832-108.115,62.559-178.129,62.559
	c-136.289,0-235.22-97.054-235.22-233.343c0-83.27,29.687-156.903,92.855-201.592C144.633,106.72,193.752,90,246.776,90
	C383.065,90,493.547,200.487,493.547,336.776z"/>
<path fill="#FFA95F" d="M269.819,582.427c6.653-0.616,13.219-1.513,19.704-2.647c0.522-0.094,1.046-0.191,1.568-0.289
	c52.127-9.475,98.604-35.229,133.805-71.934c-19.531-14.199-43.545-22.716-69.543-22.716c-28.767,0-55.073,10.3-75.552,27.38
	c-7.237,6.032-16.729,8.535-25.941,6.556C142.615,494.842,59.224,395.949,59.224,277.547c0-53.019,16.734-102.134,45.188-142.359
	C41.243,179.877,0,253.506,0,336.776c0,133.585,106.163,242.303,238.712,246.571c2.681,0.084,5.355,0.2,8.063,0.2
	c6.836,0,13.583-0.359,20.274-0.905C267.974,582.566,268.899,582.511,269.819,582.427z"/>
<path fill="#C3DDFF" d="M454.065,603.289c0,17.107-4.352,33.197-12.01,47.224c-16.743,30.677-49.292,43.718-86.702,43.718
	c-54.513,0-89.993-36.425-89.993-90.941c0-37.415,12.107-69.973,42.793-86.712c14.021-7.648,30.102-11.995,47.2-11.995
	C409.87,504.582,454.065,548.776,454.065,603.289z"/>
<path fill="#A4CCFF" d="M394.84,662.518c-54.518,0-98.711-44.194-98.711-98.712c0-17.103,4.365-33.207,12.019-47.233
	c-5.416,2.956-10.524,6.406-15.264,10.286c-2.428,1.989-0.569,9.848-2.797,12.057c-2.451,2.433-8.97-0.771-11.159,1.904
	c-13.924,17.02-22.281,38.773-22.281,62.47c0,54.517,44.193,98.711,98.706,98.711c37.414,0,69.964-20.806,86.702-51.487
	C428.029,658.166,411.944,662.518,394.84,662.518z"/>
<path fill="#FF9A9F" d="M612,499.646c0,7.177-1.7,13.952-4.721,19.951c-7.313,14.513-21.853,21.334-39.207,21.334
	c-24.532,0-41.238-16.753-41.238-41.285c0-17.36,6.284-32.39,20.796-39.697c5.995-3.021,12.775-4.726,19.952-4.726
	C592.114,455.224,612,475.114,612,499.646z"/>
<path fill="#FFE07D" d="M128.323,336.776c0,10.903-8.839,19.742-19.741,19.742c-10.903,0-19.741-8.839-19.741-19.742
	c0-10.902,8.838-19.741,19.741-19.741C119.485,317.035,128.323,325.874,128.323,336.776z"/>
<path fill="#FFE07D" d="M246.772,474.97c0,10.902-8.839,19.741-19.742,19.741c-10.902,0-19.741-8.839-19.741-19.741
	s8.839-19.741,19.741-19.741C237.933,455.229,246.772,464.067,246.772,474.97z"/>
<path fill="#FFE07D" d="M216.24,243.416c-10.65-4.917-19.251-13.522-24.173-24.172c-1.778-3.852-7.26-3.852-9.039,0
	c-4.917,10.65-13.518,19.256-24.173,24.172c-3.852,1.779-3.852,7.261,0,9.04c10.655,4.917,19.256,13.522,24.173,24.172
	c1.779,3.852,7.261,3.852,9.039,0c4.922-10.655,13.522-19.256,24.173-24.172C220.096,250.676,220.096,245.194,216.24,243.416z"/>
<path fill="#FFE07D" d="M386.604,411.353c-7.274-3.759-13.232-9.712-16.991-16.987c-1.816-3.516-6.957-3.516-8.773,0
	c-3.763,7.275-9.716,13.228-16.991,16.987c-3.511,1.815-3.511,6.957,0,8.778c7.275,3.758,13.229,9.712,16.991,16.986
	c1.816,3.516,6.957,3.516,8.773,0c3.759-7.274,9.717-13.229,16.991-16.986C390.115,418.314,390.115,413.168,386.604,411.353z"/>
<g>
	<path fill="#FFA95F" d="M236.906,366.388h-9.871v-9.871c0-5.458-4.417-9.871-9.87-9.871c-5.459,0-9.871,4.413-9.871,9.871v9.871
		h-9.875c-5.454,0-9.871,4.417-9.871,9.871s4.417,9.871,9.871,9.871h9.875V396c0,5.459,4.412,9.871,9.871,9.871
		c5.453,0,9.87-4.418,9.87-9.871v-9.871h9.871c5.453,0,9.87-4.417,9.87-9.871S242.359,366.388,236.906,366.388z"/>
	<path fill="#FFA95F" d="M362.333,211.343c-3.856-3.856-10.104-3.856-13.956,0l-7.83,7.826l-7.825-7.826
		c-3.857-3.856-10.104-3.856-13.957,0c-3.856,3.857-3.856,10.104,0,13.956l7.826,7.831l-7.826,7.826
		c-3.856,3.856-3.856,10.104,0,13.956c1.929,1.928,4.455,2.895,6.98,2.895c2.526,0,5.048-0.967,6.977-2.895l7.83-7.826l7.825,7.826
		c1.929,1.928,4.454,2.895,6.98,2.895s5.052-0.967,6.98-2.895c3.853-3.857,3.853-10.1,0-13.956l-7.83-7.826l7.83-7.831
		C366.191,221.447,366.191,215.2,362.333,211.343z"/>
	<path fill="#FFA95F" d="M270.93,150.265l-19.741-9.871c-4.87-2.428-10.805-0.462-13.247,4.417
		c-2.438,4.879-0.462,10.805,4.417,13.247l19.741,9.871c1.42,0.705,2.923,1.041,4.408,1.041c3.623,0,7.102-1.998,8.839-5.458
		C277.784,158.632,275.809,152.707,270.93,150.265z"/>
	<path fill="#FFA95F" d="M438.736,308.201c-4.875-2.419-10.795-0.462-13.242,4.417l-9.87,19.741
		c-2.442,4.879-0.467,10.805,4.412,13.247c1.419,0.705,2.923,1.041,4.407,1.041c3.624,0,7.103-1.998,8.839-5.458l9.871-19.741
		C445.59,316.568,443.615,310.643,438.736,308.201z"/>
</g>
<path fill="#FF8B5A" d="M97.67,440.941c-2.438-4.88-8.367-6.836-13.246-4.418c-4.88,2.438-6.854,8.367-4.418,13.247l9.871,19.741
	c1.737,3.46,5.216,5.458,8.844,5.458c1.479,0,2.988-0.341,4.402-1.041c4.88-2.442,6.854-8.367,4.417-13.246L97.67,440.941z"/>
<path fill="#FFA95F" d="M95.817,254.916c3.856-3.857,3.856-10.104,0-13.961c-3.857-3.853-10.1-3.853-13.956,0l-9.871,9.875
	c-3.856,3.852-3.856,10.1,0,13.957c1.929,1.928,4.454,2.89,6.98,2.89s5.048-0.962,6.976-2.89L95.817,254.916z"/>
<path fill="#D6BDEF" d="M394.84,652.646c-2.525,0-5.052-0.966-6.98-2.895l-9.87-9.871c-3.856-3.852-3.856-10.1,0-13.956
	s10.104-3.856,13.956,0l9.871,9.871c3.856,3.856,3.856,10.104,0,13.956C399.888,651.681,397.362,652.646,394.84,652.646z"/>
<path fill="#D6BDEF" d="M362.333,655.537l-49.354-49.354c-2.339-2.339-5.561-3.259-8.591-2.76l-2.572,12.065l48.508,51.151
	l13.563-9.087C363.468,656.835,362.949,656.153,362.333,655.537z"/>
<path fill="#D6BDEF" d="M384.97,583.547c-2.526,0-5.053-0.961-6.98-2.89l-29.612-29.612c-3.856-3.856-3.856-10.104,0-13.961
	c3.856-3.852,10.1-3.852,13.956,0l29.612,29.617c3.856,3.852,3.856,10.1,0,13.956C390.017,582.586,387.491,583.547,384.97,583.547z"
	/>
<path fill="#D6BDEF" d="M300.556,534.53c-9.722,5.953-4.272,23.649-4.272,23.649l52.089,52.09c1.929,1.928,4.455,2.89,6.98,2.89
	c2.526,0,5.053-0.962,6.98-2.89c3.857-3.857,3.857-10.104,0-13.961L300.556,534.53z"/>
<path fill="#C3AFF0" d="M296.283,558.18c0.453-8.213,1.928-16.09,4.272-23.649l-7.681-7.676c-5.108,4.179-9.769,8.857-13.947,13.965
	L296.283,558.18z"/>
<path fill="#FF8086" d="M587.323,524.323c-24.532,0-44.418-19.886-44.418-44.418c0-7.162,1.718-13.961,4.725-19.951
	c-14.53,7.298-24.467,22.318-24.467,39.692c0,24.532,19.887,44.418,44.419,44.418c17.369,0,32.39-9.936,39.692-24.467
	C601.283,522.605,594.481,524.323,587.323,524.323z"/>
<path fill="#C3AFF0" d="M362.333,669.493c3.315-3.315,3.945-8.134,1.56-11.943c-26.432-8.839-48.354-28.847-59.504-54.131
	c-2.008,0.309-3.819,1.215-5.369,2.765c-3.857,3.853-3.857,10.1,0,13.956l49.353,49.354c1.929,1.929,4.455,2.891,6.98,2.891
	C357.879,672.388,360.406,671.422,362.333,669.493z"/>
</svg>
