<?xml version="1.0" encoding="utf-8"?>
<!-- Generator: Adobe Illustrator 16.0.0, SVG Export Plug-In . SVG Version: 6.00 Build 0)  -->
<!DOCTYPE svg PUBLIC "-//W3C//DTD SVG 1.1//EN" "http://www.w3.org/Graphics/SVG/1.1/DTD/svg11.dtd">
<svg version="1.1" id="icon_moon" xmlns="http://www.w3.org/2000/svg" xmlns:xlink="http://www.w3.org/1999/xlink" viewBox="0 0 612 792" enable-background="new 0 0 612 792" xml:space="preserve">
<g>
	<polyline fill="#F24125" points="403.316,289.598 458.622,193.587 516.914,227.166 490.578,272.886 432.286,239.307 	"/>
	<path fill="#FCBC1D" d="M468.099,311.045c21.131,21.105,38.107,46.378,49.544,74.5c10.645,26.17,16.501,54.794,16.501,84.776
		c0,16.224-1.715,32.053-4.986,47.301c-9.392,43.951-31.617,83.141-62.576,113.466c-14.944,14.654-31.947,27.251-50.52,37.289
		c-31.829,17.24-68.274,27.027-107.002,27.027c-3.772,0-7.519-0.092-11.238-0.276c-70.266-3.456-132.051-39.137-170.91-92.559
		c-27.001-37.131-42.935-82.837-42.935-132.248c0-2.467,0.039-4.921,0.118-7.374c1.623-50.493,19.892-96.792,49.478-133.581
		c37.87-47.09,94.313-78.616,158.195-83.47c5.711-0.435,11.475-0.659,17.292-0.659c50.665,0,97.412,16.739,135.032,44.979
		C452.586,296.588,460.607,303.553,468.099,311.045z"/>
	<path opacity="0.25" enable-background="new    " d="M328.328,683.156c-26.328-9.3-50.414-23.374-71.202-41.168
		c-48.265-41.286-78.854-102.623-78.854-171.108c0-60.729,24.06-115.853,63.157-156.334c21.54-22.306,47.644-40.179,76.808-52.103
		c12.162-4.966,24.859-8.888,37.974-11.683c-15.208-3.242-30.976-4.963-47.149-4.963c-30.128,0-58.856,5.922-85.119,16.646
		c-29.164,11.924-55.269,29.797-76.809,52.103c-39.097,40.481-63.156,95.604-63.156,156.334c0,68.485,30.589,129.822,78.854,171.108
		c20.788,17.794,44.874,31.868,71.202,41.168c23.466,8.297,48.727,12.808,75.028,12.808c16.165,0,31.932-1.715,47.135-4.954
		C346.671,688.979,337.365,686.351,328.328,683.156z"/>
	<g>
		<path opacity="0.25" enable-background="new    " d="M414.701,417.427c-3.221-15.659,1.512-30.518,10.932-37.659
			c2.565-1.934,5.474-3.306,8.67-3.969c14.936-3.065,30.343,10.595,34.439,30.52c4.086,19.914-4.676,38.549-19.61,41.614
			c-4.775,0.992-9.624,0.252-14.104-1.852C425.494,441.606,417.494,430.966,414.701,417.427z"/>
		<path fill="#FCBC1D" d="M414.701,417.427c-3.221-15.659,1.512-30.518,10.932-37.659c9.532,4.476,17.555,15.121,20.325,28.655
			c3.221,15.66-1.512,30.518-10.931,37.659C425.494,441.606,417.494,430.966,414.701,417.427z"/>
		<path fill="#333333" d="M444.895,454.965c-4.258,0-8.558-0.98-12.672-2.913c-3.296-1.549-4.713-5.477-3.164-8.772
			c1.548-3.298,5.478-4.713,8.772-3.166c3.313,1.557,6.757,2.03,9.959,1.364c5.149-1.057,9.519-4.907,12.313-10.842
			c3.098-6.577,3.871-14.741,2.178-22.988c-3.3-16.048-15.508-27.678-26.652-25.387c-2.143,0.444-4.175,1.38-6.025,2.775
			c-7.668,5.813-11.067,18.3-8.441,31.063c0.735,3.567-1.564,7.056-5.132,7.789c-3.58,0.736-7.056-1.566-7.788-5.132
			c-3.683-17.911,1.579-35.276,13.407-44.242c3.434-2.588,7.234-4.324,11.313-5.17c18.476-3.793,37.419,12.201,42.238,35.65
			c2.263,11.022,1.139,22.125-3.164,31.263c-4.61,9.788-12.273,16.23-21.58,18.14C448.625,454.774,446.764,454.965,444.895,454.965z
			"/>
	</g>
	<g>
		<path fill="#FFFFFF" d="M469.547,369.173c-2.167,0-4.288-1.065-5.55-3.022c-8.368-12.979-18.306-24.958-29.537-35.601
			c-2.644-2.506-2.756-6.68-0.249-9.325c2.502-2.642,6.68-2.755,9.322-0.25c11.997,11.369,22.611,24.164,31.55,38.028
			c1.973,3.062,1.092,7.144-1.97,9.118C472.01,368.833,470.771,369.173,469.547,369.173z"/>
		<path fill="#FFFFFF" d="M438.057,621.623c-1.762,0-3.519-0.701-4.817-2.089c-2.488-2.661-2.349-6.834,0.311-9.322
			c38.747-36.25,60.971-87.373,60.971-140.259c0-11.521-1.031-23.063-3.067-34.311c-0.648-3.584,1.732-7.016,5.314-7.665
			c3.572-0.652,7.016,1.73,7.665,5.314c2.176,12.02,3.278,24.354,3.278,36.659c0,56.523-23.746,111.157-65.149,149.893
			C441.291,621.034,439.672,621.623,438.057,621.623z"/>
		<path fill="#FFFFFF" d="M410.316,643.338c-2.159,0-4.274-1.06-5.538-3.005c-1.982-3.055-1.115-7.141,1.941-9.123
			c3.369-2.187,6.709-4.506,9.926-6.894c2.927-2.171,7.057-1.559,9.227,1.367c2.172,2.926,1.56,7.057-1.366,9.227
			c-3.438,2.553-7.007,5.029-10.604,7.364C412.792,642.993,411.547,643.338,410.316,643.338z"/>
	</g>
	<path fill="#333333" d="M309.06,702C181.312,702,77.381,598.069,77.381,470.321c0-127.749,103.931-231.68,231.679-231.68
		s231.68,103.931,231.68,231.68C540.74,598.069,436.808,702,309.06,702z M309.06,251.833c-120.475,0-218.488,98.014-218.488,218.489
		c0,120.475,98.014,218.488,218.488,218.488s218.488-98.014,218.488-218.488C527.548,349.846,429.534,251.833,309.06,251.833z"/>
	<path opacity="0.25" enable-background="new    " d="M346.67,478.923c0,23.598-19.14,42.737-42.737,42.737
		c-4.63,0-9.088-0.739-13.27-2.11c17.095-5.58,29.454-21.659,29.454-40.627c0-18.969-12.359-35.048-29.454-40.627
		c4.182-1.372,8.64-2.111,13.27-2.111C327.531,436.185,346.67,455.324,346.67,478.923z"/>
	<g>
		<path fill="#FCBC1D" d="M208.62,580.31c-2.44,3.191-5.5,5.751-9.167,7.492c-15.974,7.584-37.132-3.562-47.249-24.878
			c-10.117-21.315-5.368-44.756,10.605-52.34c2.414-1.147,4.946-1.86,7.545-2.177c14.563-1.794,31.104,8.957,39.704,27.067
			C217.854,551.91,216.825,569.585,208.62,580.31z"/>
		<path opacity="0.25" enable-background="new    " d="M208.62,580.31c-14.575,1.807-31.116-8.957-39.703-27.055
			c-7.796-16.435-6.767-34.124,1.438-44.848c14.563-1.794,31.104,8.957,39.704,27.067C217.854,551.91,216.825,569.585,208.62,580.31
			z"/>
		<path fill="#333333" d="M188.682,596.8c-5.943,0-12.103-1.594-18.12-4.763c-10.177-5.359-18.811-14.694-24.313-26.286
			s-7.274-24.184-4.991-35.457c2.424-11.97,9.072-21.083,18.72-25.663s20.911-3.968,31.72,1.723
			c10.176,5.359,18.811,14.694,24.313,26.286c1.562,3.291,0.161,7.225-3.13,8.786c-3.293,1.562-7.226,0.16-8.786-3.13
			c-4.287-9.033-10.872-16.231-18.544-20.27c-7.041-3.708-14.113-4.233-19.916-1.479c-5.803,2.755-9.869,8.566-11.448,16.366
			c-1.722,8.496-0.308,18.148,3.979,27.182s10.872,16.232,18.542,20.271c7.041,3.709,14.115,4.232,19.918,1.479
			s9.868-8.567,11.448-16.365c0.723-3.57,4.201-5.877,7.773-5.155c3.569,0.723,5.877,4.204,5.154,7.773
			c-2.423,11.97-9.072,21.084-18.72,25.665C198.006,595.791,193.412,596.8,188.682,596.8z"/>
	</g>
	<path fill="#333333" d="M303.937,528.25c-27.2,0-49.328-22.129-49.328-49.329c0-3.642,2.953-6.595,6.595-6.595
		s6.596,2.953,6.596,6.595c0,19.928,16.212,36.139,36.138,36.139c19.927,0,36.138-16.213,36.138-36.139
		s-16.211-36.138-36.138-36.138c-6.563,0-12.987,1.775-18.577,5.134c-3.122,1.875-7.173,0.865-9.051-2.257
		c-1.875-3.122-0.865-7.173,2.258-9.051c7.641-4.59,16.414-7.017,25.37-7.017c27.2,0,49.329,22.128,49.329,49.328
		S331.137,528.25,303.937,528.25z"/>
	<path fill="#333333" d="M301.301,370.774c-5.962,0-11.923-2.269-16.461-6.808c-2.576-2.576-2.576-6.752,0-9.327
		s6.751-2.575,9.326,0c3.933,3.934,10.334,3.934,14.27,0c3.933-3.934,3.933-10.335-0.001-14.27c-3.931-3.932-10.335-3.935-14.269,0
		c-2.575,2.575-6.75,2.575-9.326,0c-2.576-2.576-2.576-6.752,0-9.327c9.077-9.076,23.847-9.075,32.923,0
		c9.076,9.078,9.076,23.847,0.001,32.924C313.226,368.505,307.264,370.774,301.301,370.774z"/>
	<path fill="#333333" d="M383.595,608.694c-5.963,0-11.923-2.27-16.461-6.809c-2.576-2.575-2.576-6.75-0.001-9.326
		c2.576-2.576,6.751-2.578,9.327,0c3.935,3.935,10.339,3.933,14.271,0c3.932-3.934,3.932-10.335-0.001-14.27
		c-3.934-3.936-10.337-3.932-14.27,0c-2.574,2.574-6.751,2.576-9.327,0c-2.575-2.576-2.575-6.751,0.001-9.327
		c9.078-9.078,23.849-9.075,32.924,0c9.076,9.077,9.076,23.847,0.001,32.923C395.519,606.425,389.558,608.694,383.595,608.694z"/>
	<polygon fill="#F2F2F2" points="212.545,310.885 198.392,325.025 158.925,285.56 183.354,281.708 	"/>
	<path fill="#F2F2F2" d="M198.392,325.025l-38.569,38.569l-39.467-39.466l-45.56-45.56c-2.15-2.15-4.182-4.393-6.081-6.727
		c-13.283-16.291-20.472-36.828-20.103-58.039c12.109-0.198,24.02,2.058,35.034,6.516c8.257,3.337,16.014,7.915,22.991,13.6
		c2.335,1.899,4.577,3.931,6.728,6.081l45.56,45.561L198.392,325.025z"/>
	<polygon opacity="0.25" enable-background="new    " points="106.638,233.918 159.823,363.595 68.715,271.841 	"/>
	<polygon fill="#F2F2F2" points="159.823,363.595 145.682,377.748 116.491,348.558 120.356,324.128 	"/>
	<polygon opacity="0.25" enable-background="new    " points="159.823,363.595 145.682,377.748 116.491,348.558 120.356,324.128 	
		"/>
	<path fill="#333333" d="M145.682,384.342c-1.749,0-3.427-0.695-4.664-1.931l-29.19-29.191c-1.492-1.493-2.181-3.609-1.851-5.694
		l3.864-24.429c0.388-2.45,2.117-4.476,4.476-5.242c2.358-0.766,4.948-0.145,6.702,1.609l39.466,39.466
		c2.575,2.575,2.576,6.75,0.002,9.324l-14.141,14.153C149.109,383.646,147.432,384.342,145.682,384.342
		C145.685,384.342,145.683,384.342,145.682,384.342z M123.53,346.269l22.149,22.149l4.817-4.822l-25.65-25.65L123.53,346.269z"/>
	<path fill="#333333" d="M198.392,331.621c-1.688,0-3.376-0.644-4.665-1.931l-39.466-39.466c-1.754-1.754-2.376-4.345-1.607-6.705
		c0.768-2.359,2.793-4.087,5.244-4.474l24.429-3.852c2.087-0.331,4.198,0.359,5.689,1.849l29.19,29.178
		c1.237,1.237,1.933,2.915,1.933,4.666s-0.695,3.428-1.934,4.666l-14.153,14.14C201.766,330.977,200.078,331.621,198.392,331.621z
		 M172.749,290.056l25.644,25.644l4.821-4.817l-22.149-22.138L172.749,290.056z"/>
	
		<rect x="172.512" y="317.037" transform="matrix(0.7071 0.7071 -0.7071 0.7071 295.9132 -25.8046)" fill="#333333" width="13.19" height="54.545"/>
	<g id="XMLID_43_">
		<g>
			<path fill="#F24125" d="M106.638,233.918l-37.923,37.923c-13.283-16.291-20.472-36.828-20.103-58.039
				c12.109-0.198,24.02,2.058,35.034,6.516C91.904,223.656,99.66,228.233,106.638,233.918z"/>
		</g>
		<g>
			<path fill="#333333" d="M115.692,328.792l-45.561-45.56c-2.321-2.322-4.519-4.754-6.533-7.229
				c-14.309-17.547-21.975-39.68-21.581-62.315c0.063-3.555,2.932-6.421,6.486-6.48c12.974-0.205,25.622,2.144,37.617,6.998
				c8.901,3.597,17.207,8.509,24.682,14.599c2.47,2.009,4.9,4.208,7.225,6.531l45.561,45.562l-9.327,9.327l-45.561-45.561
				c-2.006-2.006-4.101-3.9-6.226-5.629c-6.454-5.256-13.619-9.496-21.301-12.6c-8.29-3.356-16.948-5.328-25.816-5.884
				c1.084,17.178,7.524,33.702,18.468,47.123c1.735,2.133,3.629,4.228,5.634,6.231l45.561,45.56L115.692,328.792z"/>
			
				<rect x="81.082" y="226.063" transform="matrix(0.7071 0.7071 -0.7071 0.7071 204.4924 12.0695)" fill="#333333" width="13.191" height="53.631"/>
		</g>
	</g>
	<path fill="#333333" d="M403.311,296.195c-1.117,0-2.248-0.284-3.286-0.881c-3.156-1.818-4.24-5.852-2.423-9.007l28.913-50.194
		c0.021-0.033,0.037-0.066,0.056-0.098c0.02-0.033,0.038-0.064,0.059-0.098l26.279-45.622c1.819-3.157,5.849-4.242,9.008-2.423
		l58.292,33.58c1.514,0.873,2.622,2.312,3.076,4.002c0.455,1.689,0.219,3.49-0.653,5.004l-26.338,45.72
		c-1.818,3.157-5.849,4.242-9.008,2.423l-52.575-30.286l-25.678,44.576C407.811,295.009,405.591,296.195,403.311,296.195z
		 M441.293,236.884l46.86,26.994l19.754-34.29l-46.862-26.995L441.293,236.884z"/>
	<g>
		<path fill="#20505B" d="M315.758,142.789l0.04,0.04c-5.224,6.701-13.376,11.001-22.529,11.001c-9.154,0-17.307-4.3-22.53-11.001
			l0.04-0.026c-1.926-2.453-3.469-5.25-4.511-8.257c3.878-11.186,14.496-19.219,27.001-19.219c12.504,0,23.136,8.033,26.987,19.232
			C319.214,137.565,317.684,140.335,315.758,142.789z"/>
		<path fill="#1AA5E2" d="M321.839,125.166c0,3.285-0.554,6.45-1.583,9.392c-3.852-11.199-14.483-19.232-26.987-19.232
			c-12.505,0-23.123,8.033-27.001,19.219c-1.017-2.928-1.57-6.081-1.57-9.378c0-15.776,12.782-28.571,28.571-28.571
			C309.044,96.595,321.839,109.39,321.839,125.166z"/>
		<path fill="#1AA5E2" d="M270.739,142.828c5.224,6.701,13.376,11.001,22.53,11.001c9.153,0,17.306-4.3,22.529-11.001
			c21.593,14.984,12.729,74.87,12.729,74.87c-2.73,0.567-5.461,1.068-8.204,1.491h-0.014c-3.878,0.62-7.756,1.095-11.66,1.451
			c-4.564,0.396-9.142,0.633-13.705,0.673c-0.554,0-1.121,0-1.675,0c-0.567,0-1.121,0-1.676,0c-4.577-0.04-9.141-0.277-13.705-0.673
			c-3.904-0.356-7.795-0.831-11.674-1.451c-2.743-0.422-5.486-0.923-8.204-1.491C258.01,217.698,249.146,157.813,270.739,142.828z"
			/>
		<path fill="#333333" d="M320.421,147.453l-2.78-2.782l-2.417-2.302l0.496,0.472l-5.511-3.621l0.389-0.481l-0.027-0.022
			c1.504-1.916,2.666-4.042,3.454-6.318c0.812-2.32,1.221-4.747,1.221-7.232c0-12.117-9.859-21.976-21.976-21.976
			c-12.117,0-21.976,9.859-21.976,21.976c0,2.482,0.406,4.912,1.206,7.218c0.794,2.292,1.96,4.426,3.468,6.346l-10.376,8.145
			c-2.412-3.073-4.281-6.495-5.555-10.17c-1.283-3.699-1.934-7.581-1.934-11.539c0-19.39,15.774-35.166,35.166-35.166
			s35.166,15.774,35.166,35.166c0,3.973-0.657,7.866-1.952,11.569c-1.252,3.613-3.098,6.999-5.476,10.049
			c-0.159,0.213-0.334,0.419-0.511,0.605l-0.007-0.005C320.466,147.407,320.444,147.431,320.421,147.453z M310.943,138.293
			l0.009,0.008L310.943,138.293z"/>
		<path fill="#333333" d="M272.498,136.705l-12.462-4.32c4.905-14.148,18.26-23.655,33.232-23.655c15,0,28.353,9.517,33.224,23.683
			l-12.475,4.29c-3.04-8.842-11.379-14.782-20.749-14.782C283.911,121.921,275.564,127.862,272.498,136.705z"/>
		<path fill="#333333" d="M293.269,227.907h-1.676c-4.604-0.04-9.389-0.274-14.273-0.696c-4.186-0.383-8.261-0.889-12.146-1.509
			c-2.75-0.424-5.627-0.946-8.511-1.547c-2.705-0.565-4.772-2.755-5.178-5.491c-0.968-6.544-8.762-64.421,15.494-81.254
			c2.877-1.996,6.811-1.397,8.962,1.364c4.191,5.378,10.507,8.462,17.328,8.462c6.82,0,13.137-3.084,17.328-8.46
			c2.154-2.764,6.089-3.356,8.962-1.364c24.257,16.832,16.462,74.71,15.493,81.253c-0.406,2.737-2.476,4.93-5.185,5.493
			c-2.975,0.617-5.769,1.125-8.544,1.551c-0.042,0.006-0.083,0.012-0.127,0.019c-3.848,0.611-7.868,1.109-11.95,1.482
			c-4.913,0.426-9.698,0.66-14.247,0.699h-1.731V227.907z M263.933,212.125c1.106,0.195,2.202,0.378,3.284,0.544
			c3.63,0.579,7.409,1.049,11.271,1.402c4.516,0.392,8.955,0.609,13.162,0.645h3.294c4.152-0.036,8.591-0.253,13.135-0.647
			c3.813-0.349,7.586-0.818,11.188-1.393c0.064-0.011,0.131-0.02,0.194-0.028c1.039-0.161,2.082-0.335,3.143-0.522
			c2.236-19.417,1.916-47.693-6.708-59.93c-6.27,5.292-14.209,8.229-22.629,8.229c-8.419,0-16.358-2.938-22.628-8.231
			C262.015,164.432,261.696,192.708,263.933,212.125z"/>
		<path fill="#333333" d="M271.573,267.296c-2.549,0-4.977-1.487-6.054-3.976c-9.217-21.269-5.971-44.136-5.828-45.099
			c0.533-3.604,3.886-6.097,7.491-5.557c3.601,0.533,6.089,3.883,5.559,7.483c-0.056,0.393-2.764,20.283,4.882,37.928
			c1.448,3.342-0.087,7.226-3.43,8.674C273.337,267.12,272.448,267.296,271.573,267.296z"/>
		<path fill="#333333" d="M314.949,267.296c-0.874,0-1.765-0.176-2.618-0.546c-3.341-1.448-4.877-5.332-3.43-8.674
			c7.684-17.732,4.909-37.733,4.881-37.932c-0.521-3.601,1.972-6.949,5.571-7.475c3.61-0.528,6.946,1.955,7.479,5.553
			c0.141,0.963,3.389,23.831-5.828,45.099C319.928,265.809,317.499,267.296,314.949,267.296z"/>
		<path fill="#333333" d="M231.873,194.919c-0.438,0-0.88-0.043-1.326-0.134c-3.569-0.728-5.872-4.212-5.143-7.78
			c9.24-45.294,39.871-47.323,41.17-47.387c3.662-0.17,6.732,2.624,6.913,6.263c0.179,3.614-2.588,6.693-6.191,6.909
			c-1.053,0.083-21.896,2.191-28.968,36.852C237.692,192.765,234.943,194.919,231.873,194.919z"/>
		<path fill="#333333" d="M356.484,194.919c-3.069,0-5.816-2.152-6.455-5.276c-7.112-34.808-28.091-36.788-28.981-36.855
			c-3.638-0.18-6.399-3.272-6.221-6.911c0.18-3.638,3.264-6.426,6.954-6.26c1.298,0.065,31.916,2.092,41.17,47.385
			c0.729,3.569-1.573,7.053-5.141,7.782C357.365,194.875,356.92,194.919,356.484,194.919z"/>
		<path fill="#FFFFFF" d="M303.669,140.223c-0.436,0-0.871-0.04-1.293-0.132c-0.422-0.079-0.831-0.211-1.227-0.37
			c-0.409-0.171-0.792-0.369-1.147-0.606c-0.356-0.238-0.699-0.515-1.003-0.818c-1.227-1.227-1.926-2.928-1.926-4.669
			c0-0.422,0.04-0.857,0.133-1.293c0.079-0.409,0.211-0.831,0.369-1.227c0.171-0.396,0.369-0.778,0.606-1.134
			c0.237-0.37,0.515-0.699,0.817-1.002c0.304-0.304,0.646-0.581,1.003-0.831c0.356-0.237,0.738-0.436,1.147-0.594
			c0.396-0.171,0.805-0.303,1.227-0.382c2.15-0.436,4.419,0.277,5.949,1.807c0.303,0.303,0.58,0.633,0.831,1.002
			c0.224,0.356,0.436,0.739,0.606,1.134c0.158,0.396,0.29,0.818,0.369,1.227c0.093,0.436,0.132,0.871,0.132,1.293
			c0,0.435-0.038,0.871-0.132,1.292c-0.08,0.422-0.211,0.831-0.369,1.227c-0.171,0.409-0.383,0.791-0.606,1.147
			c-0.25,0.356-0.526,0.699-0.831,1.002c-0.302,0.303-0.632,0.58-1.003,0.818c-0.357,0.237-0.74,0.435-1.134,0.606
			c-0.396,0.158-0.818,0.291-1.228,0.37C304.527,140.184,304.091,140.223,303.669,140.223z"/>
		<path fill="#FFFFFF" d="M312.028,210.136c-0.207,0-0.415-0.009-0.628-0.029c-3.626-0.343-6.289-3.56-5.946-7.186
			c2.076-21.994-1.15-36.46-1.182-36.604c-0.813-3.551,1.409-7.087,4.96-7.898c3.55-0.813,7.087,1.408,7.898,4.96
			c0.153,0.67,3.728,16.699,1.456,40.781C318.264,207.575,315.392,210.136,312.028,210.136z"/>
	</g>
	<g>
		<path fill="#FCBC1D" d="M562.556,186.531c-3.643,0-6.595-2.954-6.595-6.595v-28.273c0-3.642,2.952-6.595,6.595-6.595
			c3.644,0,6.596,2.954,6.596,6.595v28.273C569.152,183.578,566.199,186.531,562.556,186.531z"/>
		<path fill="#FCBC1D" d="M576.693,172.395H548.42c-3.644,0-6.596-2.954-6.596-6.595c0-3.642,2.952-6.596,6.596-6.596h28.272
			c3.644,0,6.595,2.954,6.595,6.596C583.287,169.441,580.336,172.395,576.693,172.395z"/>
	</g>
	<g>
		<path fill="#FCBC1D" d="M49.444,590.162c-3.642,0-6.596-2.953-6.596-6.595v-28.272c0-3.643,2.954-6.596,6.596-6.596
			s6.595,2.953,6.595,6.596v28.272C56.038,587.209,53.085,590.162,49.444,590.162z"/>
		<path fill="#FCBC1D" d="M63.578,576.026H35.307c-3.642,0-6.595-2.953-6.595-6.596c0-3.642,2.953-6.595,6.595-6.595h28.271
			c3.642,0,6.596,2.953,6.596,6.595C70.174,573.073,67.222,576.026,63.578,576.026z"/>
	</g>
</g>
</svg>
