<?xml version="1.0" encoding="utf-8"?>
<!-- Generator: Adobe Illustrator 16.0.0, SVG Export Plug-In . SVG Version: 6.00 Build 0)  -->
<!DOCTYPE svg PUBLIC "-//W3C//DTD SVG 1.1//EN" "http://www.w3.org/Graphics/SVG/1.1/DTD/svg11.dtd">
<svg version="1.1" id="Layer_1" xmlns="http://www.w3.org/2000/svg" xmlns:xlink="http://www.w3.org/1999/xlink" viewBox="0 0 612 792" enable-background="new 0 0 612 792" xml:space="preserve">
<title>cross</title>
<path d="M608.557,196.514c5.023-9.767,4.183-20.859-0.203-30.09c1.224-10.455-1.53-21.088-11.425-29.249l-27.692-22.771
	c-16.219-13.362-41.616-17.569-57.375,0c-71.644,79.507-146.479,156.079-224.323,229.526
	c-57.758-53.958-116.179-107.177-174.242-160.472c-20.399-18.717-49.878-12.827-62.679,9.435
	c-18.666,9.308-33.813,21.395-46.333,41.999c-5.942,9.843-5.483,22.236,0,32.079c37.484,67.193,109.904,126.251,169.473,180.617
	c-7.981,7.14-15.887,14.331-24.021,21.317c-80.223,68.901-134.334,112.608-33.94,183.269c1.352,0.943,2.729,0.739,4.105,1.275
	c1.938,0.918,3.774,1.529,5.916,1.887c0.663,0,1.275,0.128,1.913,0.076c2.091,0.179,4.08,0.688,6.196,0.281
	c53.983-10.583,104.167-52.888,149.736-99.45c44.369,43.732,91.596,85.501,143.564,110.287c12.367,5.916,27.106,2.474,36.618-5.788
	c15.963,1.198,30.523-8.721,37.842-22.976c1.071-0.663,1.785-1.046,2.958-1.785c23.205-14.51,25.321-43.375,8.16-63.291
	c-38.812-44.931-80.02-87.669-122.068-129.642c75.684-73.95,170.187-153.689,217.82-246.509V196.514z"/>
</svg>
