<?xml version="1.0" encoding="utf-8"?>
<!-- Generator: Adobe Illustrator 16.0.0, SVG Export Plug-In . SVG Version: 6.00 Build 0)  -->
<!DOCTYPE svg PUBLIC "-//W3C//DTD SVG 1.1//EN" "http://www.w3.org/Graphics/SVG/1.1/DTD/svg11.dtd">
<svg version="1.1" id="icon_rocket" xmlns="http://www.w3.org/2000/svg" xmlns:xlink="http://www.w3.org/1999/xlink" viewBox="0 0 612 792" enable-background="new 0 0 612 792" xml:space="preserve">
<path fill="#F6B44B" d="M261.856,580.769c-2.891,5.54-6.264,10.961-9.877,16.02c-5.059,7.106-10.6,13.61-16.742,19.754
	c-28.306,28.305-67.572,45.529-111.415,44.807c-0.121-9.033,0.723-17.947,2.048-26.499c-23.127,13.25-49.986,20.718-79.015,20.235
	c-0.361-29.028,7.106-55.888,20.235-79.014c-8.552,1.324-17.465,2.168-26.499,1.927c-0.723-53.118,24.813-99.852,64.561-128.157
	c5.059-3.613,10.479-6.986,16.02-9.877c-0.12,0.603-0.24,1.325-0.361,1.927c13.731,1.807,27.222,5.421,40.23,10.841
	c8.552,3.493,16.742,7.709,24.691,12.768c9.997,6.264,19.393,13.731,28.064,22.403c8.673,8.673,16.021,18.067,22.283,28.064
	c5.059,7.95,9.396,16.141,12.888,24.692c5.421,13.008,9.034,26.498,10.841,40.229C260.651,581.009,261.253,580.889,261.856,580.769z
	"/>
<path fill="#FFD05C" d="M249.088,540.899c-5.661,21.32-16.742,40.833-32.642,56.731c-17.465,17.466-39.267,29.149-62.995,34.208
	l7.348-47.698l-48.18,27.463c-11.201,6.504-23.367,11.081-36.135,13.852c2.771-12.647,7.468-24.813,13.852-36.135l27.463-48.18
	l-47.698,7.348c5.06-23.729,16.743-45.53,34.208-62.995c15.899-15.899,35.412-26.98,56.731-32.642
	c8.552,3.493,16.742,7.709,24.691,12.768c9.997,6.264,19.393,13.731,28.064,22.403c8.673,8.673,16.021,18.067,22.283,28.064
	C241.259,524.157,245.595,532.348,249.088,540.899z"/>
<path fill="#41596B" d="M241.74,701.939c3.132-2.649,6.384-5.54,9.396-8.672c30.232-30.232,46.733-68.896,49.624-108.524
	c3.613-47.938-12.888-97.202-49.624-133.939c-36.737-36.736-85.88-53.237-133.939-49.624C77.69,404.07,38.905,420.571,8.672,450.804
	c-3.011,3.012-5.901,6.264-8.672,9.396c5.781-46.132,26.258-90.818,61.67-126.23c33.123-33.123,74.196-53.238,116.955-60.465
	c66.729-11.202,137.673,8.914,189.225,60.465c51.432,51.432,71.667,122.496,60.466,189.225
	c-7.228,42.88-27.342,83.953-60.466,116.956C332.559,675.682,287.872,696.158,241.74,701.939z"/>
<path fill="#334A5E" d="M428.436,523.314c-38.544,26.619-81.423,47.697-127.555,61.549c3.613-47.938-12.888-97.202-49.625-133.938
	c-36.737-36.737-85.88-53.238-133.939-49.625c13.852-46.252,34.931-89.132,61.55-127.555
	c66.729-11.202,137.673,8.913,189.225,60.465C419.403,385.521,439.638,456.586,428.436,523.314z"/>
<path fill="#F2705B" d="M260.049,581.13c-3.132-22.765-10.961-44.928-23.729-64.922c-6.264-9.997-13.731-19.393-22.403-28.064
	c-8.673-8.673-18.067-16.141-28.064-22.403c-19.995-12.768-42.157-20.597-64.922-23.729
	c35.894-172.604,172.361-308.47,345.446-343.279c28.306-5.661,57.574-8.672,87.687-8.672H612v57.936
	c0,29.992-3.012,59.381-8.673,87.687C568.518,408.768,432.652,545.236,260.049,581.13z"/>
<path fill="#FFFFFF" d="M478.904,223.156c-37.82-37.821-99.129-37.821-136.95,0c-18.91,18.91-28.426,43.723-28.305,68.535
	c0.12,24.692,9.515,49.504,28.305,68.294s43.482,28.306,68.175,28.426c24.933,0.121,49.745-9.395,68.655-28.426
	C516.725,322.285,516.725,260.977,478.904,223.156z"/>
<circle fill="#89D6F7" cx="410.489" cy="291.571" r="64.44"/>
<path fill="#41596B" d="M299.797,402.264L299.797,402.264L299.797,402.264c-64.44,22.644-135.023,93.227-157.547,157.547l0,0
	C206.57,537.166,277.153,466.703,299.797,402.264z"/>
<path fill="#334A5E" d="M603.327,235.683l-136.95-136.95c28.306-5.661,57.574-8.672,87.687-8.672H612v57.936
	C612,177.988,608.989,207.377,603.327,235.683z"/>
</svg>
