<?xml version="1.0" encoding="utf-8"?>
<!-- Generator: Adobe Illustrator 16.0.0, SVG Export Plug-In . SVG Version: 6.00 Build 0)  -->
<!DOCTYPE svg PUBLIC "-//W3C//DTD SVG 1.1//EN" "http://www.w3.org/Graphics/SVG/1.1/DTD/svg11.dtd">
<svg version="1.1" id="icon_ring" xmlns="http://www.w3.org/2000/svg" xmlns:xlink="http://www.w3.org/1999/xlink" viewBox="0 0 612 792" enable-background="new 0 0 612 792" xml:space="preserve">
<path fill="#FFF5D7" d="M305.924,652.566c-16.967,0-30.812-8.545-43.03-16.081c-6.868-4.234-13.35-8.241-18.808-9.693
	c-5.926-1.582-13.835-1.382-22.169-1.157c-14.148,0.378-30.14,0.774-44.325-7.425c-14.381-8.329-22.033-22.505-28.79-35.027
	c-3.913-7.247-7.62-14.102-11.794-18.28c-4.184-4.184-11.043-7.882-18.299-11.804c-12.514-6.747-26.698-14.404-35.019-28.781
	c-8.209-14.193-7.788-30.204-7.415-44.333c0.215-8.354,0.42-16.254-1.158-22.16c-1.452-5.463-5.453-11.944-9.693-18.813
	c-7.535-12.21-16.08-26.049-16.08-43.026c0-16.973,8.545-30.812,16.08-43.031c4.23-6.868,8.241-13.349,9.693-18.807
	c1.578-5.93,1.383-13.816,1.158-22.174c-0.364-14.124-0.789-30.135,7.419-44.324c8.33-14.376,22.511-22.034,35.028-28.79
	c7.252-3.913,14.102-7.62,18.285-11.79c4.179-4.184,7.877-11.042,11.804-18.303c6.747-12.509,14.399-26.698,28.78-35.019
	c14.204-8.218,30.205-7.774,44.329-7.415c8.367,0.224,16.244,0.425,22.165-1.158c5.463-1.452,11.939-5.449,18.808-9.693
	c12.21-7.536,26.054-16.081,43.03-16.081c16.968,0,30.813,8.549,43.031,16.081c6.869,4.235,13.35,8.246,18.808,9.698
	c5.926,1.578,13.835,1.387,22.169,1.158c14.148-0.355,30.14-0.78,44.325,7.419c14.381,8.33,22.034,22.51,28.79,35.028
	c3.913,7.246,7.62,14.101,11.794,18.284c4.184,4.179,11.043,7.877,18.299,11.799c12.514,6.751,26.698,14.404,35.019,28.781
	c8.209,14.199,7.788,30.209,7.415,44.334c-0.215,8.357-0.42,16.253,1.158,22.165c1.452,5.458,5.453,11.939,9.693,18.807
	c7.536,12.21,16.08,26.049,16.08,43.031c0,16.968-8.544,30.812-16.08,43.026c-4.23,6.868-8.241,13.35-9.693,18.813
	c-1.578,5.925-1.383,13.815-1.158,22.169c0.364,14.129,0.789,30.14-7.419,44.324c-8.33,14.377-22.511,22.034-35.028,28.791
	c-7.252,3.912-14.102,7.62-18.285,11.794c-4.179,4.179-7.877,11.043-11.804,18.299c-6.746,12.513-14.399,26.698-28.78,35.019
	c-14.213,8.208-30.233,7.77-44.329,7.415c-8.358-0.233-16.244-0.425-22.165,1.157c-5.463,1.452-11.938,5.454-18.808,9.693
	C336.745,644.021,322.902,652.566,305.924,652.566z M230.167,590.098c7.499,0,15.395,0.457,23.052,2.498
	c10.478,2.797,19.518,8.381,28.263,13.769c9.002,5.566,17.514,10.81,24.442,10.81c6.93,0,15.437-5.253,24.443-10.81
	c8.736-5.388,17.771-10.972,28.263-13.769c10.852-2.904,22.188-2.61,32.227-2.345c10.38,0.275,20.134,0.528,25.681-2.666
	c5.71-3.301,10.394-11.995,15.361-21.198c4.949-9.175,10.071-18.662,17.921-26.507c7.835-7.835,17.322-12.961,26.497-17.91
	c9.203-4.969,17.888-9.661,21.193-15.381c3.208-5.528,2.951-15.311,2.681-25.671c-0.262-10.011-0.561-21.366,2.339-32.227
	c2.802-10.482,8.381-19.518,13.774-28.263c5.565-9.003,10.809-17.515,10.809-24.443c0-6.929-5.253-15.441-10.809-24.443
	c-5.394-8.736-10.973-17.771-13.774-28.263c-2.899-10.861-2.601-22.211-2.339-32.227c0.275-10.361,0.537-20.143-2.671-25.681
	c-3.301-5.71-11.99-10.394-21.193-15.362c-9.175-4.949-18.663-10.071-26.507-17.92c-7.84-7.835-12.962-17.323-17.911-26.498
	c-4.968-9.203-9.661-17.887-15.381-21.198c-5.523-3.203-15.296-2.97-25.671-2.675c-9.996,0.266-21.356,0.551-32.227-2.344
	c-10.482-2.797-19.521-8.376-28.263-13.77c-9.007-5.565-17.514-10.809-24.443-10.809c-6.929,0-15.44,5.253-24.442,10.809
	c-8.736,5.393-17.775,10.973-28.263,13.77c-10.86,2.895-22.207,2.596-32.227,2.344c-10.389-0.285-20.143-0.537-25.681,2.67
	c-5.71,3.296-10.394,11.991-15.361,21.193c-4.954,9.175-10.076,18.663-17.921,26.507c-7.839,7.839-17.327,12.961-26.502,17.911
	c-9.198,4.968-17.883,9.661-21.193,15.38c-3.203,5.528-2.946,15.311-2.676,25.671c0.257,10.015,0.561,21.366-2.344,32.227
	c-2.802,10.482-8.381,19.517-13.774,28.263c-5.561,9.002-10.804,17.514-10.804,24.443c0,6.929,5.253,15.44,10.804,24.443
	c5.394,8.736,10.973,17.775,13.774,28.263c2.904,10.86,2.601,22.216,2.344,32.227c-0.28,10.36-0.537,20.143,2.666,25.681
	c3.302,5.71,11.995,10.394,21.198,15.361c9.175,4.949,18.663,10.076,26.507,17.92c7.835,7.835,12.957,17.323,17.911,26.498
	c4.968,9.203,9.661,17.888,15.381,21.198c5.509,3.203,15.282,2.946,25.671,2.675C223.944,590.172,227.02,590.098,230.167,590.098z"
	/>
<path fill="#ECEAEC" d="M305.924,682.169c-18.929,0-34.364-9.53-47.994-17.935c-7.662-4.721-14.89-9.193-20.979-10.809
	c-6.611-1.766-15.427-1.546-24.728-1.294c-15.777,0.425-33.618,0.869-49.442-8.278c-16.034-9.292-24.574-25.106-32.109-39.071
	c-4.366-8.083-8.498-15.727-13.153-20.391c-4.665-4.665-12.317-8.792-20.414-13.162c-13.956-7.527-29.78-16.067-39.058-32.105
	c-9.156-15.833-8.685-33.693-8.269-49.447c0.242-9.319,0.471-18.13-1.294-24.718c-1.62-6.094-6.079-13.321-10.813-20.979
	c-8.4-13.619-17.935-29.061-17.935-47.994c0-18.929,9.534-34.365,17.935-47.995c4.725-7.662,9.198-14.89,10.813-20.979
	c1.765-6.611,1.541-15.408,1.294-24.732c-0.406-15.754-0.878-33.614,8.278-49.438c9.287-16.034,25.102-24.574,39.066-32.11
	c8.087-4.366,15.73-8.502,20.396-13.158c4.664-4.66,8.787-12.313,13.162-20.409c7.526-13.956,16.066-29.78,32.105-39.062
	c15.843-9.161,33.688-8.671,49.446-8.265c9.329,0.248,18.116,0.472,24.719-1.293c6.094-1.62,13.316-6.084,20.979-10.814
	c13.62-8.404,29.057-17.934,47.994-17.934c18.93,0,34.365,9.53,47.995,17.934c7.662,4.726,14.89,9.194,20.979,10.814
	c6.611,1.765,15.427,1.55,24.728,1.293c15.777-0.397,33.618-0.869,49.442,8.274c16.034,9.292,24.574,25.106,32.11,39.072
	c4.365,8.087,8.497,15.73,13.152,20.395c4.665,4.665,12.317,8.788,20.414,13.163c13.956,7.527,29.78,16.067,39.058,32.101
	c9.156,15.838,8.685,33.693,8.269,49.451c-0.242,9.32-0.471,18.126,1.294,24.719c1.62,6.089,6.079,13.316,10.813,20.979
	c8.4,13.62,17.935,29.057,17.935,47.995c0,18.929-9.534,34.365-17.935,47.994c-4.725,7.658-9.198,14.886-10.813,20.979
	c-1.765,6.611-1.541,15.408-1.294,24.728c0.406,15.759,0.878,33.613-8.278,49.442c-9.286,16.033-25.102,24.573-39.066,32.109
	c-8.087,4.366-15.73,8.498-20.396,13.153c-4.664,4.664-8.787,12.317-13.162,20.414c-7.526,13.951-16.066,29.779-32.105,39.058
	c-15.852,9.156-33.721,8.666-49.446,8.269c-9.32-0.262-18.116-0.472-24.719,1.294c-6.094,1.615-13.316,6.079-20.979,10.809
	C340.299,672.639,324.863,682.169,305.924,682.169z M221.427,612.495c8.362,0,17.173,0.509,25.708,2.783
	c11.691,3.123,21.772,9.353,31.526,15.361c10.039,6.21,19.535,12.061,27.263,12.061s17.221-5.859,27.264-12.061
	c9.745-6.009,19.825-12.238,31.526-15.361c12.103-3.236,24.747-2.909,35.943-2.61c11.575,0.309,22.459,0.589,28.646-2.979
	c6.369-3.68,11.594-13.378,17.136-23.641c5.519-10.234,11.234-20.815,19.984-29.565c8.745-8.74,19.325-14.455,29.561-19.979
	c10.263-5.543,19.946-10.772,23.64-17.155c3.577-6.168,3.287-17.075,2.988-28.631c-0.289-11.169-0.625-23.832,2.61-35.948
	c3.124-11.688,9.348-21.772,15.361-31.521c6.206-10.044,12.056-19.536,12.056-27.264c0-7.732-5.859-17.225-12.056-27.263
	c-6.014-9.745-12.237-19.826-15.361-31.526c-3.24-12.112-2.899-24.775-2.61-35.948c0.309-11.551,0.598-22.463-2.979-28.641
	c-3.685-6.369-13.377-11.593-23.641-17.136c-10.234-5.524-20.814-11.234-29.569-19.989c-8.741-8.741-14.456-19.321-19.975-29.556
	c-5.543-10.263-10.776-19.951-17.155-23.64c-6.158-3.576-17.061-3.315-28.636-2.988c-11.15,0.299-23.822,0.617-35.943-2.61
	c-11.691-3.124-21.772-9.348-31.526-15.362c-10.039-6.205-19.536-12.056-27.264-12.056s-17.22,5.86-27.263,12.056
	c-9.744,6.014-19.825,12.238-31.526,15.362c-12.111,3.231-24.766,2.89-35.943,2.61c-11.589-0.317-22.468-0.598-28.646,2.979
	c-6.368,3.684-11.594,13.377-17.136,23.64c-5.519,10.235-11.234,20.815-19.984,29.565c-8.745,8.745-19.325,14.456-29.561,19.979
	c-10.263,5.542-19.946,10.776-23.64,17.154c-3.577,6.168-3.287,17.075-2.988,28.631c0.289,11.173,0.63,23.836-2.61,35.948
	c-3.124,11.691-9.348,21.772-15.361,31.526c-6.205,10.039-12.056,19.531-12.056,27.263c0,7.728,5.859,17.22,12.056,27.264
	c6.014,9.739,12.237,19.825,15.361,31.521c3.24,12.116,2.899,24.779,2.61,35.948c-0.309,11.556-0.598,22.463,2.979,28.641
	c3.685,6.373,13.378,11.594,23.641,17.136c10.234,5.523,20.814,11.238,29.569,19.988c8.741,8.741,14.456,19.321,19.975,29.557
	c5.543,10.268,10.777,19.951,17.155,23.64c6.149,3.577,17.047,3.287,28.636,2.988C214.489,612.579,217.915,612.495,221.427,612.495z
	"/>
<path fill="#D19A6E" d="M44.017,422.272l-20.713-2.787c-13.182-3.296-18.326-14.101-18.326-27.684l-1.191-16.534
	c0-10.673,4.501-20.11,14.307-20.927c2.563-0.215,5.234,0.075,7.887,0.958l18.42,6.14c9.268,3.091,16.416,10.557,19.105,19.956
	l6.057,21.208c1.115,3.898,0.989,7.728-0.07,11.174C66.577,423.258,54.821,424.977,44.017,422.272z"/>
<path fill="#F6D190" d="M118.424,326.905c0,2.788-0.579,5.435-1.62,7.84c-3.035,6.999-10.006,9.702-18.116,9.702
	c-10.902,0-17.725-6.644-17.725-17.542c0-8.115,2.881-15.082,9.881-18.116c2.404-1.042,5.052-1.62,7.839-1.62
	C109.585,307.168,118.424,316.002,118.424,326.905z"/>
<path fill="#C38C66" d="M47.99,408.392c-17.569-4.394-29.896-20.18-29.896-38.297v-15.749C8.302,355.177,0,363.357,0,374.026v18.579
	c0,13.587,9.245,25.428,22.426,28.72l23.369,5.846c10.805,2.699,20.782-3.918,23.701-13.396L47.99,408.392z"/>
<path fill="#ECBD83" d="M108.96,336.365c-10.902,0-19.737-8.834-19.737-19.737c0-2.783,0.579-5.439,1.621-7.839
	c-7,3.03-11.893,10.001-11.893,18.116c0,10.898,8.834,19.737,19.736,19.737c8.115,0,15.081-4.894,18.116-11.897
	C114.4,335.786,111.747,336.365,108.96,336.365z"/>
<path fill="#9B959D" d="M69.08,267.69c0,2.788-0.579,5.439-1.62,7.844c-3.035,6.999-10.006,9.511-18.116,9.511
	c-10.902,0-17.08-6.453-17.08-17.355c0-8.115,2.236-15.082,9.235-18.117c2.405-1.041,5.058-1.62,7.845-1.62
	C60.241,247.954,69.08,256.792,69.08,267.69z"/>
<path fill="#857E87" d="M59.616,277.155c-10.898,0-19.737-8.839-19.737-19.737c0-2.787,0.579-5.439,1.62-7.844
	c-6.999,3.031-11.892,10.001-11.892,18.117c0,10.902,8.838,19.736,19.736,19.736c8.115,0,15.086-4.893,18.116-11.892
	C65.056,276.576,62.404,277.155,59.616,277.155z"/>
<path fill="#D19A6E" d="M567.983,369.726l20.712,2.788c13.182,3.296,18.327,14.101,18.327,27.684l1.19,16.533
	c0,10.674-4.506,20.11-14.307,20.928c-2.563,0.215-5.234-0.075-7.886-0.958l-18.42-6.14c-9.269-3.091-16.417-10.557-19.106-19.956
	l-6.057-21.208c-1.115-3.898-0.989-7.727,0.07-11.173C545.421,368.741,557.178,367.022,567.983,369.726z"/>
<path fill="#F6D190" d="M493.574,465.094c0-2.787,0.579-5.435,1.62-7.839c3.035-7,10.006-9.703,18.116-9.703
	c10.902,0,17.725,6.645,17.725,17.542c0,8.115-2.881,15.082-9.881,18.116c-2.404,1.042-5.052,1.621-7.839,1.621
	C502.413,484.831,493.574,475.996,493.574,465.094z"/>
<path fill="#C38C66" d="M564.009,383.607c17.569,4.394,29.896,20.18,29.896,38.297v15.749c9.796-0.831,18.093-9.012,18.093-19.681
	v-18.578c0-13.588-9.245-25.429-22.421-28.721l-23.374-5.846c-10.8-2.699-20.782,3.917-23.696,13.396L564.009,383.607z"/>
<path fill="#ECBD83" d="M503.038,455.634c10.903,0,19.737,8.835,19.737,19.737c0,2.782-0.579,5.439-1.621,7.839
	c7-3.03,11.893-10.001,11.893-18.116c0-10.897-8.834-19.736-19.736-19.736c-8.115,0-15.081,4.894-18.116,11.897
	C497.599,456.213,500.251,455.634,503.038,455.634z"/>
<path fill="#9B959D" d="M542.918,524.309c0-2.788,0.579-5.439,1.62-7.845c3.035-6.999,10.006-9.511,18.116-9.511
	c10.902,0,17.08,6.453,17.08,17.355c0,8.115-2.236,15.081-9.235,18.116c-2.405,1.041-5.057,1.62-7.845,1.62
	C551.757,544.045,542.918,535.206,542.918,524.309z"/>
<path fill="#857E87" d="M552.382,514.844c10.898,0,19.737,8.839,19.737,19.737c0,2.787-0.579,5.439-1.62,7.844
	c6.999-3.03,11.892-10.001,11.892-18.116c0-10.902-8.838-19.736-19.736-19.736c-8.115,0-15.086,4.893-18.116,11.892
	C546.943,515.423,549.595,514.844,552.382,514.844z"/>
<path fill="#D19A6E" d="M279.726,134.017l2.787-20.713c3.297-13.181,14.102-18.326,27.684-18.326l16.534-1.191
	c10.674,0,20.109,4.501,20.927,14.307c0.215,2.563-0.074,5.234-0.957,7.886l-6.14,18.42c-3.092,9.268-10.558,16.417-19.956,19.106
	l-21.208,6.056c-3.898,1.116-7.727,0.99-11.173-0.07C278.74,156.578,277.023,144.821,279.726,134.017z"/>
<path fill="#F6D190" d="M375.094,208.424c-2.788,0-5.436-0.579-7.84-1.62c-6.999-3.035-9.702-10.006-9.702-18.116
	c0-10.903,6.644-17.724,17.542-17.724c8.115,0,15.081,2.881,18.116,9.88c1.041,2.404,1.62,5.052,1.62,7.839
	C394.83,199.586,385.996,208.424,375.094,208.424z"/>
<path fill="#C38C66" d="M293.608,137.99c4.394-17.57,20.18-29.896,38.296-29.896h15.749C346.822,98.302,338.642,90,327.972,90
	h-18.578c-13.587,0-25.429,9.245-28.72,22.426l-5.846,23.369c-2.699,10.804,3.917,20.782,13.396,23.701L293.608,137.99z"/>
<path fill="#ECBD83" d="M365.634,198.96c0-10.902,8.834-19.736,19.736-19.736c2.783,0,5.439,0.579,7.84,1.62
	c-3.03-6.999-10.001-11.893-18.116-11.893c-10.898,0-19.737,8.834-19.737,19.737c0,8.115,4.894,15.082,11.897,18.116
	C366.213,204.399,365.634,201.748,365.634,198.96z"/>
<path fill="#9B959D" d="M434.308,159.081c-2.787,0-5.439-0.579-7.844-1.62c-6.999-3.035-9.511-10.006-9.511-18.117
	c0-10.902,6.452-17.08,17.354-17.08c8.115,0,15.082,2.236,18.117,9.235c1.041,2.405,1.62,5.057,1.62,7.844
	C454.045,150.242,445.206,159.081,434.308,159.081z"/>
<path fill="#857E87" d="M424.844,149.616c0-10.898,8.839-19.737,19.736-19.737c2.788,0,5.439,0.579,7.845,1.62
	c-3.03-6.999-10.002-11.892-18.117-11.892c-10.902,0-19.736,8.839-19.736,19.736c0,8.115,4.894,15.086,11.893,18.117
	C425.423,155.056,424.844,152.404,424.844,149.616z"/>
<path fill="#D19A6E" d="M332.273,657.982l-2.787,20.713c-3.297,13.181-14.102,18.326-27.684,18.326l-16.534,1.19
	c-10.673,0-20.109-4.506-20.927-14.307c-0.215-2.563,0.074-5.233,0.957-7.886l6.14-18.42c3.092-9.269,10.558-16.417,19.956-19.106
	l21.208-6.056c3.898-1.116,7.728-0.99,11.173,0.07C333.258,635.421,334.976,647.178,332.273,657.982z"/>
<path fill="#F6D190" d="M236.905,583.574c2.788,0,5.436,0.579,7.84,1.62c6.999,3.035,9.702,10.006,9.702,18.117
	c0,10.902-6.644,17.724-17.542,17.724c-8.114,0-15.081-2.881-18.116-9.88c-1.041-2.404-1.62-5.052-1.62-7.84
	C217.168,592.413,226.002,583.574,236.905,583.574z"/>
<path fill="#C38C66" d="M318.391,654.009c-4.394,17.57-20.18,29.896-38.296,29.896h-15.749c0.831,9.797,9.011,18.094,19.681,18.094
	h18.578c13.587,0,25.429-9.245,28.72-22.422l5.846-23.374c2.699-10.8-3.917-20.782-13.396-23.695L318.391,654.009z"/>
<path fill="#ECBD83" d="M246.365,593.039c0,10.902-8.834,19.736-19.736,19.736c-2.783,0-5.439-0.579-7.84-1.62
	c3.03,6.999,10.002,11.893,18.116,11.893c10.898,0,19.737-8.834,19.737-19.736c0-8.115-4.894-15.082-11.897-18.117
	C245.785,587.6,246.365,590.251,246.365,593.039z"/>
<path fill="#9B959D" d="M177.691,632.918c2.787,0,5.439,0.579,7.844,1.62c6.999,3.035,9.512,10.007,9.512,18.117
	c0,10.902-6.453,17.079-17.355,17.079c-8.115,0-15.082-2.236-18.117-9.235c-1.041-2.404-1.62-5.057-1.62-7.844
	C157.953,641.757,166.792,632.918,177.691,632.918z"/>
<path fill="#857E87" d="M187.155,642.383c0,10.897-8.839,19.736-19.736,19.736c-2.787,0-5.439-0.579-7.845-1.62
	c3.03,6.999,10.002,11.893,18.117,11.893c10.902,0,19.736-8.839,19.736-19.736c0-8.115-4.894-15.086-11.893-18.117
	C186.575,636.943,187.155,639.595,187.155,642.383z"/>
<path fill="#D19A6E" d="M102.171,229.328l-12.677-16.617c-6.99-11.65-2.983-22.926,6.621-32.535l10.842-12.532
	c7.55-7.55,17.411-11.038,24.919-4.683c1.966,1.663,3.646,3.754,4.898,6.257l8.68,17.365c4.37,8.741,4.146,19.074-0.598,27.618
	l-10.711,19.279c-1.971,3.539-4.763,6.163-7.952,7.854C117.43,245.974,107.9,238.877,102.171,229.328z"/>
<path fill="#F6D190" d="M222.22,214.504c-1.97,1.97-4.253,3.437-6.69,4.398c-7.093,2.806-13.933-0.21-19.672-5.949
	c-7.708-7.709-7.834-17.229-0.126-24.938c5.739-5.739,12.705-8.629,19.798-5.823c2.438,0.962,4.721,2.428,6.69,4.398
	C229.929,194.3,229.929,206.795,222.22,214.504z"/>
<path fill="#C38C66" d="M114.796,222.325c-9.314-15.53-6.868-35.411,5.939-48.224l11.136-11.136
	c-7.513-6.336-19.162-6.42-26.707,1.121l-13.14,13.139c-9.604,9.604-11.439,24.518-4.454,36.167l12.396,20.656
	c5.729,9.548,17.463,11.925,26.227,7.289L114.796,222.325z"/>
<path fill="#ECBD83" d="M208.838,214.504c-7.709-7.709-7.709-20.204,0-27.913c1.971-1.97,4.259-3.437,6.691-4.398
	c-7.093-2.806-15.483-1.34-21.222,4.398c-7.709,7.709-7.709,20.204,0,27.913c5.738,5.738,14.129,7.204,21.222,4.398
	C213.097,217.94,210.809,216.474,208.838,214.504z"/>
<path fill="#9B959D" d="M229.2,137.747c-1.975,1.97-4.258,3.437-6.69,4.398c-7.098,2.806-13.803-0.35-19.541-6.084
	c-7.704-7.709-7.508-16.641,0.196-24.35c5.738-5.734,12.247-9.082,19.345-6.28c2.433,0.962,4.716,2.428,6.69,4.403
	C236.905,117.539,236.905,130.038,229.2,137.747z"/>
<path fill="#857E87" d="M215.819,137.747c-7.709-7.709-7.709-20.204,0-27.913c1.966-1.97,4.254-3.436,6.691-4.403
	c-7.098-2.806-15.483-1.335-21.227,4.403c-7.704,7.709-7.704,20.204,0,27.913c5.738,5.738,14.129,7.205,21.227,4.398
	C220.073,141.184,217.784,139.717,215.819,137.747z"/>
<path fill="#D19A6E" d="M472.67,192.171l16.618-12.677c11.649-6.99,22.925-2.983,32.534,6.621l12.532,10.842
	c7.55,7.55,11.038,17.411,4.684,24.919c-1.663,1.965-3.755,3.646-6.257,4.898l-17.365,8.68c-8.74,4.371-19.073,4.146-27.618-0.598
	l-19.278-10.711c-3.54-1.97-6.164-4.763-7.854-7.952C456.025,207.43,463.121,197.9,472.67,192.171z"/>
<path fill="#F6D190" d="M487.495,312.22c-1.971-1.97-3.437-4.253-4.398-6.691c-2.807-7.092,0.21-13.933,5.948-19.671
	c7.709-7.709,17.229-7.835,24.938-0.126c5.739,5.739,8.629,12.705,5.823,19.797c-0.962,2.438-2.429,4.721-4.398,6.691
	C507.698,319.929,495.203,319.929,487.495,312.22z"/>
<path fill="#C38C66" d="M479.674,204.796c15.529-9.315,35.411-6.868,48.224,5.939l11.136,11.136
	c6.336-7.513,6.42-19.162-1.121-26.708l-13.139-13.139c-9.604-9.604-24.518-11.439-36.168-4.45l-20.656,12.392
	c-9.548,5.729-11.925,17.467-7.288,26.227L479.674,204.796z"/>
<path fill="#ECBD83" d="M487.495,298.838c7.708-7.708,20.203-7.708,27.912,0c1.97,1.97,3.437,4.258,4.398,6.691
	c2.806-7.092,1.34-15.483-4.398-21.221c-7.709-7.709-20.204-7.709-27.912,0c-5.739,5.738-7.205,14.129-4.398,21.221
	C484.059,303.097,485.525,300.809,487.495,298.838z"/>
<path fill="#9B959D" d="M564.251,319.201c-1.97-1.975-3.437-4.258-4.398-6.691c-2.806-7.097,0.351-13.802,6.084-19.541
	c7.709-7.704,16.642-7.508,24.351,0.196c5.733,5.738,9.081,12.247,6.279,19.344c-0.962,2.433-2.428,4.716-4.402,6.691
	C584.46,326.905,571.96,326.905,564.251,319.201z"/>
<path fill="#857E87" d="M564.251,305.819c7.709-7.709,20.204-7.709,27.913,0c1.97,1.966,3.437,4.253,4.402,6.691
	c2.807-7.097,1.336-15.483-4.402-21.226c-7.709-7.704-20.204-7.704-27.913,0c-5.738,5.738-7.204,14.129-4.398,21.226
	C560.815,310.072,562.281,307.785,564.251,305.819z"/>
<path fill="#D19A6E" d="M139.328,599.828l-16.617,12.677c-11.65,6.989-22.926,2.983-32.535-6.621l-12.532-10.842
	c-7.55-7.55-11.038-17.411-4.684-24.92c1.663-1.965,3.755-3.646,6.257-4.897l17.365-8.68c8.74-4.371,19.073-4.146,27.618,0.598
	l19.278,10.711c3.54,1.97,6.164,4.763,7.854,7.951C155.974,584.569,148.877,594.099,139.328,599.828z"/>
<path fill="#F6D190" d="M124.504,479.778c1.97,1.971,3.437,4.254,4.397,6.691c2.807,7.092-0.21,13.933-5.948,19.671
	c-7.709,7.709-17.229,7.835-24.938,0.126c-5.739-5.738-8.629-12.705-5.823-19.797c0.962-2.438,2.429-4.721,4.398-6.691
	C104.3,472.069,116.795,472.069,124.504,479.778z"/>
<path fill="#C38C66" d="M132.324,587.202c-15.529,9.315-35.411,6.868-48.224-5.939l-11.136-11.136
	c-6.336,7.513-6.42,19.162,1.121,26.708l13.139,13.139c9.604,9.604,24.518,11.439,36.168,4.45l20.656-12.393
	c9.548-5.729,11.925-17.467,7.288-26.227L132.324,587.202z"/>
<path fill="#ECBD83" d="M124.504,493.16c-7.709,7.709-20.204,7.709-27.913,0c-1.97-1.97-3.437-4.258-4.398-6.69
	c-2.806,7.092-1.34,15.482,4.398,21.221c7.709,7.709,20.204,7.709,27.913,0c5.738-5.738,7.204-14.129,4.397-21.221
	C127.941,488.902,126.474,491.19,124.504,493.16z"/>
<path fill="#9B959D" d="M47.747,472.798c1.97,1.976,3.437,4.259,4.398,6.691c2.806,7.097-0.351,13.802-6.084,19.54
	c-7.709,7.704-16.642,7.509-24.35-0.196c-5.734-5.738-9.082-12.247-6.28-19.344c0.962-2.433,2.428-4.716,4.402-6.691
	C27.539,465.094,40.038,465.094,47.747,472.798z"/>
<path fill="#857E87" d="M47.747,486.18c-7.709,7.709-20.204,7.709-27.913,0c-1.97-1.966-3.437-4.253-4.402-6.69
	c-2.807,7.097-1.336,15.482,4.402,21.226c7.709,7.704,20.204,7.704,27.913,0c5.738-5.738,7.204-14.129,4.398-21.226
	C51.184,481.927,49.717,484.214,47.747,486.18z"/>
<path fill="#D19A6E" d="M509.827,562.671l12.677,16.617c6.99,11.649,2.984,22.926-6.621,32.535l-10.842,12.532
	c-7.55,7.55-17.411,11.037-24.919,4.683c-1.966-1.662-3.646-3.754-4.898-6.257l-8.68-17.364c-4.37-8.741-4.146-19.074,0.598-27.618
	l10.711-19.279c1.971-3.539,4.763-6.163,7.952-7.854C494.569,546.024,504.099,553.122,509.827,562.671z"/>
<path fill="#F6D190" d="M389.779,577.495c1.97-1.971,4.253-3.437,6.69-4.398c7.093-2.806,13.933,0.21,19.672,5.948
	c7.708,7.709,7.835,17.229,0.126,24.938c-5.738,5.738-12.705,8.629-19.798,5.822c-2.438-0.962-4.721-2.428-6.69-4.398
	C382.07,597.698,382.07,585.204,389.779,577.495z"/>
<path fill="#C38C66" d="M497.202,569.674c9.314,15.53,6.868,35.411-5.939,48.224l-11.136,11.136
	c7.513,6.337,19.162,6.421,26.707-1.12l13.14-13.14c9.604-9.604,11.439-24.518,4.449-36.167l-12.392-20.656
	c-5.729-9.549-17.468-11.926-26.227-7.289L497.202,569.674z"/>
<path fill="#ECBD83" d="M403.16,577.495c7.709,7.709,7.709,20.203,0,27.912c-1.971,1.971-4.259,3.437-6.691,4.398
	c7.093,2.807,15.483,1.34,21.222-4.398c7.709-7.709,7.709-20.203,0-27.912c-5.738-5.738-14.129-7.204-21.222-4.398
	C398.902,574.059,401.19,575.524,403.16,577.495z"/>
<path fill="#9B959D" d="M382.798,654.252c1.975-1.971,4.258-3.437,6.69-4.398c7.098-2.807,13.803,0.351,19.541,6.084
	c7.704,7.709,7.508,16.641-0.196,24.35c-5.738,5.733-12.247,9.082-19.345,6.28c-2.433-0.962-4.716-2.428-6.69-4.403
	C375.094,674.46,375.094,661.961,382.798,654.252z"/>
<path fill="#857E87" d="M396.18,654.252c7.709,7.709,7.709,20.203,0,27.912c-1.966,1.971-4.254,3.437-6.691,4.403
	c7.098,2.806,15.483,1.335,21.227-4.403c7.704-7.709,7.704-20.203,0-27.912c-5.738-5.738-14.129-7.205-21.227-4.398
	C391.926,650.815,394.214,652.281,396.18,654.252z"/>
</svg>
