<?xml version="1.0" encoding="utf-8"?>
<!-- Generator: Adobe Illustrator 16.0.0, SVG Export Plug-In . SVG Version: 6.00 Build 0)  -->
<!DOCTYPE svg PUBLIC "-//W3C//DTD SVG 1.1//EN" "http://www.w3.org/Graphics/SVG/1.1/DTD/svg11.dtd">
<svg version="1.1" id="icon_jquery" xmlns="http://www.w3.org/2000/svg" xmlns:xlink="http://www.w3.org/1999/xlink" viewBox="0 0 612 792" enable-background="new 0 0 612 792" xml:space="preserve">
<g>
	<path fill="#FF641A" d="M485.764,150.751c-7.33-5.14-40.227,15.492-47.941,11.185c-5.333-2.978-10.691-5.896-16.17-8.502
		c-5.822-2.77-37.083,20.02-43.033,17.649c-6.176-2.461,12.957-30.068,6.632-32.009c-13.672-4.198-27.617-7.099-41.687-9.075
		c-8.981-1.261-43.381,23.308-52.415,22.948c-7.089-0.283,11.192-25.664,4.093-25.387c-65.353,2.558-129.956,28.434-179.743,78.221
		c-62.09,62.091-87.145,147.168-75.782,228.067c0.992,7.054,27.594-11.305,29.097-4.33c1.493,6.934-22.115,39.198-20.022,46.017
		c5.581,18.176,13.253,35.805,22.801,52.652c4.214,7.436-16.457,40.028-11.41,47.084c2.423,3.386,30.307-18.646,32.868-15.326
		c3.424,4.43,6.67,8.951,10.401,13.213c3.933,4.494,33.144-16.33,37.428-12.047c4.283,4.283-16.541,33.495-12.048,37.429
		c4.341,3.801,8.943,7.115,13.46,10.595c10.074,7.763,20.44,14.959,31.27,21.112c16.924,9.616,34.629,17.344,52.895,22.953
		c6.653,2.043,38.75-21.603,45.518-20.131c7.137,1.551-11.054,28.191-3.831,29.206c80.899,11.362,165.977-13.692,228.065-75.782
		c49.786-49.787,75.663-114.391,78.221-179.743c0.277-7.097-25.106,11.188-25.387,4.104c-0.359-9.04,24.209-43.443,22.948-52.428
		c-4.6-32.747-15.855-64.497-32.405-94.067c-6.19-11.063-13.057-21.782-20.947-32.051c-6.996-9.108-14.09-18.181-22.431-26.524
		c-8.315-8.315-17.178-15.706-26.272-22.652C466.787,180.724,488.986,153.009,485.764,150.751z"/>
	<path fill="#F03800" d="M39.717,433.848c0.992,7.054,27.594-11.305,29.097-4.33c1.493,6.934-22.115,39.198-20.022,46.017
		c5.581,18.176,13.253,35.805,22.801,52.652c4.214,7.436-16.457,40.028-11.41,47.084c2.423,3.386,30.307-18.646,32.868-15.326
		c3.424,4.43,6.67,8.951,10.401,13.213c3.933,4.494,33.144-16.33,37.428-12.047c4.283,4.283-16.541,33.495-12.048,37.429
		c4.341,3.801,8.943,7.115,13.46,10.595c10.074,7.763,20.44,14.959,31.27,21.112c16.924,9.616,34.629,17.344,52.895,22.953
		c6.653,2.043,38.75-21.603,45.518-20.131c7.137,1.551-11.054,28.191-3.831,29.206c80.899,11.362,165.977-13.692,228.065-75.782
		l-380.708-380.71C53.409,267.872,28.355,352.949,39.717,433.848z"/>
	<path fill="#F03800" d="M381.996,345.375c-13.991,13.992-36.77,13.992-50.761,0c-13.991-13.991-13.991-36.769,0-50.76
		c13.991-13.992,36.77-13.992,50.761,0C395.988,308.606,395.988,331.383,381.996,345.375z"/>
	<g>
		<path fill="#F03800" d="M385.296,139.031l-89.087,89.086c-28.68,28.68-47.717,64.466-55.075,103.299
			c-2.539,12.688-3.808,26.143-3.808,39.338c-0.254,44.416-17.513,86.042-48.73,117.26l-85.025,85.024
			c3.807,4.823,7.612,9.136,11.929,13.453c4.314,4.314,8.629,8.12,13.453,11.929l85.024-85.025
			c38.071-38.07,59.137-88.578,58.882-142.638c0.001-2.539,0.256-4.823,0.253-7.362c2.03-41.624,19.037-80.456,48.478-109.896
			l100-100C409.914,147.913,397.732,142.839,385.296,139.031z"/>
		<path fill="#CD0000" d="M188.596,488.015l-85.025,85.024c3.807,4.823,7.612,9.136,11.929,13.453
			c4.314,4.314,8.629,8.12,13.453,11.929l85.024-85.025c38.071-38.07,59.137-88.578,58.882-142.638
			c0.001-2.539,0.256-4.823,0.253-7.362l-31.979-31.979c-2.539,12.688-3.809,26.143-3.809,39.338
			C237.073,415.171,219.814,456.797,188.596,488.015z"/>
		<path fill="#F03800" d="M295.195,127.609l-63.451,63.451c-22.081,22.081-41.118,46.701-56.854,74.111
			c-4.313,6.854-8.121,14.213-11.929,21.573c-15.989,31.725-37.057,60.915-62.183,86.042l-61.167,61.167
			c2.285,13.959,5.076,27.918,9.137,41.624l77.41-77.41c27.919-27.919,51.016-60.152,68.78-95.686
			c1.778-3.807,4.063-7.615,6.093-11.167c14.975-27.666,34.01-52.792,56.092-74.873l86.547-86.547
			C327.428,127.863,311.438,127.103,295.195,127.609z"/>
		<path fill="#CD0000" d="M100.779,372.787l-61.166,61.167c2.285,13.959,5.075,27.918,9.136,41.624l77.41-77.41
			c27.92-27.919,51.016-60.152,68.781-95.686c1.777-3.807,4.062-7.615,6.092-11.167l-26.143-26.143
			c-4.313,6.854-8.121,14.213-11.929,21.573C146.971,318.47,125.906,347.66,100.779,372.787z"/>
		<path fill="#F03800" d="M448.492,481.923c-9.645,9.646-20.304,17.767-32.233,24.618c-8.63,5.077-17.767,9.139-27.412,12.184
			c-27.409,9.137-52.791,24.873-73.349,45.431l-89.086,89.087c13.705,4.061,27.665,6.853,41.624,9.136l72.843-72.842
			c16.75-16.751,37.054-29.442,59.646-36.802c14.465-4.82,28.679-11.422,41.623-20.304c11.42-6.854,22.08-15.482,31.727-25.127
			l100.508-100.509c0.506-16.241-0.254-32.233-2.285-48.476L448.492,481.923z"/>
		<path fill="#CD0000" d="M315.498,564.155l-89.086,89.087c13.705,4.061,27.665,6.853,41.624,9.136l72.843-72.842
			c16.75-16.751,37.054-29.442,59.646-36.802c14.465-4.82,28.679-11.422,41.623-20.304l-25.889-25.89
			c-8.63,5.077-17.767,9.139-27.412,12.184C361.438,527.862,336.057,543.598,315.498,564.155z"/>
	</g>
	<path fill="#FFD396" d="M437.833,162.127c11.167,6.091,21.827,13.198,32.232,21.066c67.26-47.969,103.323-60.445,107.383-60.446
		c3.554,10.66-19.312,53.594-58.907,109.43c-37.055,52.791-94.668,122.08-174.617,202.031
		c-79.949,79.95-148.984,137.308-201.774,174.871c-55.584,39.848-97.828,62.802-107.473,60.264
		c-2.029-6.091,10.265-41.736,58.233-109.503c-7.614-10.15-14.975-20.559-21.318-31.472C-10.388,640.297-6.439,678.48,8.535,693.455
		c26.396,26.395,97.318-13.564,165.087-63.057c92.384-68.02,188.83-163.957,195.683-170.811
		c6.854-6.854,102.537-103.046,170.305-195.177c49.745-68.022,90.631-139.125,63.981-165.775
		C588.616,83.661,550.014,79.894,437.833,162.127z"/>
	<path fill="#FFB64C" d="M142.15,609.079c-55.584,39.848-97.828,62.802-107.473,60.264c-2.029-6.091,10.265-41.736,58.233-109.503
		c-7.614-10.15-14.975-20.559-21.318-31.472C-10.388,640.297-6.439,678.48,8.535,693.455
		c26.396,26.395,97.318-13.564,165.087-63.057c92.384-68.02,188.83-163.957,195.683-170.811l-25.38-25.381
		C263.976,514.157,194.94,571.516,142.15,609.079z"/>
</g>
</svg>
