<svg xmlns="http://www.w3.org/2000/svg" xmlns:xlink="http://www.w3.org/1999/xlink" 
    viewBox="0 0 512 512" enable-background="new 0 0 512 512" xml:space="preserve">
    <style>
        .fishing { animation: float 2s infinite linear; transform-origin: 80% 0; }
        @keyframes float { 
        from { transform: rotateZ(-12deg); }
        50% { transform: rotateZ(-2deg); }
        to { transform: rotateZ(-12deg); }
        }
    </style>
    <g class="fishing">
    <path  style="fill:#9FC9D3" d="M379.586,376.231c-2.982,0.011-5.77-1.486-7.408-3.979c-1.638-2.493-1.906-5.645-0.713-8.379
    l52.26-118.555V140.182c0-4.875,3.952-8.828,8.827-8.828s8.827,3.952,8.827,8.828c0,116.347,0,108.049-0.706,110.521
    l-52.966,120.055C386.354,374.055,383.15,376.214,379.586,376.231z"/>
    <path id="Shape_1_" style="fill:#9FC9D3" d="M485.518,376.231c-3.521,0.013-6.713-2.069-8.122-5.296l-52.965-120.232
    c-1.06-2.384-0.706,6.796-0.706-110.521c0-4.875,3.952-8.828,8.827-8.828s8.827,3.952,8.827,8.828v105.137l52.26,118.554
    c1.193,2.734,0.925,5.886-0.714,8.379C491.287,374.745,488.5,376.242,485.518,376.231L485.518,376.231z"/>
    
    <circle id="Oval_2_" style="fill:#95A5A5" cx="432.552" cy="414.896" r="79.448"/>
    <circle id="Oval_3_" style="fill:#7F8C8D" cx="401.655" cy="418.251" r="22.069"/>
    <path id="Shape_21_" style="fill:#7F8C8D" d="M511.294,425.048c-3.08,23.783-16.737,44.903-37.164,57.468
    c-13.967-4.702-23.544-17.583-24.025-32.312c-0.48-14.729,8.235-28.208,21.865-33.812C485.6,410.79,501.276,414.24,511.294,425.048
    L511.294,425.048z"/>
    <path id="Shape_22_" style="fill:#7F8C8D" d="M467.862,347.63c-1.305,13.362-13.104,23.195-26.483,22.069
    c-20.127,0-33.015-17.655-23.039-33.015c16.666-3.024,33.863-0.644,49.081,6.797C467.677,344.851,467.824,346.238,467.862,347.63z"/>
    </g>
    
    <path id="Shape_2_" style="fill:#2C3E50" d="M40.607,296.96c-8.758-3.475-15.011-11.341-16.419-20.657L3.443,137.799
    c-1.978-13.152,6.106-25.731,18.891-29.396l61.793-20.127l-4.679,221.661C65.985,307.344,52.925,302.98,40.607,296.96z"/>
    <!--궁디그림자 <path id="Shape_3_" style="fill:#7F8C8D" d="M247.172,347.807c0,21.981,1.06,28.514-3.09,36.812c-3.493,7.391-9.796,13.078-17.505,15.797
    c-7.709,2.72-16.186,2.244-23.542-1.32c-10.718-5.13-17.571-15.924-17.655-27.807v17.126c0.203,14.83-9.99,27.783-24.453,31.073
    c-9.181,1.992-18.77-0.313-26.042-6.261c-7.271-5.948-11.432-14.89-11.299-24.283v-57.291c0.121-4.155-2.673-7.832-6.709-8.827
    c-45.286-11.212-40.96-10.063-42.814-10.771c-5.734-1.949-10.768-5.541-14.477-10.328c29.169-24.719,68.422-33.953,105.553-24.832
    C202.27,286.016,232.776,312.386,247.172,347.807L247.172,347.807z"/> -->
    <path id="Shape_4_" style="fill:#35495E" d="M247.172,269.241c0,93.838,1.147,92.689-3.09,101.518c-3.477,7.406-9.773,13.113-17.484,15.85
    s-16.196,2.273-23.564-1.284c-10.718-5.131-17.571-15.925-17.655-27.807v16.772c0.203,14.83-9.99,27.783-24.453,31.072
    c-9.12,1.979-18.645-0.282-25.902-6.149c-7.257-5.868-11.463-14.708-11.438-24.04v-57.38c0.121-4.155-2.673-7.831-6.709-8.827
    c-44.756-10.771-40.96-9.711-42.814-10.417c-12.551-4.339-21.004-16.117-21.098-29.396v-96.486l139.299-9.887l47.051,85.893
    C244.386,254.323,247.185,261.65,247.172,269.241L247.172,269.241z"/>
    <path id="Shape_5_" style="fill:#2C3E50" d="M203.035,273.655v111.669c-10.777-5.064-17.657-15.899-17.655-27.807
    c0-92.955,1.147-88.276-3.266-95.427c-2.255-2.686-2.706-6.452-1.149-9.594c1.557-3.143,4.826-5.065,8.329-4.899
    c3.503,0.167,6.575,2.39,7.828,5.666C200.914,259.395,202.958,266.445,203.035,273.655L203.035,273.655z"/>
    <path id="Shape_6_" style="fill:#3F5C6C" d="M176.552,187.586c21.01,46.345,2.472,52.965,10.946,71.238
    c11.034,24.188,66.383,26.483,50.582-54.73c-2.913-15.184-8.21-36.987-20.48-47.492L176.552,187.586z"/>
    <path id="Shape_7_" style="fill:#A56A43" d="M185.379,317.793c17.037-19.155,41.754-46.168,58.792-61.793
    c46.345-42.902,124.999-103.106,218.659-123.586c9.019-2.527,14.494-11.656,12.478-20.802s-10.824-15.125-20.069-13.625
    c-80.949,17.655-176.551,68.325-266.328,163.223c-1.248,1.135-2.427,2.343-3.531,3.619V317.793z"/>
    <g>
    <path id="Shape_8_" style="fill:#F0C419" d="M308.965,105.931c-4.875,0-8.827-3.952-8.827-8.828V61.793c0-4.875,3.952-8.828,8.827-8.828
        c4.876,0,8.828,3.953,8.828,8.828v35.311C317.793,101.979,313.841,105.931,308.965,105.931z"/>
    <path id="Shape_9_" style="fill:#F0C419" d="M326.621,88.276h-35.311c-4.875,0-8.828-3.952-8.828-8.828s3.953-8.828,8.828-8.828h35.311
        c4.875,0,8.827,3.952,8.827,8.828S331.496,88.276,326.621,88.276z"/>
    <path id="Shape_10_" style="fill:#F0C419" d="M361.932,291.311c-4.876,0-8.828-3.953-8.828-8.828v-35.31c0-4.875,3.952-8.828,8.828-8.828
        c4.875,0,8.827,3.952,8.827,8.828v35.31C370.759,287.357,366.807,291.311,361.932,291.311z"/>
    <path id="Shape_11_" style="fill:#F0C419" d="M379.586,273.655h-35.311c-4.875,0-8.827-3.952-8.827-8.827
        c0-4.876,3.952-8.828,8.827-8.828h35.311c4.875,0,8.828,3.952,8.828,8.828C388.414,269.703,384.461,273.655,379.586,273.655z"/>
    <path id="Shape_12_" style="fill:#F0C419" d="M467.862,52.965c-4.876,0-8.828-3.952-8.828-8.828V8.828c0-4.875,3.952-8.828,8.828-8.828
        c4.875,0,8.827,3.952,8.827,8.828v35.31C476.689,49.013,472.737,52.965,467.862,52.965z"/>
    <path id="Shape_13_" style="fill:#F0C419" d="M485.518,35.311h-35.311c-4.875,0-8.828-3.953-8.828-8.828c0-4.875,3.953-8.828,8.828-8.828
        h35.311c4.875,0,8.827,3.952,8.827,8.828C494.345,31.358,490.393,35.311,485.518,35.311z"/>
    </g>
    <path id="Shape_16_" style="fill:#3F5C6C" d="M56.85,145.037c-3.443,5.738-3.354,8.298-5.915,23.923
    c-5.74,34.4,11.625,68.521,42.814,84.127c57.379,28.602,56.938,29.396,65.147,29.396c9.567-0.008,18.387-5.176,23.07-13.518
    c4.684-8.344,4.503-18.563-0.472-26.736c-5.296-8.828-11.917-10.417-33.81-21.451l-30.19-15.095
    c-7.564-3.766-12.877-10.915-14.301-19.244L56.85,145.037z"/>
    <path id="Shape_17_" style="fill:#547580" d="M44.138,97.104c0,53.629,43.475,97.104,97.104,97.104c53.629,0,97.104-43.475,97.104-97.104
    S194.87,0,141.241,0C87.613,0,44.138,43.475,44.138,97.104z"/>
    <path id="Shape_18_" style="fill:#F0C419" d="M226.075,144.331c-36.37,22.775-91.189,18.273-120.144-9.269
    c-42.726-40.342-3.708-99.751,66.207-99.751c18.986-0.271,37.668,4.774,53.937,14.565
    C242.419,79.24,242.419,114.967,226.075,144.331z"/>
    <path id="Shape_19_" style="fill:#F9EAB0" d="M211.862,105.931c-4.875,0-8.828-3.952-8.828-8.828c0-26.483-33.898-26.483-35.311-26.483
    c-4.875,0-8.828-3.952-8.828-8.828c0-4.875,3.952-8.828,8.828-8.828c18.361,0,52.965,9.269,52.965,44.138
    C220.689,101.979,216.737,105.931,211.862,105.931z"/>
    <path id="Shape_20_" style="fill:#F29C1F" d="M234.726,123.586c-2.095,7.301-5.059,14.326-8.828,20.921
    c-25.97,15.11-57.06,18.725-85.804,9.975C95.161,140.888,76.005,102.4,95.956,71.327
    C124.027,104.077,169.048,135.15,234.726,123.586L234.726,123.586z"/>
</svg>