<?xml version="1.0" encoding="utf-8"?>
<!-- Generator: Adobe Illustrator 16.0.0, SVG Export Plug-In . SVG Version: 6.00 Build 0)  -->
<!DOCTYPE svg PUBLIC "-//W3C//DTD SVG 1.1//EN" "http://www.w3.org/Graphics/SVG/1.1/DTD/svg11.dtd">
<svg version="1.1" id="Layer_1" xmlns="http://www.w3.org/2000/svg" xmlns:xlink="http://www.w3.org/1999/xlink" viewBox="0 0 612 792" enable-background="new 0 0 612 792" xml:space="preserve">
<path fill="#F98B00" d="M378.123,324.819c-120.349-120.345-237.64-198.172-261.978-173.83
	c-24.343,24.343,53.484,141.634,173.829,261.979C410.32,533.313,527.611,611.141,551.953,586.798
	C576.296,562.46,498.468,445.169,378.123,324.819z"/>
<path fill="#FFEC6C" d="M385.758,317.185C222.754,154.176,55.017,57.629,11.105,101.541
	c-43.906,43.906,52.641,211.649,215.645,374.653c163.004,163.004,330.746,259.551,374.652,215.644
	C645.314,647.927,548.767,480.189,385.758,317.185z M551.953,586.798c-24.338,24.343-141.634-53.485-261.979-173.829
	C169.63,292.619,91.803,175.328,116.146,150.99c24.338-24.342,141.634,53.485,261.978,173.83
	C498.468,445.164,576.296,562.455,551.953,586.798z"/>
<path fill="#FFA300" d="M528.614,396.688c0,122.808-99.555,222.361-222.357,222.361c-122.808,0-222.362-99.554-222.362-222.361
	c0-122.803,99.555-222.357,222.362-222.357C429.059,174.33,528.614,273.884,528.614,396.688z"/>
<path fill="#FFBE00" d="M419.196,228.156c-74.193-74.194-197.353-71.333-275.078,6.392c-77.731,77.731-80.591,200.89-6.397,275.084
	c74.198,74.198,197.357,71.333,275.083-6.393S493.394,302.354,419.196,228.156z"/>
<path fill="#FFA300" d="M501.934,478.81c-0.87,0-1.766-0.04-2.661-0.122c-144.865-13.813-260.472-128.93-274.885-273.714
	c-1.517-15.273,9.634-28.888,24.907-30.41c15.273-1.517,28.888,9.629,30.415,24.897c11.807,118.431,106.348,212.591,224.83,223.884
	c14.759,1.409,25.813,14.158,25.121,28.974C528.964,467.135,516.76,478.79,501.934,478.81z"/>
<path fill="#F98B00" d="M501.934,478.81c-0.896,0-1.766-0.04-2.687-0.122c-10.663-1.022-21.264-2.601-31.759-4.732
	c-15.033-3.069-24.739-17.737-21.686-32.771c3.059-15.039,17.722-24.755,32.761-21.706c8.591,1.746,17.273,3.038,26.002,3.868
	c14.754,1.425,25.798,14.179,25.096,28.984C528.959,467.14,516.754,478.79,501.934,478.81z"/>
<path fill="#FFA300" d="M479.973,363.397c-4.605,0-9.141-1.15-13.191-3.338c-58.08-31.549-104.486-80.927-132.381-140.85
	c-6.443-13.924-0.382-30.44,13.548-36.888c13.925-6.443,30.44-0.382,36.889,13.548c22.836,49.052,60.828,89.462,108.384,115.275
	c11.202,6.056,16.856,18.948,13.727,31.29C503.823,354.776,492.707,363.413,479.973,363.397z"/>
<path fill="#FFA300" d="M417.435,605.15c-176.242,0-319.642-143.385-319.642-319.642c-0.01-15.36,12.434-27.814,27.794-27.814
	c15.359,0,27.803,12.454,27.793,27.814c0,145.598,118.456,264.055,264.055,264.055c15.359-0.011,27.813,12.434,27.813,27.793
	C445.248,592.717,432.794,605.165,417.435,605.15z"/>
<path fill="#F98B00" d="M417.435,605.15c-41.784,0.076-83.172-8.093-121.795-24.032c-14.194-5.843-20.958-22.089-15.11-36.283
	c5.848-14.189,22.093-20.953,36.282-15.1c31.915,13.15,66.106,19.889,100.623,19.828c15.359-0.011,27.813,12.434,27.813,27.793
	C445.248,592.717,432.794,605.165,417.435,605.15z"/>
<path fill="#FFEC6C" d="M226.749,476.194c68.143,68.143,136.992,124.426,197.398,163.936l65.923-65.919
	c-50.884-27.441-124.895-86.041-200.096-161.242c-75.201-75.207-133.801-149.212-161.243-200.097l-65.918,65.923
	C102.323,339.202,158.607,408.052,226.749,476.194z"/>
<path fill="#FFFF9D" d="M125.775,347.722c-8.677,0.025-16.871-4.026-22.118-10.937C79.96,305.744-35.865,148.486,11.095,101.541
	c9.762-9.762,25.208-10.876,36.272-2.621c11.064,8.26,14.388,23.386,7.807,35.519c0.733,17.212,23.371,77.823,92.669,168.633
	c6.407,8.397,7.496,19.701,2.819,29.167C145.98,341.711,136.341,347.711,125.775,347.722z M50.451,140.806
	c-0.025,0.015-0.025,0.025-0.051,0.041C50.426,140.832,50.426,140.821,50.451,140.806z"/>
<path fill="#FFFF9D" d="M458.72,656.849c-5.104,0-10.112-1.41-14.47-4.072C376.5,611.41,299.253,548.693,226.749,476.194
	c-25.896-25.896-50.375-52.065-72.718-77.741c-10.057-11.589-8.825-29.137,2.759-39.204c11.578-10.072,29.132-8.85,39.209,2.723
	c21.497,24.714,45.057,49.917,70.056,74.917c69.485,69.476,143.048,129.297,207.186,168.439c10.632,6.499,15.64,19.273,12.26,31.265
	C482.121,648.578,471.179,656.858,458.72,656.849z"/>
<path fill="#FFFF9D" d="M570.55,702.435c-17.289,0-38.38-5.522-64.493-16.882c-14.063-6.138-20.495-22.516-14.367-36.583
	c6.127-14.072,22.5-20.51,36.572-14.393c24.999,10.881,37.596,12.225,42.074,12.266c12.261-5.527,26.72-1.481,34.333,9.608
	c7.614,11.085,6.199,26.032-3.364,35.494C594.277,698.907,583.905,702.435,570.55,702.435z M562.275,652.37
	c-0.03,0.01-0.03,0.025-0.056,0.051C562.244,652.396,562.244,652.38,562.275,652.37z"/>
<g>
	<path fill="#D6DEFF" d="M111.688,424.485c0,15.35-12.444,27.794-27.794,27.794s-27.793-12.444-27.793-27.794
		s12.443-27.798,27.793-27.798S111.688,409.136,111.688,424.485z"/>
	<path fill="#D6DEFF" d="M500.82,118.738c0,15.35-12.443,27.793-27.793,27.793c-15.355,0-27.799-12.444-27.799-27.793
		s12.443-27.793,27.799-27.793C488.376,90.945,500.82,103.389,500.82,118.738z"/>
	<path fill="#D6DEFF" d="M611.998,271.609c0,7.68-6.22,13.899-13.895,13.899c-7.68,0-13.898-6.22-13.898-13.899
		c0-7.675,6.219-13.894,13.898-13.894C605.779,257.715,611.998,263.935,611.998,271.609z"/>
	<path fill="#D6DEFF" d="M28.302,605.15c0,7.68-6.219,13.898-13.894,13.898c-7.681,0-13.899-6.219-13.899-13.898
		c0-7.675,6.219-13.895,13.899-13.895C22.083,591.256,28.302,597.476,28.302,605.15z"/>
	<path fill="#D6DEFF" d="M278.458,688.535c0,7.68-6.22,13.899-13.895,13.899c-7.68,0-13.899-6.22-13.899-13.899
		c0-7.675,6.22-13.895,13.899-13.895C272.239,674.641,278.458,680.86,278.458,688.535z"/>
	<path fill="#D6DEFF" d="M556.411,480.072c0,15.354-12.448,27.799-27.798,27.799c-15.351,0-27.794-12.444-27.794-27.799
		c0-15.35,12.443-27.793,27.794-27.793C543.963,452.279,556.411,464.723,556.411,480.072z"/>
	<path fill="#D6DEFF" d="M111.688,104.839c0,7.68-6.22,13.899-13.895,13.899c-7.68,0-13.899-6.219-13.899-13.899
		c0-7.675,6.22-13.894,13.899-13.894C105.468,90.945,111.688,97.164,111.688,104.839z"/>
</g>
</svg>
