<?xml version="1.0" encoding="utf-8"?>
<!-- Generator: Adobe Illustrator 16.0.0, SVG Export Plug-In . SVG Version: 6.00 Build 0)  -->
<!DOCTYPE svg PUBLIC "-//W3C//DTD SVG 1.1//EN" "http://www.w3.org/Graphics/SVG/1.1/DTD/svg11.dtd">
<svg version="1.1" id="Layer_1" xmlns="http://www.w3.org/2000/svg" xmlns:xlink="http://www.w3.org/1999/xlink" x="0px" y="0px"
	 width="964px" height="554px" viewBox="0 0 964 554" enable-background="new 0 0 964 554" xml:space="preserve">
<path fill="none" stroke="#FFFFFF" stroke-width="8" stroke-linecap="round" stroke-miterlimit="10" d="M362.808,205.522
	c-0.174,5.723-7.816,4.983-8.338,4.983c-0.522,0-3.476-0.88-3.994,3.594c-0.521,4.474-5.559,3.738-5.559,3.738
	c-6.08,0-6.08,4.839-6.08,4.839h-75.213c0,0,1.16-4.35-5.744-4.802c-5.49-0.359-5.604-2.603-5.604-2.603s0.231-5.157-3.706-5.157
	c-9.897,0-9.09-4.594-9.09-4.594"/>
<path fill="none" stroke="#FFFFFF" stroke-width="8" stroke-linecap="round" stroke-miterlimit="10" d="M375.95,68.994
	c0,0,0,127.237,0,131.148c0,3.91-5.096,5.379-5.096,5.379S250.597,205.373,240,205.52c-10.599,0.147-10.943-5.279-10.943-5.279
	l1.216-131.1"/>
<path fill="none" stroke="#FFFFFF" stroke-width="8" stroke-linecap="round" stroke-miterlimit="10" d="M255.981,235.729
	c0,0-4.169,1.173-4.862,6.16c-0.695,4.986,0,22.583,0,22.583s-1.042,6.453,6.601,6.747c7.643,0.293,84.768,0,84.768,0
	s5.211-0.587,6.947-5.866v-24.344c0,0,1.39-3.226-7.463-5.28"/>
<path fill="none" stroke="#FFFFFF" stroke-width="8" stroke-linecap="round" stroke-miterlimit="10" d="M227.954,69.136
	c0,0-6.484,0.391-6.484-5.866s0-32.263,0-32.263s0.248-4.926,8.803-4.985c9.207-0.065,146.038-0.065,146.038-0.065
	s4.342-0.962,5.906,3.731v34.169c0,0,0,4.203-3.243,4.692L227.954,69.136z"/>
<path fill="none" stroke="#FFFFFF" stroke-width="8" stroke-linecap="round" stroke-miterlimit="10" d="M276.999,68.94v52.402
	c0,0-1.216,3.96,5.385,4.693c6.601,0.733,31.254,0.69,39.256,0c1.506-1.248,3.35-1.759,3.3-6.159
	c-0.062-5.59,0.05-50.937,0.05-50.937L276.999,68.94L276.999,68.94z"/>
<path fill="none" stroke="#FFFFFF" stroke-width="8" stroke-linecap="round" stroke-miterlimit="10" d="M265.014,222.677
	c0,0-8.89-0.301-9.063,2.778c-0.175,3.08,0.03,10.273,0.03,10.273h88.762v-9.385c0,0,0.521-3.667-7.296-3.667
	C329.632,222.677,265.014,222.677,265.014,222.677z"/>
<line fill="none" stroke="#FFFFFF" stroke-width="8" stroke-linecap="round" stroke-miterlimit="10" x1="245.907" y1="79.988" x2="245.907" y2="148.033"/>
<line fill="none" stroke="#FFFFFF" stroke-width="8" stroke-linecap="round" stroke-miterlimit="10" x1="245.907" y1="168.563" x2="245.907" y2="191.147"/>
<path fill="none" stroke="#FFFFFF" stroke-width="8" stroke-linecap="round" stroke-miterlimit="10" d="M340.054,54.765
	c0,0,17.021-10.852,23.623-19.065"/>
<path fill="none" stroke="#FFFFFF" stroke-width="8" stroke-linecap="round" stroke-miterlimit="10" d="M359.507,56.231
	c0,0,5.212-2.934,6.602-4.986"/>
<path fill="none" stroke="#FFFFFF" stroke-width="8" stroke-linecap="round" stroke-miterlimit="10" d="M315.29,262.338
	c0,0,15.636-10.853,22.233-19.065"/>
<path fill="none" stroke="#FFFFFF" stroke-width="8" stroke-linecap="round" stroke-miterlimit="10" d="M330.576,261.458
	c0,0,5.21-2.932,6.603-4.986"/>
<path fill="none" stroke="#FFFFFF" stroke-width="8" stroke-linecap="round" stroke-miterlimit="10" d="M250.807,243.272H125.704
	c0,0-12.564,1.842-12.506,13.199l-0.06,52.875c0,0,9.091,4.693,18.123,0v-47.008c0,0,0.694-3.895,6.948-3.373h112.73
	L250.807,243.272z"/>
<path fill="none" stroke="#FFFFFF" stroke-width="8" stroke-linecap="round" stroke-miterlimit="10" d="M113.139,309.346
	c0,0-13.491,2.25-13.954,7.725c-0.464,5.477-30.573,91.896,4.169,190.84h41.227c0,0,33.583-99.282,1.389-191.62
	c0,0-5.327-4.892-14.707-6.942"/>
<path fill="none" stroke="#FFFFFF" stroke-width="8" stroke-linecap="round" stroke-miterlimit="10" d="M103.355,507.909
	c0,0-15.288-2.054-15.288,6.451v10.561c0,0-0.708,6.159,10.539,6.159c4.686,0,285.682,0,285.682,0s7.762-1.956,7.762-6.355
	c0-4.396,0-9.773,0-9.773s-0.464-6.259-6.369-7.04h-28.49H144.58"/>
<path fill="none" stroke="#FFFFFF" stroke-width="8" stroke-linecap="round" stroke-miterlimit="10" d="M113.082,332.322
	c0,0-3.706,4.693-2.78,13.688c0.927,8.993-0.09,39.889-0.09,39.889s0.898,10.705-4.542,15.252"/>
<path fill="none" stroke="#FFFFFF" stroke-width="8" stroke-linecap="round" stroke-miterlimit="10" d="M105.67,421.483
	c0,0,3.705,1.563,3.705,11.731v43.018"/>
<g>
	<polyline fill="none" stroke="#FFFFFF" stroke-width="8" stroke-linecap="round" stroke-miterlimit="10" points="244.572,507.692 
		237.624,445.73 359.972,445.73 353.948,507.692 	"/>
</g>
<line fill="none" stroke="#FFFFFF" stroke-width="8" stroke-linecap="round" stroke-miterlimit="10" x1="261.018" y1="470.513" x2="262.408" y2="493.978"/>
<line fill="none" stroke="#FFFFFF" stroke-width="8" stroke-linecap="round" stroke-miterlimit="10" x1="280.82" y1="469.34" x2="282.209" y2="496.47"/>
<line fill="none" stroke="#FFFFFF" stroke-width="8" stroke-linecap="round" stroke-miterlimit="10" x1="300.796" y1="470.513" x2="300.796" y2="493.978"/>
<line fill="none" stroke="#FFFFFF" stroke-width="8" stroke-linecap="round" stroke-miterlimit="10" x1="320.425" y1="469.34" x2="319.033" y2="496.91"/>
<line fill="none" stroke="#FFFFFF" stroke-width="8" stroke-linecap="round" stroke-miterlimit="10" x1="340.054" y1="470.66" x2="338.661" y2="495.443"/>
<path fill="none" stroke="#FFFFFF" stroke-width="8" stroke-linecap="round" stroke-miterlimit="10" d="M270.499,271.349v6.005
	c0,0-59.682,11.755-59.682,68.431c0,53.213,49.316,77.975,88.458,77.975c39.896,0,91.38-23.781,91.38-74.996
	c0-58.285-60.079-71.409-60.079-71.409v-6.096L270.499,271.349z"/>
<g id="XMLID_1_">
	<g>
		<path fill="none" stroke="#FFFFFF" stroke-width="8" stroke-linecap="round" stroke-miterlimit="10" d="M282.384,271.344v103.674
			c0,0,0,8.838,8.341,8.799h19.451c0,0,8.342,0.49,8.342-9.1V271.344H282.384z"/>
	</g>
</g>
<path fill="none" stroke="#FFFFFF" stroke-width="8" stroke-linecap="round" stroke-miterlimit="10" d="M229.057,357.741
	c0,0-9.356-39.683,26.823-56.9"/>
<path fill="none" stroke="#FFFFFF" stroke-width="8" stroke-linecap="round" stroke-miterlimit="10" d="M235.918,377.098
	c0,0,8.077,14.959,21.189,21.118"/>
<path fill="none" stroke="#FFFFFF" stroke-width="8" stroke-linecap="round" stroke-miterlimit="10" d="M282.385,271.345"/>
<path fill="none" stroke="#FFFFFF" stroke-width="8" stroke-linecap="round" stroke-miterlimit="10" d="M318.518,271.345"/>
<g enable-background="new    ">
	<path fill="#FFFFFF" d="M560.804,241.454c0.289,0.867,0.434,2.218,0.434,4.047c-0.097,2.507-0.169,4.963-0.217,7.37
		c-0.05,2.41-0.072,4.819-0.072,7.227c0,1.928-0.241,6.166-0.723,12.717c-0.097,1.351-0.146,3.18-0.146,5.492
		c2.022,0.867,3.034,2.266,3.034,4.19c0,2.41-1.443,3.469-4.335,3.18c-4.046,0-7.781,0.122-11.2,0.361
		c-3.421,0.242-7.059,0.556-10.911,0.938c-2.021,0-4.335-0.336-6.937-1.012c-0.578,3.952-1.688,5.926-3.324,5.926
		c-1.444,0-2.168-1.685-2.168-5.059c-0.771-8.574-1.542-17.197-2.313-25.868c-0.578-4.142-1.351-6.84-2.313-8.094
		c-0.964-1.251-2.602-2.601-4.914-4.046c-1.351-1.06-2.021-2.168-2.021-3.324c0-1.445,0.914-2.168,2.745-2.168
		c0.962,0,2.168,0.289,3.612,0.867c2.793,1.734,4.913,3.446,6.358,5.131c1.445,1.687,2.552,3.879,3.324,6.575
		c0.673,0.097,1.54,0.145,2.602,0.145c2.406,0,4.816-0.456,7.227-1.373c2.406-0.914,4.142-1.42,5.201-1.518
		c2.697,0,4.047,1.062,4.047,3.18c0,1.831-1.035,2.915-3.106,3.252c-2.072,0.339-5.469,1.133-10.188,2.384
		c-1.155,0.289-2.219,0.434-3.18,0.434c-0.867,0-1.59-0.095-2.168-0.289c0,2.699,0.095,6.022,0.289,9.972
		c0.191,3.952,0.289,6.555,0.289,7.805c1.445,0.289,2.746,0.435,3.902,0.435c3.563-0.384,7.104-0.795,10.62-1.229
		c3.517-0.434,7.443-0.649,11.779-0.649c0-3.18-0.483-11.898-1.445-26.158c0-1.54,0.048-3.371,0.146-5.491
		c0-2.215-0.289-3.83-0.867-4.842c-0.578-1.012-2.073-2.721-4.479-5.13c-0.966-0.962-1.445-1.879-1.445-2.746
		c0-1.637,0.914-2.457,2.746-2.457c0.962,0,1.926,0.339,2.891,1.012c1.539,1.062,3.273,2.843,5.202,5.348
		C559.84,239.432,560.515,240.587,560.804,241.454z M599.968,219.632c0.289,0.867,0.434,1.977,0.434,3.324
		c-0.097,1.351-0.193,2.818-0.289,4.408c-0.097,1.59-0.145,4.071-0.145,7.442v59.83c0,8.384-0.339,14.982-1.013,19.8
		c-0.193,1.444-0.771,5.105-1.732,10.982c-0.773,2.602-1.641,3.902-2.603,3.902c-0.965,0-1.301-1.352-1.012-4.047v-31.36
		c0-5.875-0.05-16.353-0.145-31.433c-0.099-15.077-0.146-25.699-0.146-31.866c0-1.059,0.022-2.07,0.072-3.034
		c0.047-0.962,0.072-1.879,0.072-2.746c0-2.504-0.361-4.625-1.084-6.358c-0.724-1.734-2.338-4.48-4.843-8.238
		c-1.061-1.54-1.59-2.745-1.59-3.612c0-1.54,0.771-2.313,2.313-2.313c1.637,0,3.13,0.845,4.479,2.529
		c1.349,1.687,2.406,3.204,3.181,4.552c0.77,1.351,1.684,3.18,2.745,5.492C598.955,217.562,599.39,218.477,599.968,219.632z"/>
	<path fill="#FFFFFF" d="M712.836,228.159c0,1.061-0.482,1.976-1.445,2.745c-0.964,0.772-2.168,1.156-3.613,1.156
		c-2.697,0-6.166,0.604-10.404,1.807c-4.24,1.206-7.227,2.001-8.961,2.385c0.192,1.062,0.409,2.023,0.65,2.891
		c0.24,0.867,0.723,1.976,1.445,3.323c0.723,1.351,1.084,2.409,1.084,3.18c0,0.867-0.627,1.976-1.879,3.324
		c-2.12,2.313-3.808,4.335-5.059,6.069c2.793,2.698,5.153,5.444,7.081,8.237c2.985,4.336,5.685,9.827,8.094,16.476
		c0.289,1.35,0.435,2.506,0.435,3.468c0,2.988-0.867,4.48-2.603,4.48c-1.444,0-2.65-1.06-3.612-3.181
		c-1.543-4.815-3.35-9.249-5.42-13.294c-2.072-4.047-4.359-8.188-6.864-12.429c-3.565,4.335-7.203,7.876-10.911,10.622
		c-3.71,2.745-8.262,5.13-13.656,7.153c-0.578,0.194-1.397,0.289-2.457,0.289c-1.832,0-2.746-0.384-2.746-1.156
		c0-1.059,1.445-2.168,4.337-3.324c4.43-2.312,8.235-4.913,11.416-7.804c0.963-0.962,5.348-6.069,13.15-15.318
		c0.867-1.349,1.468-2.433,1.808-3.252c0.337-0.817,0.506-1.612,0.506-2.385c0-0.578-0.241-1.54-0.724-2.891
		c-0.482-1.348-0.723-2.601-0.723-3.757c-2.796,0.289-4.866,0.434-6.214,0.434c-1.641,0-2.94-0.12-3.902-0.361
		c-0.965-0.239-2.746-0.745-5.348-1.518c-2.697-1.156-4.046-2.552-4.046-4.191c0-1.637,1.105-2.456,3.322-2.456
		c0.289,0,1.013,0.097,2.169,0.289c1.733,0.578,3.106,0.938,4.118,1.083c1.013,0.145,2.722,0.217,5.132,0.217
		c3.563,0,7.778-0.553,12.645-1.661c4.864-1.106,10.912-2.529,18.137-4.264h0.578C711.342,224.932,712.836,226.136,712.836,228.159z
		 M697.084,310.102c1.827,8.189,4.719,12.765,8.671,13.729c2.89,0.48,5.827,0.722,8.814,0.722c2.407,0,5.564-0.145,9.466-0.433
		c3.901-0.289,6.96-0.578,9.178-0.867c2.215-0.289,3.563-0.434,4.047-0.434c3.469,0,5.203,1.348,5.203,4.045
		c0,2.408-1.445,3.613-4.336,3.613c-2.699,0-6.602,0.146-11.706,0.435c-5.108,0.289-8.77,0.434-10.983,0.434
		c-2.023,0-4.071-0.098-6.143-0.288c-2.072-0.195-3.781-0.484-5.131-0.867c-4.144-0.772-7.274-3.35-9.394-7.731
		c-2.121-4.383-4.144-10.235-6.07-17.56c-0.866-1.06-1.301-2.07-1.301-3.034c0-1.927,0.818-2.892,2.457-2.892
		c1.06,0,2.263,0.578,3.613,1.734l0.434,0.434C694.963,302.49,696.023,305.477,697.084,310.102z M742.245,215.803
		c1.012,1.976,1.518,4.457,1.518,7.442c-0.097,1.253-0.146,2.602-0.146,4.047s0,2.987,0,4.624c0,1.929,0.022,3.88,0.072,5.854
		c0.048,1.976,0.072,3.974,0.072,5.997v1.734v2.023v2.313v2.745v3.18v3.613c0,7.033-0.146,13.945-0.435,20.738
		c-0.288,6.791-0.771,11.537-1.443,14.234c-0.677,2.698-1.642,4.047-2.892,4.047c-1.444,0-2.168-1.638-2.168-4.914
		c0.289-2.313,0.48-4.574,0.578-6.793c0.095-2.215,0.146-4.383,0.146-6.502v-1.734c0-1.829-0.122-5.709-0.361-11.634
		c-0.242-5.925-0.361-10.283-0.361-13.079c-2.796,1.445-5.878,2.579-9.25,3.396c-3.373,0.819-6.502,1.229-9.393,1.229
		c-1.832,0-3.469-0.146-4.914-0.434c-2.313-1.156-3.469-2.552-3.469-4.191c0-2.313,1.733-3.228,5.203-2.746
		c1.251,0.387,2.793,0.578,4.625,0.578c5.297,0,11.029-1.781,17.196-5.347c0-4.047,0.096-8.332,0.289-12.862
		c0.191-4.527,0.289-7.226,0.289-8.093c0-2.985-0.434-5.395-1.301-7.226c-0.867-1.829-2.699-4.239-5.492-7.227
		c-2.12-1.734-3.18-3.371-3.18-4.913c0-1.445,0.817-2.168,2.457-2.168c0.771,0,1.518,0.169,2.24,0.506
		c0.723,0.339,1.323,0.65,1.807,0.939l0.434,0.145C738.608,210.336,741.235,213.829,742.245,215.803z"/>
	<path fill="#FFFFFF" d="M842.614,256.629c2.697,3.565,4.047,8.143,4.047,13.729c0,2.89-1.012,5.708-3.034,8.455
		c-2.023,2.746-4.24,4.695-6.646,5.853c0.383,0.867,0.578,1.733,0.578,2.603c0,0.771-0.34,2.047-1.012,3.83
		c-0.677,1.782-1.255,3.59-1.734,5.418c10.596-0.962,20.811-2.457,30.637-4.479c2.313-0.48,5.396-1.204,9.25-2.168l-0.145-56.218
		c0-8.96-0.484-15.029-1.445-18.209c-0.965-3.18-3.807-6.792-8.526-10.839c-1.64-1.349-2.457-2.504-2.457-3.469
		c0-0.867,0.577-1.301,1.733-1.301c1.06,0,2.313,0.339,3.758,1.012c6.07,4.145,9.923,8.143,11.563,11.995
		c1.25,2.891,1.877,7.709,1.877,14.452v5.491c0,7.804,0.049,18.596,0.145,32.372c0.097,13.779,0.146,24.619,0.146,32.517
		c6.166,0,11.584-0.289,16.26-0.867c4.672-0.578,8.404-1.251,11.199-2.022c1.156,0,2.938,0.723,5.348,2.168
		c0.771,0.964,1.156,1.784,1.156,2.457c0,1.155-1.254,1.733-3.758,1.733c-6.359,0.098-12.066,0.17-17.125,0.217
		c-5.06,0.051-9.418,0.072-13.08,0.072c0,3.276-0.193,8.262-0.578,14.957s-0.578,11.393-0.578,14.092
		c-0.576,2.891-1.205,4.334-1.877,4.334c-0.676,0-1.207-1.588-1.59-4.769c0-4.528-0.34-12.62-1.012-24.278
		c-0.289-5.009-0.435-8.815-0.435-11.418c-4.723,1.832-12.719,3.711-23.99,5.637c-19.364,3.276-32.95,5.687-40.754,7.227
		c-2.121,0.289-5.733,0.964-10.84,2.023c-1.445,0.289-2.506,0.434-3.18,0.434c-1.445,0-3.324-0.673-5.636-2.023
		c-0.965-0.867-1.445-1.637-1.445-2.313c0-1.156,0.915-1.734,2.746-1.734c0.384,0,0.962,0.051,1.732,0.146
		c1.83,0,4.386-0.239,7.66-0.722c0.867-0.097,4.094-0.627,9.685-1.59l16.618-3.47c1.539-4.72,2.313-7.996,2.313-9.827
		c0-1.06-0.195-1.781-0.578-2.168c-6.746,0-12.164-1.757-16.258-5.273c-4.098-3.518-6.144-8.021-6.144-13.513
		c0-4.816,2.144-8.791,6.433-11.923c4.285-3.13,9.656-4.696,16.113-4.696C835.243,250.56,839.53,252.582,842.614,256.629z
		 M797.524,243.622c0-1.445,1.35-2.168,4.047-2.168c3.469,0.289,6.215,0.434,8.238,0.434c2.022,0,3.902-0.167,5.637-0.506
		c1.732-0.336,3.228-0.65,4.479-0.939c8.383-1.926,16.813-3.852,25.291-5.78c0.385-0.095,0.866-0.145,1.444-0.145
		c2.408,0,3.613,0.867,3.613,2.602c0,1.542-1.205,2.698-3.613,3.468l-27.17,5.637c-4.912,0.964-8.576,1.445-10.981,1.445
		c-2.121,0-4.914-0.434-8.383-1.301C798.391,245.501,797.524,244.587,797.524,243.622z M811.543,214.285
		c0-0.771,0.526-1.156,1.59-1.156c0.479,0,0.985,0.072,1.518,0.217c0.527,0.145,0.939,0.313,1.229,0.506
		c3.467,1.542,6.741,2.843,9.825,3.902c3.082,1.061,7.419,2.506,13.007,4.335c1.541,0.578,2.313,1.59,2.313,3.035
		c0,1.929-1.156,2.746-3.467,2.457c-2.797-0.771-5.926-1.879-9.396-3.324c-4.914-2.023-9.635-4.336-14.161-6.937l-0.578-0.289
		C812.168,216.069,811.543,215.152,811.543,214.285z M818.622,259.303c-3.084,2.265-4.622,4.985-4.622,8.165
		c0,3.084,1.637,6.214,4.911,9.395c2.892,1.929,5.927,2.891,9.105,2.891c3.272,0,6.092-1.012,8.455-3.035
		c2.358-2.023,3.539-4.575,3.539-7.659c0-4.047-0.818-7.177-2.455-9.394c-1.931-2.505-4.914-3.758-8.961-3.758
		C825.03,255.906,821.706,257.04,818.622,259.303z"/>
</g>
<g enable-background="new    ">
	<path fill="#FFFFFF" stroke="#FFFFFF" stroke-miterlimit="10" d="M560.804,241.454c0.289,0.867,0.434,2.218,0.434,4.047
		c-0.097,2.507-0.169,4.963-0.217,7.37c-0.05,2.41-0.072,4.819-0.072,7.227c0,1.928-0.241,6.166-0.723,12.717
		c-0.097,1.351-0.146,3.18-0.146,5.492c2.022,0.867,3.034,2.266,3.034,4.19c0,2.41-1.443,3.469-4.335,3.18
		c-4.046,0-7.781,0.122-11.2,0.361c-3.421,0.242-7.059,0.556-10.911,0.938c-2.021,0-4.335-0.336-6.937-1.012
		c-0.578,3.952-1.688,5.926-3.324,5.926c-1.444,0-2.168-1.685-2.168-5.059c-0.771-8.574-1.542-17.197-2.313-25.868
		c-0.578-4.142-1.351-6.84-2.313-8.094c-0.964-1.251-2.602-2.601-4.914-4.046c-1.351-1.06-2.021-2.168-2.021-3.324
		c0-1.445,0.914-2.168,2.745-2.168c0.962,0,2.168,0.289,3.612,0.867c2.793,1.734,4.913,3.446,6.358,5.131
		c1.445,1.687,2.552,3.879,3.324,6.575c0.673,0.097,1.54,0.145,2.602,0.145c2.406,0,4.816-0.456,7.227-1.373
		c2.406-0.914,4.142-1.42,5.201-1.518c2.697,0,4.047,1.062,4.047,3.18c0,1.831-1.035,2.915-3.106,3.252
		c-2.072,0.339-5.469,1.133-10.188,2.384c-1.155,0.289-2.219,0.434-3.18,0.434c-0.867,0-1.59-0.095-2.168-0.289
		c0,2.699,0.095,6.022,0.289,9.972c0.191,3.952,0.289,6.555,0.289,7.805c1.445,0.289,2.746,0.435,3.902,0.435
		c3.563-0.384,7.104-0.795,10.62-1.229c3.517-0.434,7.443-0.649,11.779-0.649c0-3.18-0.483-11.898-1.445-26.158
		c0-1.54,0.048-3.371,0.146-5.491c0-2.215-0.289-3.83-0.867-4.842c-0.578-1.012-2.073-2.721-4.479-5.13
		c-0.966-0.962-1.445-1.879-1.445-2.746c0-1.637,0.914-2.457,2.746-2.457c0.962,0,1.926,0.339,2.891,1.012
		c1.539,1.062,3.273,2.843,5.202,5.348C559.84,239.432,560.515,240.587,560.804,241.454z M599.968,219.632
		c0.289,0.867,0.434,1.977,0.434,3.324c-0.097,1.351-0.193,2.818-0.289,4.408c-0.097,1.59-0.145,4.071-0.145,7.442v59.83
		c0,8.384-0.339,14.982-1.013,19.8c-0.193,1.444-0.771,5.105-1.732,10.982c-0.773,2.602-1.641,3.902-2.603,3.902
		c-0.965,0-1.301-1.352-1.012-4.047v-31.36c0-5.875-0.05-16.353-0.145-31.433c-0.099-15.077-0.146-25.699-0.146-31.866
		c0-1.059,0.022-2.07,0.072-3.034c0.047-0.962,0.072-1.879,0.072-2.746c0-2.504-0.361-4.625-1.084-6.358
		c-0.724-1.734-2.338-4.48-4.843-8.238c-1.061-1.54-1.59-2.745-1.59-3.612c0-1.54,0.771-2.313,2.313-2.313
		c1.637,0,3.13,0.845,4.479,2.529c1.349,1.687,2.406,3.204,3.181,4.552c0.77,1.351,1.684,3.18,2.745,5.492
		C598.955,217.562,599.39,218.477,599.968,219.632z"/>
	<path fill="#FFFFFF" stroke="#FFFFFF" stroke-miterlimit="10" d="M712.836,228.159c0,1.061-0.482,1.976-1.445,2.745
		c-0.964,0.772-2.168,1.156-3.613,1.156c-2.697,0-6.166,0.604-10.404,1.807c-4.24,1.206-7.227,2.001-8.961,2.385
		c0.192,1.062,0.409,2.023,0.65,2.891c0.24,0.867,0.723,1.976,1.445,3.323c0.723,1.351,1.084,2.409,1.084,3.18
		c0,0.867-0.627,1.976-1.879,3.324c-2.12,2.313-3.808,4.335-5.059,6.069c2.793,2.698,5.153,5.444,7.081,8.237
		c2.985,4.336,5.685,9.827,8.094,16.476c0.289,1.35,0.435,2.506,0.435,3.468c0,2.988-0.867,4.48-2.603,4.48
		c-1.444,0-2.65-1.06-3.612-3.181c-1.543-4.815-3.35-9.249-5.42-13.294c-2.072-4.047-4.359-8.188-6.864-12.429
		c-3.565,4.335-7.203,7.876-10.911,10.622c-3.71,2.745-8.262,5.13-13.656,7.153c-0.578,0.194-1.397,0.289-2.457,0.289
		c-1.832,0-2.746-0.384-2.746-1.156c0-1.059,1.445-2.168,4.337-3.324c4.43-2.312,8.235-4.913,11.416-7.804
		c0.963-0.962,5.348-6.069,13.15-15.318c0.867-1.349,1.468-2.433,1.808-3.252c0.337-0.817,0.506-1.612,0.506-2.385
		c0-0.578-0.241-1.54-0.724-2.891c-0.482-1.348-0.723-2.601-0.723-3.757c-2.796,0.289-4.866,0.434-6.214,0.434
		c-1.641,0-2.94-0.12-3.902-0.361c-0.965-0.239-2.746-0.745-5.348-1.518c-2.697-1.156-4.046-2.552-4.046-4.191
		c0-1.637,1.105-2.456,3.322-2.456c0.289,0,1.013,0.097,2.169,0.289c1.733,0.578,3.106,0.938,4.118,1.083
		c1.013,0.145,2.722,0.217,5.132,0.217c3.563,0,7.778-0.553,12.645-1.661c4.864-1.106,10.912-2.529,18.137-4.264h0.578
		C711.342,224.932,712.836,226.136,712.836,228.159z M697.084,310.102c1.827,8.189,4.719,12.765,8.671,13.729
		c2.89,0.48,5.827,0.722,8.814,0.722c2.407,0,5.564-0.145,9.466-0.433c3.901-0.289,6.96-0.578,9.178-0.867
		c2.215-0.289,3.563-0.434,4.047-0.434c3.469,0,5.203,1.348,5.203,4.045c0,2.408-1.445,3.613-4.336,3.613
		c-2.699,0-6.602,0.146-11.706,0.435c-5.108,0.289-8.77,0.434-10.983,0.434c-2.023,0-4.071-0.098-6.143-0.288
		c-2.072-0.195-3.781-0.484-5.131-0.867c-4.144-0.772-7.274-3.35-9.394-7.731c-2.121-4.383-4.144-10.235-6.07-17.56
		c-0.866-1.06-1.301-2.07-1.301-3.034c0-1.927,0.818-2.892,2.457-2.892c1.06,0,2.263,0.578,3.613,1.734l0.434,0.434
		C694.963,302.49,696.023,305.477,697.084,310.102z M742.245,215.803c1.012,1.976,1.518,4.457,1.518,7.442
		c-0.097,1.253-0.146,2.602-0.146,4.047s0,2.987,0,4.624c0,1.929,0.022,3.88,0.072,5.854c0.048,1.976,0.072,3.974,0.072,5.997v1.734
		v2.023v2.313v2.745v3.18v3.613c0,7.033-0.146,13.945-0.435,20.738c-0.288,6.791-0.771,11.537-1.443,14.234
		c-0.677,2.698-1.642,4.047-2.892,4.047c-1.444,0-2.168-1.638-2.168-4.914c0.289-2.313,0.48-4.574,0.578-6.793
		c0.095-2.215,0.146-4.383,0.146-6.502v-1.734c0-1.829-0.122-5.709-0.361-11.634c-0.242-5.925-0.361-10.283-0.361-13.079
		c-2.796,1.445-5.878,2.579-9.25,3.396c-3.373,0.819-6.502,1.229-9.393,1.229c-1.832,0-3.469-0.146-4.914-0.434
		c-2.313-1.156-3.469-2.552-3.469-4.191c0-2.313,1.733-3.228,5.203-2.746c1.251,0.387,2.793,0.578,4.625,0.578
		c5.297,0,11.029-1.781,17.196-5.347c0-4.047,0.096-8.332,0.289-12.862c0.191-4.527,0.289-7.226,0.289-8.093
		c0-2.985-0.434-5.395-1.301-7.226c-0.867-1.829-2.699-4.239-5.492-7.227c-2.12-1.734-3.18-3.371-3.18-4.913
		c0-1.445,0.817-2.168,2.457-2.168c0.771,0,1.518,0.169,2.24,0.506c0.723,0.339,1.323,0.65,1.807,0.939l0.434,0.145
		C738.608,210.336,741.235,213.829,742.245,215.803z"/>
	<path fill="#FFFFFF" stroke="#FFFFFF" stroke-miterlimit="10" d="M842.614,256.629c2.697,3.565,4.047,8.143,4.047,13.729
		c0,2.89-1.012,5.708-3.034,8.455c-2.023,2.746-4.24,4.695-6.646,5.853c0.383,0.867,0.578,1.733,0.578,2.603
		c0,0.771-0.34,2.047-1.012,3.83c-0.677,1.782-1.255,3.59-1.734,5.418c10.596-0.962,20.811-2.457,30.637-4.479
		c2.313-0.48,5.396-1.204,9.25-2.168l-0.145-56.218c0-8.96-0.484-15.029-1.445-18.209c-0.965-3.18-3.807-6.792-8.526-10.839
		c-1.64-1.349-2.457-2.504-2.457-3.469c0-0.867,0.577-1.301,1.733-1.301c1.06,0,2.313,0.339,3.758,1.012
		c6.07,4.145,9.923,8.143,11.563,11.995c1.25,2.891,1.877,7.709,1.877,14.452v5.491c0,7.804,0.049,18.596,0.145,32.372
		c0.097,13.779,0.146,24.619,0.146,32.517c6.166,0,11.584-0.289,16.26-0.867c4.672-0.578,8.404-1.251,11.199-2.022
		c1.156,0,2.938,0.723,5.348,2.168c0.771,0.964,1.156,1.784,1.156,2.457c0,1.155-1.254,1.733-3.758,1.733
		c-6.359,0.098-12.066,0.17-17.125,0.217c-5.06,0.051-9.418,0.072-13.08,0.072c0,3.276-0.193,8.262-0.578,14.957
		s-0.578,11.393-0.578,14.092c-0.576,2.891-1.205,4.334-1.877,4.334c-0.676,0-1.207-1.588-1.59-4.769
		c0-4.528-0.34-12.62-1.012-24.278c-0.289-5.009-0.435-8.815-0.435-11.418c-4.723,1.832-12.719,3.711-23.99,5.637
		c-19.364,3.276-32.95,5.687-40.754,7.227c-2.121,0.289-5.733,0.964-10.84,2.023c-1.445,0.289-2.506,0.434-3.18,0.434
		c-1.445,0-3.324-0.673-5.636-2.023c-0.965-0.867-1.445-1.637-1.445-2.313c0-1.156,0.915-1.734,2.746-1.734
		c0.384,0,0.962,0.051,1.732,0.146c1.83,0,4.386-0.239,7.66-0.722c0.867-0.097,4.094-0.627,9.685-1.59l16.618-3.47
		c1.539-4.72,2.313-7.996,2.313-9.827c0-1.06-0.195-1.781-0.578-2.168c-6.746,0-12.164-1.757-16.258-5.273
		c-4.098-3.518-6.144-8.021-6.144-13.513c0-4.816,2.144-8.791,6.433-11.923c4.285-3.13,9.656-4.696,16.113-4.696
		C835.243,250.56,839.53,252.582,842.614,256.629z M797.524,243.622c0-1.445,1.35-2.168,4.047-2.168
		c3.469,0.289,6.215,0.434,8.238,0.434c2.022,0,3.902-0.167,5.637-0.506c1.732-0.336,3.228-0.65,4.479-0.939
		c8.383-1.926,16.813-3.852,25.291-5.78c0.385-0.095,0.866-0.145,1.444-0.145c2.408,0,3.613,0.867,3.613,2.602
		c0,1.542-1.205,2.698-3.613,3.468l-27.17,5.637c-4.912,0.964-8.576,1.445-10.981,1.445c-2.121,0-4.914-0.434-8.383-1.301
		C798.391,245.501,797.524,244.587,797.524,243.622z M811.543,214.285c0-0.771,0.526-1.156,1.59-1.156
		c0.479,0,0.985,0.072,1.518,0.217c0.527,0.145,0.939,0.313,1.229,0.506c3.467,1.542,6.741,2.843,9.825,3.902
		c3.082,1.061,7.419,2.506,13.007,4.335c1.541,0.578,2.313,1.59,2.313,3.035c0,1.929-1.156,2.746-3.467,2.457
		c-2.797-0.771-5.926-1.879-9.396-3.324c-4.914-2.023-9.635-4.336-14.161-6.937l-0.578-0.289
		C812.168,216.069,811.543,215.152,811.543,214.285z M818.622,259.303c-3.084,2.265-4.622,4.985-4.622,8.165
		c0,3.084,1.637,6.214,4.911,9.395c2.892,1.929,5.927,2.891,9.105,2.891c3.272,0,6.092-1.012,8.455-3.035
		c2.358-2.023,3.539-4.575,3.539-7.659c0-4.047-0.818-7.177-2.455-9.394c-1.931-2.505-4.914-3.758-8.961-3.758
		C825.03,255.906,821.706,257.04,818.622,259.303z"/>
</g>
<g enable-background="new    ">
	<path fill="#FFFFFF" d="M548.157,410.9c2.553-0.434,4.166-0.649,4.843-0.649c1.444,0,2.745,0.628,3.9,1.879
		c0.673,0.771,1.012,1.494,1.012,2.167c0,0.676-0.289,1.641-0.866,2.891c-0.964,2.219-1.733,4.098-2.313,5.638
		c-3.276,10.021-7.974,20.21-14.091,30.564c-6.12,10.357-11.345,16.935-15.681,19.728c-1.64,1.253-2.939,1.879-3.902,1.879
		c-0.674,0-1.012-0.289-1.012-0.867c0-0.867,0.626-2.071,1.879-3.613c3.372-3.659,7.227-9.055,11.563-16.186
		c4.335-7.129,7.658-13.585,9.972-19.366c-19.076,8.577-29.578,12.862-31.504,12.862c-0.578,0-1.543-0.191-2.892-0.578
		c-1.156-0.48-1.951-0.986-2.385-1.519c-0.435-0.527-0.65-1.131-0.65-1.806c0-1.733,1.156-2.602,3.47-2.602
		c0.384,0.097,1.012,0.145,1.879,0.145c2.504,0,7.563-1.396,15.174-4.19c5.492-2.023,11.608-4.19,18.354-6.504
		c0.771-1.349,1.421-2.817,1.951-4.407c0.529-1.59,1.179-3.686,1.951-6.286c0.095-0.673,0.239-1.396,0.434-2.168
		c0-0.673-0.482-1.013-1.444-1.013c-0.388,0-0.771,0.051-1.156,0.146c-0.386,0.099-1.445,0.242-3.18,0.435
		c-4.046,0.578-9.011,1.494-14.886,2.746c-3.18,0.674-5.396,1.012-6.647,1.012c-1.541,0-3.468-0.385-5.78-1.156
		c-1.351-0.962-2.021-1.926-2.021-2.891c0-1.541,1.202-2.313,3.611-2.313c1.061,0.289,2.118,0.435,3.18,0.435
		c1.541,0,4.047-0.336,7.516-1.013c5.203-1.06,9.827-1.878,13.873-2.456C543.654,411.648,545.605,411.335,548.157,410.9z
		 M593.176,393.125c0.19,0.723,0.289,1.712,0.289,2.963c-0.289,2.313-0.506,4.36-0.65,6.143c-0.145,1.783-0.217,4.603-0.217,8.455
		c0.384,3.467,0.65,8.694,0.795,15.68c0.145,6.986,0.217,15.297,0.217,24.93v4.191c5.297,0,11.127-0.435,17.486-1.302
		c2.793-0.384,4.863-0.577,6.215-0.577c1.25,0,2.695,0.145,4.335,0.434c2.216,0.867,3.323,2.12,3.323,3.757
		c0,2.023-1.252,3.035-3.757,3.035c-0.964,0-2.94-0.12-5.926-0.361c-2.987-0.238-5.202-0.36-6.647-0.36
		c-0.482,0-2.603,0.071-6.358,0.217c-3.756,0.145-6.697,0.217-8.814,0.217v16.042c0,6.069-0.17,10.574-0.506,13.512
		c-0.339,2.938-1.135,6.96-2.386,12.067c-0.866,2.407-1.782,3.613-2.746,3.613s-1.444-1.013-1.444-3.035
		c0.289-5.878,0.554-11.681,0.795-17.414c0.24-5.731,0.361-13.802,0.361-24.207c0-13.391-0.098-24.254-0.289-32.589
		c-0.193-8.332-0.435-18.427-0.724-30.276c0-0.962,0.048-2.117,0.146-3.469c0-1.637-0.386-3.323-1.156-5.059
		c-0.771-1.733-2.361-4.479-4.769-8.236c-0.676-1.061-1.013-2.023-1.013-2.891c0-1.35,0.673-2.023,2.023-2.023
		c1.349,0,2.696,0.675,4.046,2.023c1.252,1.64,2.336,3.275,3.252,4.912c0.914,1.641,1.757,3.375,2.529,5.203
		C592.452,390.936,592.982,392.402,593.176,393.125z"/>
	<path fill="#FFFFFF" d="M660.087,454.112c0-0.435,0-1.034,0-1.808c0-0.673,0.021-1.373,0.071-2.096
		c0.048-0.723,0.072-1.468,0.072-2.24c0-1.926-0.313-3.611-0.939-5.058c-0.628-1.445-1.806-2.624-3.539-3.541
		c-1.734-0.914-2.603-2.046-2.603-3.396c0-1.637,0.962-2.456,2.892-2.456c0.288,0.098,0.723,0.169,1.301,0.218
		s1.156,0.217,1.733,0.506c2.984,1.732,5.009,3.757,6.068,6.068c0.771,1.641,1.156,3.902,1.156,6.792v4.625
		c0,0.483,0.022,1.135,0.071,1.951c0.049,0.819,0.12,1.614,0.218,2.384c2.794-0.384,5.876-0.794,9.25-1.228
		c3.371-0.434,6.262-0.938,8.671-1.518c0.289-1.061,0.434-2.553,0.434-4.48c0-1.829-0.097-6.742-0.289-14.74
		c0-2.406-0.482-4.19-1.444-5.348c-0.578-0.673-1.036-1.348-1.373-2.023c-0.339-0.673-0.506-1.251-0.506-1.733
		c0-1.444,0.816-2.167,2.456-2.167c0.481,0,0.987,0.071,1.519,0.217c0.528,0.145,0.938,0.313,1.228,0.506
		c2.119,1.253,3.444,2.313,3.976,3.179c0.528,0.867,0.795,2.12,0.795,3.759c-0.097,0.771-0.146,1.566-0.146,2.385
		c0,0.819,0,1.711,0,2.673v1.445c0,1.155,0.023,2.361,0.072,3.612c0.048,1.253,0.072,2.555,0.072,3.902
		c0,2.987-0.241,5.687-0.723,8.093c2.215-0.384,4.503-0.816,6.864-1.301c2.359-0.48,3.877-0.816,4.552-1.012
		c0.674-0.192,1.106-0.289,1.302-0.289c2.022,0,3.035,0.723,3.035,2.168c0,0.675-0.387,1.325-1.156,1.951
		c-0.772,0.627-1.929,1.084-3.469,1.373c-4.529,1.061-10.72,2.337-18.57,3.829c-7.854,1.494-13.898,2.48-18.138,2.963
		c-2.507,0.482-5.011,0.964-7.515,1.444c-1.063,0.194-2.022,0.289-2.891,0.289c-1.734,0-3.952-0.527-6.648-1.59
		c-1.155-0.962-1.733-1.974-1.733-3.035c0-1.444,0.915-2.168,2.746-2.168c0.963,0,1.685,0.072,2.168,0.217
		c0.479,0.146,1.059,0.218,1.733,0.218c1.06,0,2.168-0.096,3.324-0.289c2.891-0.48,4.383-0.724,4.479-0.724
		C660.28,455.39,660.087,454.546,660.087,454.112z M689.713,409.962c2.215-0.673,3.708-1.012,4.479-1.012
		c0.962,0,1.951,0.577,2.963,1.733c1.013,1.156,1.519,2.168,1.519,3.035c0,1.831-2.023,2.745-6.07,2.745
		c-4.144,0.867-8.117,1.712-11.923,2.529c-3.808,0.819-7.637,1.567-11.489,2.24c-1.253,0.193-2.843,0.482-4.77,0.866
		c-0.675,0.098-1.301,0.146-1.878,0.146c-1.831,0-4.676-0.962-8.526-2.892c-1.445-0.867-2.168-1.879-2.168-3.035
		c0-1.155,0.77-1.733,2.313-1.733c1.06,0,2.117,0.242,3.181,0.724c1.444,0.387,2.745,0.577,3.9,0.577
		c0.673,0,1.591-0.095,2.746-0.288c1.155-0.191,2.793-0.435,4.913-0.724h0.578C676.321,413.624,683.066,411.984,689.713,409.962z
		 M723.097,413.068c0.289,1.012,0.434,2.146,0.434,3.396c-0.097,1.445-0.193,2.963-0.289,4.553
		c-0.097,1.591-0.145,3.829-0.145,6.721v2.313c0,2.409,0.021,4.697,0.072,6.864c0.048,2.168,0.071,4.216,0.071,6.143v1.591v1.732
		c0,3.374-0.05,5.926-0.145,7.66c-0.098,1.733-0.386,3.807-0.867,6.214c0.095,0.772-0.05,1.397-0.433,1.879
		c-0.388,0.483-0.867,0.724-1.445,0.724c-0.676,0-1.207-0.409-1.59-1.229c-0.388-0.817-0.531-2.046-0.435-3.686
		c0-2.118-0.145-6.599-0.434-13.439c-0.289-6.84-0.531-10.983-0.723-12.429c-2.121,0.289-4.24,0.7-6.359,1.229
		c-2.12,0.53-3.469,0.795-4.047,0.795c-1.062,0-2.265-0.626-3.612-1.879c-0.867-0.673-1.301-1.444-1.301-2.313
		c0-0.673,0.528-1.229,1.59-1.662c1.06-0.435,2.794-0.65,5.202-0.65c1.734-0.19,3.275-0.407,4.625-0.649
		c1.348-0.239,2.457-0.506,3.324-0.795c0.095-1.54,0.19-3.131,0.289-4.77c0.095-1.638,0.145-3.274,0.145-4.914
		c0-1.54-0.242-2.864-0.723-3.974c-0.483-1.105-1.495-2.674-3.035-4.697c-1.445-1.445-2.168-2.648-2.168-3.613
		c0-1.539,0.867-2.312,2.602-2.312c1.156,0,2.215,0.481,3.181,1.444c0.288,0.387,0.938,1.156,1.95,2.313
		c1.013,1.157,1.709,2.073,2.097,2.746C722.086,410.492,722.808,412.059,723.097,413.068z M743.257,391.318
		c0.337,1.733,0.506,4.336,0.506,7.805v7.516c0,1.639,0.048,9.877,0.145,24.712c0.096,14.839,0.146,25.195,0.146,31.071
		c0,8.865-0.217,16.836-0.65,23.918c-0.433,7.081-1.325,13.028-2.673,17.849c-0.867,2.313-1.688,3.469-2.457,3.469
		c-0.578,0-0.867-0.724-0.867-2.168c0-0.772,0.146-1.879,0.435-3.324s0.479-3.085,0.578-4.913c0.095-1.832,0.145-3.808,0.145-5.926
		v-1.879c-0.193-6.84-0.339-13.271-0.434-19.293c-0.099-6.021-0.146-11.536-0.146-16.547c0-5.588-0.145-14.598-0.434-27.025
		s-0.435-20.955-0.435-25.579c0-5.009-0.459-9.032-1.373-12.067c-0.917-3.035-2.723-5.804-5.42-8.31
		c-1.061-1.155-1.59-2.407-1.59-3.758c0-1.638,0.723-2.457,2.168-2.457c0.867,0,1.879,0.435,3.035,1.301
		c1.54,1.253,2.891,2.698,4.047,4.336c0.578,0.772,1.396,2.072,2.457,3.901C741.979,387.128,742.918,389.585,743.257,391.318z"/>
</g>
<g enable-background="new    ">
	<path fill="#FFFFFF" stroke="#FFFFFF" stroke-miterlimit="10" d="M548.157,410.9c2.553-0.434,4.166-0.649,4.843-0.649
		c1.444,0,2.745,0.628,3.9,1.879c0.673,0.771,1.012,1.494,1.012,2.167c0,0.676-0.289,1.641-0.866,2.891
		c-0.964,2.219-1.733,4.098-2.313,5.638c-3.276,10.021-7.974,20.21-14.091,30.564c-6.12,10.357-11.345,16.935-15.681,19.728
		c-1.64,1.253-2.939,1.879-3.902,1.879c-0.674,0-1.012-0.289-1.012-0.867c0-0.867,0.626-2.071,1.879-3.613
		c3.372-3.659,7.227-9.055,11.563-16.186c4.335-7.129,7.658-13.585,9.972-19.366c-19.076,8.577-29.578,12.862-31.504,12.862
		c-0.578,0-1.543-0.191-2.892-0.578c-1.156-0.48-1.951-0.986-2.385-1.519c-0.435-0.527-0.65-1.131-0.65-1.806
		c0-1.733,1.156-2.602,3.47-2.602c0.384,0.097,1.012,0.145,1.879,0.145c2.504,0,7.563-1.396,15.174-4.19
		c5.492-2.023,11.608-4.19,18.354-6.504c0.771-1.349,1.421-2.817,1.951-4.407c0.529-1.59,1.179-3.686,1.951-6.286
		c0.095-0.673,0.239-1.396,0.434-2.168c0-0.673-0.482-1.013-1.444-1.013c-0.388,0-0.771,0.051-1.156,0.146
		c-0.386,0.099-1.445,0.242-3.18,0.435c-4.046,0.578-9.011,1.494-14.886,2.746c-3.18,0.674-5.396,1.012-6.647,1.012
		c-1.541,0-3.468-0.385-5.78-1.156c-1.351-0.962-2.021-1.926-2.021-2.891c0-1.541,1.202-2.313,3.611-2.313
		c1.061,0.289,2.118,0.435,3.18,0.435c1.541,0,4.047-0.336,7.516-1.013c5.203-1.06,9.827-1.878,13.873-2.456
		C543.654,411.648,545.605,411.335,548.157,410.9z M593.176,393.125c0.19,0.723,0.289,1.712,0.289,2.963
		c-0.289,2.313-0.506,4.36-0.65,6.143c-0.145,1.783-0.217,4.603-0.217,8.455c0.384,3.467,0.65,8.694,0.795,15.68
		c0.145,6.986,0.217,15.297,0.217,24.93v4.191c5.297,0,11.127-0.435,17.486-1.302c2.793-0.384,4.863-0.577,6.215-0.577
		c1.25,0,2.695,0.145,4.335,0.434c2.216,0.867,3.323,2.12,3.323,3.757c0,2.023-1.252,3.035-3.757,3.035
		c-0.964,0-2.94-0.12-5.926-0.361c-2.987-0.238-5.202-0.36-6.647-0.36c-0.482,0-2.603,0.071-6.358,0.217
		c-3.756,0.145-6.697,0.217-8.814,0.217v16.042c0,6.069-0.17,10.574-0.506,13.512c-0.339,2.938-1.135,6.96-2.386,12.067
		c-0.866,2.407-1.782,3.613-2.746,3.613s-1.444-1.013-1.444-3.035c0.289-5.878,0.554-11.681,0.795-17.414
		c0.24-5.731,0.361-13.802,0.361-24.207c0-13.391-0.098-24.254-0.289-32.589c-0.193-8.332-0.435-18.427-0.724-30.276
		c0-0.962,0.048-2.117,0.146-3.469c0-1.637-0.386-3.323-1.156-5.059c-0.771-1.733-2.361-4.479-4.769-8.236
		c-0.676-1.061-1.013-2.023-1.013-2.891c0-1.35,0.673-2.023,2.023-2.023c1.349,0,2.696,0.675,4.046,2.023
		c1.252,1.64,2.336,3.275,3.252,4.912c0.914,1.641,1.757,3.375,2.529,5.203C592.452,390.936,592.982,392.402,593.176,393.125z"/>
	<path fill="#FFFFFF" stroke="#FFFFFF" stroke-miterlimit="10" d="M660.087,454.112c0-0.435,0-1.034,0-1.808
		c0-0.673,0.021-1.373,0.071-2.096c0.048-0.723,0.072-1.468,0.072-2.24c0-1.926-0.313-3.611-0.939-5.058
		c-0.628-1.445-1.806-2.624-3.539-3.541c-1.734-0.914-2.603-2.046-2.603-3.396c0-1.637,0.962-2.456,2.892-2.456
		c0.288,0.098,0.723,0.169,1.301,0.218s1.156,0.217,1.733,0.506c2.984,1.732,5.009,3.757,6.068,6.068
		c0.771,1.641,1.156,3.902,1.156,6.792v4.625c0,0.483,0.022,1.135,0.071,1.951c0.049,0.819,0.12,1.614,0.218,2.384
		c2.794-0.384,5.876-0.794,9.25-1.228c3.371-0.434,6.262-0.938,8.671-1.518c0.289-1.061,0.434-2.553,0.434-4.48
		c0-1.829-0.097-6.742-0.289-14.74c0-2.406-0.482-4.19-1.444-5.348c-0.578-0.673-1.036-1.348-1.373-2.023
		c-0.339-0.673-0.506-1.251-0.506-1.733c0-1.444,0.816-2.167,2.456-2.167c0.481,0,0.987,0.071,1.519,0.217
		c0.528,0.145,0.938,0.313,1.228,0.506c2.119,1.253,3.444,2.313,3.976,3.179c0.528,0.867,0.795,2.12,0.795,3.759
		c-0.097,0.771-0.146,1.566-0.146,2.385c0,0.819,0,1.711,0,2.673v1.445c0,1.155,0.023,2.361,0.072,3.612
		c0.048,1.253,0.072,2.555,0.072,3.902c0,2.987-0.241,5.687-0.723,8.093c2.215-0.384,4.503-0.816,6.864-1.301
		c2.359-0.48,3.877-0.816,4.552-1.012c0.674-0.192,1.106-0.289,1.302-0.289c2.022,0,3.035,0.723,3.035,2.168
		c0,0.675-0.387,1.325-1.156,1.951c-0.772,0.627-1.929,1.084-3.469,1.373c-4.529,1.061-10.72,2.337-18.57,3.829
		c-7.854,1.494-13.898,2.48-18.138,2.963c-2.507,0.482-5.011,0.964-7.515,1.444c-1.063,0.194-2.022,0.289-2.891,0.289
		c-1.734,0-3.952-0.527-6.648-1.59c-1.155-0.962-1.733-1.974-1.733-3.035c0-1.444,0.915-2.168,2.746-2.168
		c0.963,0,1.685,0.072,2.168,0.217c0.479,0.146,1.059,0.218,1.733,0.218c1.06,0,2.168-0.096,3.324-0.289
		c2.891-0.48,4.383-0.724,4.479-0.724C660.28,455.39,660.087,454.546,660.087,454.112z M689.713,409.962
		c2.215-0.673,3.708-1.012,4.479-1.012c0.962,0,1.951,0.577,2.963,1.733c1.013,1.156,1.519,2.168,1.519,3.035
		c0,1.831-2.023,2.745-6.07,2.745c-4.144,0.867-8.117,1.712-11.923,2.529c-3.808,0.819-7.637,1.567-11.489,2.24
		c-1.253,0.193-2.843,0.482-4.77,0.866c-0.675,0.098-1.301,0.146-1.878,0.146c-1.831,0-4.676-0.962-8.526-2.892
		c-1.445-0.867-2.168-1.879-2.168-3.035c0-1.155,0.77-1.733,2.313-1.733c1.06,0,2.117,0.242,3.181,0.724
		c1.444,0.387,2.745,0.577,3.9,0.577c0.673,0,1.591-0.095,2.746-0.288c1.155-0.191,2.793-0.435,4.913-0.724h0.578
		C676.321,413.624,683.066,411.984,689.713,409.962z M723.097,413.068c0.289,1.012,0.434,2.146,0.434,3.396
		c-0.097,1.445-0.193,2.963-0.289,4.553c-0.097,1.591-0.145,3.829-0.145,6.721v2.313c0,2.409,0.021,4.697,0.072,6.864
		c0.048,2.168,0.071,4.216,0.071,6.143v1.591v1.732c0,3.374-0.05,5.926-0.145,7.66c-0.098,1.733-0.386,3.807-0.867,6.214
		c0.095,0.772-0.05,1.397-0.433,1.879c-0.388,0.483-0.867,0.724-1.445,0.724c-0.676,0-1.207-0.409-1.59-1.229
		c-0.388-0.817-0.531-2.046-0.435-3.686c0-2.118-0.145-6.599-0.434-13.439c-0.289-6.84-0.531-10.983-0.723-12.429
		c-2.121,0.289-4.24,0.7-6.359,1.229c-2.12,0.53-3.469,0.795-4.047,0.795c-1.062,0-2.265-0.626-3.612-1.879
		c-0.867-0.673-1.301-1.444-1.301-2.313c0-0.673,0.528-1.229,1.59-1.662c1.06-0.435,2.794-0.65,5.202-0.65
		c1.734-0.19,3.275-0.407,4.625-0.649c1.348-0.239,2.457-0.506,3.324-0.795c0.095-1.54,0.19-3.131,0.289-4.77
		c0.095-1.638,0.145-3.274,0.145-4.914c0-1.54-0.242-2.864-0.723-3.974c-0.483-1.105-1.495-2.674-3.035-4.697
		c-1.445-1.445-2.168-2.648-2.168-3.613c0-1.539,0.867-2.312,2.602-2.312c1.156,0,2.215,0.481,3.181,1.444
		c0.288,0.387,0.938,1.156,1.95,2.313c1.013,1.157,1.709,2.073,2.097,2.746C722.086,410.492,722.808,412.059,723.097,413.068z
		 M743.257,391.318c0.337,1.733,0.506,4.336,0.506,7.805v7.516c0,1.639,0.048,9.877,0.145,24.712
		c0.096,14.839,0.146,25.195,0.146,31.071c0,8.865-0.217,16.836-0.65,23.918c-0.433,7.081-1.325,13.028-2.673,17.849
		c-0.867,2.313-1.688,3.469-2.457,3.469c-0.578,0-0.867-0.724-0.867-2.168c0-0.772,0.146-1.879,0.435-3.324s0.479-3.085,0.578-4.913
		c0.095-1.832,0.145-3.808,0.145-5.926v-1.879c-0.193-6.84-0.339-13.271-0.434-19.293c-0.099-6.021-0.146-11.536-0.146-16.547
		c0-5.588-0.145-14.598-0.434-27.025s-0.435-20.955-0.435-25.579c0-5.009-0.459-9.032-1.373-12.067
		c-0.917-3.035-2.723-5.804-5.42-8.31c-1.061-1.155-1.59-2.407-1.59-3.758c0-1.638,0.723-2.457,2.168-2.457
		c0.867,0,1.879,0.435,3.035,1.301c1.54,1.253,2.891,2.698,4.047,4.336c0.578,0.772,1.396,2.072,2.457,3.901
		C741.979,387.128,742.918,389.585,743.257,391.318z"/>
</g>
</svg>
