<?xml version="1.0" encoding="utf-8"?>
<!-- Generator: Adobe Illustrator 16.0.0, SVG Export Plug-In . SVG Version: 6.00 Build 0)  -->
<!DOCTYPE svg PUBLIC "-//W3C//DTD SVG 1.1//EN" "http://www.w3.org/Graphics/SVG/1.1/DTD/svg11.dtd">
<svg version="1.1" id="star" xmlns="http://www.w3.org/2000/svg" xmlns:xlink="http://www.w3.org/1999/xlink" x="0px" y="0px"
	width="612px" height="792px" viewBox="0 0 612 792" enable-background="new 0 0 612 792" xml:space="preserve">
	<style>
		#star { animation: star 3s linear infinite; }
		.shine { animation: shine 3s linear infinite; }
		@keyframes star {
			from { opacity: 0; transform: rotateZ(0deg) scale(0.5); }
			to { opacity: 1; transform: rotateZ(360deg) scale(1); }
		}
		@keyframes shine {
			from { opacity: 0; }
			90% { opacity: 0; }
			to { opacity: 1; }
		}
	</style>
<path fill="#FFDC64" d="M541.131,278.784l-159.863-14.826L317.766,116.5c-4.446-10.325-19.086-10.325-23.531,0l-63.502,147.457
	L70.87,278.784c-11.194,1.038-15.719,14.961-7.272,22.38l120.617,105.96l-35.299,156.621c-2.474,10.967,9.372,19.571,19.037,13.832
	L306,495.607l138.047,81.97c9.667,5.74,21.509-2.865,19.038-13.832l-35.301-156.621l120.617-105.96
	C556.848,293.745,552.323,279.822,541.131,278.784z"/>
<g>
	<path class="shine" fill="#FFF082" d="M142.574,111.424c8.149,11.319,31.151,59.933,44.304,88.264c2.066,4.454-3.521,8.477-7.089,5.103
		c-22.695-21.458-61.501-58.695-69.65-70.016c-6.449-8.957-4.416-21.445,4.542-27.894
		C123.637,100.433,136.126,102.467,142.574,111.424z"/>
	<path class="shine" fill="#FFF082" d="M469.426,111.424c-8.149,11.319-31.152,59.933-44.304,88.264c-2.067,4.454,3.521,8.477,7.089,5.103
		c22.694-21.458,61.5-58.696,69.65-70.016c6.448-8.957,4.415-21.445-4.542-27.894C488.363,100.432,475.875,102.467,469.426,111.424z
		"/>
	<path class="shine" fill="#FFF082" d="M598.207,443.37c-13.261-4.325-66.564-11.47-97.552-15.391c-4.871-0.616-7.006,5.931-2.709,8.305
		c27.341,15.103,74.607,40.759,87.868,45.083c10.492,3.423,21.772-2.31,25.194-12.804
		C614.432,458.071,608.699,446.792,598.207,443.37z"/>
	<path class="shine" fill="#FFF082" d="M13.793,443.37c13.261-4.325,66.564-11.47,97.552-15.391c4.871-0.616,7.006,5.931,2.708,8.305
		c-27.34,15.103-74.606,40.759-87.867,45.083c-10.492,3.423-21.771-2.31-25.194-12.804C-2.431,458.071,3.3,446.792,13.793,443.37z"
		/>
	<path class="shine" fill="#FFF082" d="M286.629,668.903c0-13.948,9.735-66.842,15.616-97.518c0.925-4.822,7.811-4.822,8.733,0
		c5.881,30.676,15.617,83.568,15.617,97.518c0,11.035-8.947,19.981-19.983,19.981C295.576,688.888,286.629,679.939,286.629,668.903z
		"/>
</g>
</svg>
